<svg width="48" height="48" viewBox="0 0 48 48" fill="none" xmlns="http://www.w3.org/2000/svg">
<path d="M35.6495 27.8435C35.9871 27.7461 36.3248 27.6488 36.6625 27.5027C37.1931 27.3567 36.6143 26.5778 36.6143 26.3345C36.6143 26.0424 36.4213 25.7017 35.9871 25.3122C35.6012 24.9228 35.36 24.4847 35.36 24.1927C35.36 23.9006 35.6012 23.7059 36.0354 23.7059C36.3731 23.7059 36.5178 23.6085 36.5178 23.4138C36.5178 22.635 35.7942 22.3429 35.7942 22.0509C35.7942 22.0022 35.8424 21.9535 35.9389 21.9535C36.2283 21.9535 36.8555 22.2456 37.2414 22.6837L37.8203 23.3651L37.8685 22.5376C37.8685 22.0995 37.7238 21.6614 37.4826 21.6128C37.2414 21.5154 37.0967 21.3694 37.0967 21.2233C37.0967 21.1747 37.1449 21.1747 37.1931 21.1747C37.2896 21.1747 37.4343 21.2233 37.6755 21.3694C38.0132 21.5641 38.3991 21.7101 38.6886 21.7101C39.0263 21.7101 39.171 22.0995 39.171 22.5863C39.171 23.1704 38.978 23.8519 38.5921 24.436C38.2544 24.9228 37.8203 25.7017 37.6755 26.1884C37.5791 26.4318 37.5308 26.5778 37.5308 26.7239C37.5308 27.0159 37.7238 27.1133 38.1579 27.1133C38.6403 27.1133 39.2675 26.7239 39.7981 26.0911C41.0041 24.7281 42.2101 23.9493 42.2101 22.3429C42.2101 21.5154 42.4031 18.4487 42.9337 18.4487C43.0784 18.4487 43.1749 20.98 43.4644 20.98C43.9468 20.98 45.0563 17.0858 45.0563 15.1873C45.0563 10.6603 41.8724 6.32806 37.8203 6.32806C36.2766 6.32806 33.1892 7.78838 33.1892 9.54077C33.1892 9.83283 33.4787 9.34606 34.0575 9.34606C34.7811 9.34606 35.3118 9.97886 35.3118 10.5143C35.3118 10.9037 35.0706 11.2932 34.6364 11.2932C34.1058 11.2932 34.0575 10.5143 33.6234 10.5143C33.0445 10.5143 32.8033 11.8286 32.8033 13.1429C32.8033 16.8424 34.6847 19.2762 38.4474 19.2762C39.9911 19.2762 40.2805 17.3291 40.2805 16.6477C40.2805 15.4307 39.5087 14.2625 38.3027 14.2625C37.4826 14.2625 36.7107 15.0413 36.7107 15.6254C36.7107 16.3556 38.3509 17.0371 38.3509 17.5239C38.3509 17.7672 38.0132 17.9133 37.6755 17.9133C36.759 17.9133 35.8424 16.7937 35.8424 15.6741C35.8424 15.3334 36.3248 14.2138 36.6143 14.1164C36.8555 14.0191 35.8907 14.1164 35.7459 14.1164C35.5047 14.1164 35.36 13.8731 35.36 13.5323C35.36 12.9969 36.5178 12.218 37.1449 12.218C37.6273 12.218 38.2062 12.7048 38.8333 12.7048C39.3157 12.7048 39.6051 12.5101 39.6051 12.1207C39.6051 11.1471 36.566 10.6603 36.566 9.83283C36.566 9.6868 36.7107 9.54077 37.0484 9.54077C37.2896 9.54077 37.5308 9.2487 37.5308 8.85928C37.5791 8.51854 37.5791 8.37251 37.6755 8.37251C37.7238 8.37251 37.772 8.42119 37.8685 8.56722C38.0132 8.8106 38.7851 9.54077 39.6051 10.1249C40.8112 11.0011 41.583 11.9746 41.583 13.2402C41.583 13.7757 41.1971 13.9217 40.7629 13.9217C40.3288 13.9217 40.0875 13.9217 40.0875 14.0678C40.0875 14.4572 41.0524 15.1873 41.0524 16.1609C41.0524 18.6434 40.2323 20.0064 37.772 20.0064C34.3952 20.0064 31.935 16.453 31.935 13.581C31.935 11.8773 32.3691 10.9524 32.0314 10.9524C31.6938 11.0984 31.3561 11.2932 31.0184 11.2932C30.4395 11.2932 29.6194 11.0498 29.6194 9.93019C29.6194 9.2487 29.0406 8.8106 28.8476 8.12912C29.4747 8.56722 30.5842 9.29738 31.3561 9.29738C31.6938 9.29738 32.7068 8.12912 33.6234 7.39896C34.0575 7.05822 34.8776 6.52277 34.8776 6.47409C34.8776 6.47409 34.4917 6.42542 34.3952 6.42542C33.0445 6.42542 31.4526 7.15557 30.6325 7.15557C27.8346 7.15557 27.5451 1.509 25.6637 1.509C25.2296 1.509 24.8919 1.31429 24.8919 0.973547C24.8919 0.632806 25.2296 0.438097 25.6155 0.438097C26.1944 0.438097 27.6898 1.99577 27.6898 1.99577C28.0758 1.99577 27.8828 0.778837 28.4617 0.778837C29.0406 0.778837 28.7511 1.65503 29.2818 1.84974C29.523 1.9471 29.7159 2.87197 29.7642 3.89419C29.8606 5.5979 29.7642 6.08467 30.6807 6.13335C30.8254 6.13335 31.8867 5.5979 31.8867 5.50055C31.8867 5.1598 30.343 4.0889 30.343 3.31006C30.343 2.09313 32.1762 0.876193 33.4304 0.876193C33.7199 0.876193 33.9128 1.0709 33.9128 1.31429C33.9128 1.84974 32.4656 2.82329 32.4656 3.21271C32.4656 3.55345 34.0093 4.527 34.0093 4.72171C34.0093 4.91642 33.7199 5.25716 33.1892 5.30584C32.6103 5.40319 32.3691 5.74393 32.3691 5.88996C32.3691 6.036 32.8515 6.13335 33.2857 6.08467C34.9741 5.98732 35.7942 5.35451 37.2414 5.35451C37.965 5.35451 38.2544 5.54922 38.2544 5.54922L37.3379 4.38097C36.4213 3.26139 36.0836 2.43387 36.0836 1.80106C36.0836 1.11958 37.0967 0 37.4826 0C37.8685 0 38.6886 2.19048 38.6886 2.96932C38.6886 3.21271 38.5439 3.26139 38.3991 3.26139C38.0132 3.26139 37.8685 2.82329 37.5791 2.82329C37.3861 2.82329 37.2414 2.92064 37.2414 3.11535C37.2414 3.69948 38.3509 4.72171 39.4604 5.45187C41.1006 6.52277 43.0784 7.49632 43.8503 9.15135C43.995 9.49209 43.995 9.10267 44.1397 8.90796C44.3809 8.51854 44.7668 7.88573 44.7668 7.20425C44.7668 5.25716 40.8112 4.38097 40.8112 3.018C40.8112 2.38519 41.776 0.973547 42.9337 0.973547C43.5608 0.973547 43.7056 2.72593 43.802 2.72593C43.8503 2.72593 45.0563 0.0973535 46.9377 0.0973535C47.5165 0.0973535 47.9989 1.31429 47.9989 2.14181C47.9989 2.87197 47.8542 3.45609 47.5165 3.45609C46.9376 3.45609 46.7929 1.89842 45.9728 1.89842C45.0563 1.89842 44.5256 2.87197 44.5256 3.69948C44.5256 4.81906 46.5035 6.08467 46.5035 6.91219C46.5035 7.49632 44.5256 9.05399 44.5256 9.6868C44.5256 9.93019 45.6834 12.072 45.8764 13.6783C45.8764 14.0191 46.0211 13.9217 46.1176 13.4836C46.1658 13.2889 46.3105 12.0233 46.3105 11.3418C46.3588 9.78415 46.6 8.95664 47.3236 8.95664C47.613 8.95664 47.7095 9.29738 47.7095 9.63812C47.7095 10.1249 47.613 10.563 47.613 10.9037C47.613 11.7312 47.9989 12.7048 47.9989 13.2402C47.9989 13.9704 47.2271 13.8244 47.2271 14.6519C47.2271 15.236 47.2271 15.4307 46.5517 15.4307C45.7799 15.4307 45.9246 14.9926 45.7799 16.0635C45.5869 18.0106 44.6221 20.5419 43.9468 21.8561C44.7668 21.1747 46.6 19.617 47.8542 19.617C47.9507 19.617 47.9989 19.7143 47.9989 19.8604C47.9989 20.0551 47.7577 20.4932 47.4201 20.8339C46.5517 21.7101 46.4552 23.9493 45.1528 23.9493C44.9598 23.9493 44.8151 23.8032 44.8151 23.5112C44.8151 23.1704 44.9116 22.2942 44.6704 22.2942C44.3327 22.2942 40.2323 26.3345 40.2323 26.7726C40.2323 26.9186 40.7147 26.7239 41.4383 26.7239C45.3457 26.7239 47.9025 29.1577 47.9989 33.4414C48.0472 36.6541 46.4553 39.526 44.2844 39.526C43.4644 39.526 42.3066 38.4551 42.3066 36.7027C42.3066 36.4107 42.4031 36.2646 42.596 36.2646C42.8855 36.2646 43.0784 36.7027 43.0784 37.2869C43.0784 38.4551 43.4644 38.5038 44.5256 38.5038C45.6352 38.5038 47.0824 36.8488 47.0824 35.2911C47.0824 34.6583 46.9376 34.0255 46.8894 33.344L46.1658 34.1715C45.8281 34.5609 45.3457 34.9017 45.1045 34.9017H45.0563C44.6704 34.853 44.4774 34.1715 44.4774 33.5387C44.4774 32.9546 44.6221 32.4191 44.9598 32.2731C45.5387 31.981 46.2623 31.1535 46.2623 30.472C46.2623 29.2551 43.4644 27.6974 42.6925 27.6974C41.9689 27.6974 41.4383 28.6223 41.4383 29.1091C41.4383 29.5472 42.2101 30.3747 42.8372 30.3747C43.0784 30.3747 43.1749 30.2287 43.1749 30.0339C43.1749 29.8392 42.8855 29.2551 43.0784 29.2551C43.1267 29.2551 43.5126 29.4498 43.5608 29.4498C43.7538 29.4985 43.9468 29.6445 43.9468 29.9366C43.9468 31.1048 43.1749 31.3482 43.1267 31.5429C43.0302 31.7863 43.2714 33.9768 41.1006 33.9768C40.377 33.9768 39.9428 33.5387 39.9428 33.2466C39.9428 33.198 39.9428 32.4678 40.0393 32.4678C40.184 32.4678 40.2805 33.198 40.8112 33.198C41.39 33.198 41.8724 32.6625 41.8724 32.0784C41.8724 31.2022 39.9428 30.0339 39.9428 29.2064C39.9428 29.0604 41.0524 28.0868 41.0524 27.6488C41.0524 27.4054 40.6182 27.4054 40.2323 27.4054C39.0745 27.4054 37.4826 27.8435 35.9389 28.4276L35.6495 27.8435ZM32.3209 30.0339C31.3078 30.5694 30.6325 31.0075 30.6325 31.1048C30.6325 31.4456 31.935 32.5652 31.935 33.0033C31.935 33.3927 31.549 33.49 31.0184 33.6361C30.5842 33.7334 30.2466 33.8308 30.0536 33.8308H29.9571C29.8606 33.7821 29.7159 33.2466 29.6677 32.6138C29.6194 31.981 29.4265 31.4943 29.33 31.4943C28.8476 31.4943 28.0275 31.7863 27.0627 32.3218C28.6064 34.707 29.9089 37.3842 29.9089 40.5483C29.9089 42.0573 29.2818 43.4202 29.0406 43.9557C30.1018 43.2742 31.4526 41.0837 31.4526 39.2826C31.4526 39.0393 31.1149 38.3091 31.1149 38.017C31.1149 36.7514 32.2727 34.999 32.5621 34.9017C32.6103 34.9017 32.7068 35.2911 32.7068 35.7779C32.7068 36.362 32.2244 36.8001 32.2244 36.9461C32.2244 37.871 32.8033 38.4065 33.2857 38.8932C33.7681 39.3313 34.0093 39.9641 34.0093 40.4996C34.0093 40.9377 33.8646 41.2784 33.5269 41.4731C33.2374 41.6192 32.948 41.7165 32.7551 41.7165C32.5139 41.7165 32.3691 41.2297 32.2726 40.9864C32.2726 40.9377 32.2244 40.889 32.1762 40.889C32.0314 40.889 31.6938 41.5705 31.3078 42.0573C30.8737 42.6414 29.9571 44.1991 29.2818 44.7832C28.7029 45.27 28.6064 45.416 28.6064 45.6594C28.6064 45.8541 28.7029 45.8541 28.8476 45.8541C29.2818 45.8541 30.9702 45.1239 32.2244 45.1239C33.4304 45.1239 34.5399 45.3673 35.2153 45.8541C35.6012 46.1462 36.0836 46.2922 36.5178 46.2922C37.1449 46.2922 37.7238 46.0001 38.1579 45.4647C38.6886 44.7832 39.0263 44.6372 40.0875 44.6372C40.9559 44.6372 41.2936 44.6372 41.2936 44.8805C41.2936 45.0266 41.1006 45.3186 40.7147 45.8054C40.3288 46.2922 40.1358 46.5356 40.1358 46.6329C40.1358 46.7303 40.2805 46.7303 40.6182 46.7303C41.1971 46.7303 43.1267 45.7567 44.4774 44.7832C44.9116 44.4911 45.1528 44.3451 45.2492 44.3451C45.2975 44.3451 45.2975 44.3451 45.2975 44.3938C45.2975 44.6372 45.0563 45.2213 43.7538 46.2435C42.8372 46.9737 43.7056 47.1684 44.3809 46.8276C45.394 46.3895 45.6834 45.0266 46.2623 45.0266C46.5035 45.0266 46.5035 45.416 46.5035 45.8054C46.5035 46.0975 46.407 46.5356 46.5035 46.5356C46.8412 46.5356 47.613 44.5885 47.8542 44.0043C47.9025 44.4424 47.9989 44.8319 47.9989 45.3186C47.9989 47.8012 46.214 47.9959 41.4383 47.9959C39.2675 47.9959 33.3339 46.2435 31.2596 46.2435C29.33 46.2435 24.9401 47.9959 22.9141 47.9959C18.1865 47.9959 17.9936 46.2435 15.4851 46.2435C13.6037 46.2435 12.446 47.9472 6.3677 47.9959C1.4472 47.9959 0 48.2393 0 44.9779C0 43.8096 0.241201 42.7387 0.434161 42.6901C0.482401 42.6901 0.530641 42.6414 0.578882 42.6414C0.916563 42.6414 1.10952 43.1768 1.10952 43.907C1.10952 44.1504 1.10952 44.4424 1.06128 44.7345C1.01304 45.1239 0.964803 45.416 0.964803 45.562C0.964803 45.6594 0.964803 45.7081 1.01304 45.7081C1.06128 45.7081 1.206 45.562 1.39896 45.3186L1.92961 44.6372L2.60497 45.8541C2.99089 46.4869 3.56977 47.071 3.81097 47.1197H4.00393C4.53457 47.1197 4.92049 46.6816 4.92049 46.2435C4.92049 46.0975 4.87225 45.9514 4.77577 45.8054C4.67929 45.6594 4.58281 45.5133 4.58281 45.416C4.58281 45.27 4.72753 45.1726 5.01697 45.1239C5.40289 45.0753 5.69234 45.0266 5.8853 45.0266C6.3677 45.0266 6.46418 45.27 6.46418 45.9514C6.46418 46.7303 6.89834 47.1197 7.71842 47.1197C7.91138 47.1197 8.15258 47.071 8.44202 47.0223C8.82794 46.9737 9.0209 46.8763 9.0209 46.779C9.0209 46.6329 8.82794 46.4869 8.39378 46.1948C8.00786 45.9028 7.76666 45.6107 7.76666 45.3673C7.76666 45.1239 7.95962 44.9779 8.34554 44.9779C9.35859 44.9779 11.24 45.5133 11.24 45.8054C11.24 45.9514 11.4329 46.0975 11.6741 46.1948C11.8188 46.2435 11.8671 46.4382 12.06 46.4382C13.3143 46.4382 13.7484 45.2213 16.1604 45.2213C16.9323 45.2213 18.4277 45.9028 18.4277 45.7081C18.4277 45.6107 16.2569 42.9821 16.2087 42.8361C16.2087 42.6414 15.9192 42.252 15.2439 42.252C14.665 42.252 13.9414 41.6192 13.9414 41.035C13.9414 40.0128 14.7132 40.2075 14.7132 39.0879C14.7132 38.5525 14.3273 37.8223 14.3273 37.1895C14.3273 36.4594 14.665 35.9726 14.7615 35.9726C14.858 35.9726 14.7132 36.8488 14.9062 37.0435C15.2439 37.4329 15.678 37.8223 15.678 38.2117C15.678 38.6985 15.4368 38.5525 15.4368 38.8932C15.4368 39.0393 15.5333 39.38 15.7745 39.38C16.064 39.38 16.3534 39.7694 16.4016 39.7694C16.5946 39.7694 16.4016 38.9906 16.4016 38.6498C16.4016 36.6541 17.8488 34.707 19.6337 32.5652C18.8137 32.1757 18.0901 31.9324 17.4629 31.9324C17.2217 31.9324 17.1252 32.3705 17.0288 32.6625C16.6428 33.6361 16.4016 34.1228 16.2569 34.1228C16.1122 34.1228 16.064 33.7821 15.9192 33.1493C15.8228 32.6625 15.7745 32.2244 15.7745 31.9324C15.7745 31.7863 15.7745 31.689 15.8228 31.6403C15.871 31.5916 16.1604 31.3969 16.1604 31.2996C16.1604 31.2022 15.7263 30.8128 15.0992 30.3747L15.3886 29.7419C15.871 30.0339 16.3534 30.2287 16.7876 30.18C17.0288 30.18 17.1252 29.8879 17.4629 29.2064C17.7041 28.671 18.1865 28.2816 18.8137 28.2816C19.1996 28.2816 19.4408 28.4276 19.4408 28.7197C19.4408 29.0117 19.1996 29.4011 18.7654 29.8392C18.4277 30.18 18.0901 30.6181 18.0901 30.8128C18.0901 31.0562 17.9936 31.0075 18.0901 31.0562C18.7172 31.4456 19.3443 31.7863 19.9714 32.1757C21.0809 30.8128 22.2869 29.4498 23.2517 27.9408C22.9623 27.454 22.6729 27.0159 22.4317 26.5292H23.3C23.3965 26.7726 23.5412 27.0159 23.6859 27.2593C23.8306 27.0159 23.9271 26.7726 24.0718 26.5292H25.0849C24.8437 27.0159 24.5542 27.5514 24.1683 28.0868C24.9401 29.2551 25.8567 30.472 26.6768 31.7377C27.2074 31.4456 27.7863 31.2022 28.317 30.9588C28.8958 30.7154 28.7994 30.8615 28.7994 30.6667C28.7994 30.6181 28.5099 30.472 28.4617 30.4234C28.2687 30.2287 27.931 29.6445 27.7863 29.1091C27.6898 28.817 27.6416 28.6223 27.6416 28.4763C27.6416 28.3789 27.6416 28.3302 27.7381 28.3302C27.8346 28.3302 27.9793 28.3789 28.1722 28.4763C28.5099 28.671 29.1853 29.1577 29.523 29.6932C29.8606 30.18 29.7159 30.472 29.8606 30.472C29.9571 30.472 30.1983 30.326 30.3913 30.2287C30.729 30.0339 31.3078 29.7419 32.0314 29.4011L32.3209 30.0339ZM13.459 29.4011C12.9766 29.1091 12.446 28.9144 12.1565 28.9144C10.1787 28.9144 8.10434 29.4011 8.10434 29.9853C8.10434 30.2287 9.0209 30.0339 9.0209 31.2509C9.0209 32.1757 7.91138 32.4191 7.91138 32.7599C7.91138 33.2466 7.62194 33.2467 7.62194 33.6361C7.62194 34.3662 8.24906 34.6583 8.63498 34.6583C9.06914 34.6583 9.11738 33.5387 9.2621 33.5387C9.31035 33.5387 9.45507 33.8795 9.45507 34.0742C9.45507 34.707 8.63498 35.6318 7.95962 35.6318C7.5737 35.6318 7.3325 35.3398 7.3325 34.9504C7.3325 34.5123 7.38074 34.1715 6.94658 34.1715C6.75362 34.1715 6.46418 34.5123 6.17474 34.5123C5.59586 34.5123 5.25817 33.7334 5.25817 33.0033C5.25817 32.3218 7.3325 31.9324 7.3325 30.8128C7.3325 30.5694 7.18778 29.9853 6.8501 29.9853C4.82401 29.9853 3.76273 31.2509 3.71449 33.7334C3.66625 34.853 4.38985 35.6805 4.38985 35.9239C4.38985 36.1186 3.76273 36.4594 3.61801 36.4594C3.37681 36.4594 2.74969 36.1186 2.41201 36.1186C2.02609 36.1186 1.83313 36.362 1.83313 36.6054C1.83313 37.2382 2.94265 38.4551 3.32857 38.4551C4.43809 38.4551 5.01697 37.6276 5.25817 37.6276C5.45114 37.6276 5.6441 37.6763 5.6441 37.871C5.6441 38.2604 5.01697 39.0879 4.53457 39.3313C4.14865 39.4774 3.56977 39.6721 3.56977 39.8181C3.56977 40.0128 4.29337 40.2075 4.96873 40.2075C6.1265 40.2075 6.89834 39.0879 6.89834 38.017C6.89834 37.725 7.18778 37.0435 7.5737 37.0435C7.71842 37.0435 7.76666 37.2382 7.76666 37.5303C7.76666 39.4774 6.31946 41.2297 4.48633 41.2297C1.73664 41.2297 0.241201 39.234 0.241201 35.8266C0.241201 31.4456 4.77577 28.4763 10.5646 28.4763C10.9023 28.4763 11.5776 28.4276 11.5776 28.2329C11.5776 27.9408 7.38074 24.8255 6.22298 24.8255C5.69234 24.8255 4.92049 26.4318 4.58281 26.4318C4.00393 26.4318 3.52153 25.4583 3.08737 25.4583C2.65321 25.4583 1.92961 26.0424 1.92961 26.4805C1.92961 26.9186 2.79793 27.454 2.79793 28.1355C2.79793 28.3302 2.46025 28.7197 2.17081 28.7197C1.06128 28.7197 0.337681 27.8921 0.337681 26.8212C0.337681 25.1175 2.12257 23.3165 4.05217 23.3165C4.58281 23.3165 5.11345 23.5112 5.98178 23.9493C7.3325 24.6308 7.5737 24.6794 6.65714 23.5112C6.22298 23.0244 3.76273 17.8159 3.42505 17.8159C2.84617 17.8159 3.03913 19.7143 2.17081 19.7143C1.39896 19.7143 0.723602 18.8868 0.723602 17.8159C0.723602 16.6477 1.30248 15.8688 2.02609 15.8688C2.36377 15.8688 2.94265 16.1609 3.28033 16.1609C4.05217 16.1609 4.14865 12.3154 4.10041 12.3154C3.90745 12.3154 3.76273 12.5588 3.47329 12.5588C2.31553 12.5588 0.868322 11.0984 0.868322 9.6868C0.868322 8.66457 2.65321 6.47409 2.65321 4.0889C2.65321 3.45609 2.26729 2.92064 2.12257 2.92064C1.97785 2.92064 1.30248 3.74816 0.916563 3.74816C0.337681 3.74816 0 3.21271 0 2.67726C0 1.60635 0.964803 0.19471 2.07433 0.19471C2.41201 0.19471 2.74969 0.486773 2.89441 0.876193C3.03913 1.26561 3.32857 1.60635 3.52153 1.65503C3.71449 1.70371 3.90745 2.28784 3.90745 2.96932C3.90745 3.69948 4.05217 4.04022 4.19689 4.04022C4.38985 4.04022 4.87225 2.5799 5.06521 2.5799C5.20993 2.5799 5.54762 4.23493 5.54762 4.67303C5.54762 5.84129 2.17081 8.1778 2.17081 9.54077C2.17081 10.6603 2.31553 11.0011 3.03913 11.0011C3.81097 11.0011 5.16169 10.3683 5.16169 9.58944C5.16169 9.44341 5.06521 9.34606 4.82401 9.34606C4.63105 9.34606 4.34161 9.44341 4.19689 9.44341C4.05217 9.44341 4.00393 9.39473 4.00393 9.29738C4.00393 8.32383 6.17474 6.96087 6.75362 6.96087C7.0913 6.96087 7.5737 6.71748 7.91138 6.47409C8.44202 6.036 8.92442 4.86774 8.92442 4.18626C8.92442 3.89419 8.82794 3.69948 8.63498 3.69948C8.34554 3.69948 8.20082 3.55345 8.20082 3.40742C8.20082 2.96932 9.50331 2.48255 9.50331 1.99577C9.50331 1.41164 7.76666 1.16826 7.76666 0.73016C7.76666 0.438097 8.73146 0 9.11739 0C10.1787 0 11.1917 1.65503 11.1917 2.77461C11.1917 3.16403 11.0952 3.45609 10.854 3.55345C10.5163 3.6508 9.06914 5.5979 9.06914 5.98732C9.06914 5.98732 9.06915 6.036 9.11739 6.036C9.21387 6.036 9.59979 5.84129 10.0822 5.64658C10.6611 5.35451 11.7706 5.1598 12.6872 5.06245C13.7967 5.01377 14.1344 4.91642 14.1344 4.62435C14.1344 4.42964 13.9896 4.18626 13.9896 3.89419C13.9896 2.53122 16.3534 1.75239 16.3534 1.0709C16.3534 0.73016 15.2439 0.58413 15.2439 0.340743C15.2439 0.19471 15.7263 0 16.4016 0C17.2217 0 17.6076 0.486773 17.6076 1.16826C17.6076 1.89842 17.1252 2.82329 16.1604 3.50477C15.4851 3.94287 15.1474 4.23493 15.1474 4.38097C15.1474 4.527 15.4851 4.57567 16.1604 4.57567C17.3664 4.57567 17.8971 4.18626 18.3313 2.96932C18.7172 2.04445 19.3925 1.36297 20.0679 0.778837C20.1644 1.26561 20.2609 2.38519 20.6468 2.38519C21.2739 2.38519 21.1774 0.681483 22.2869 0.681483C23.2035 0.681483 23.8306 0.681483 23.8306 1.26561C23.8306 2.04445 23.3965 3.018 23.0588 3.018C22.7693 3.018 22.9623 1.9471 22.4317 1.9471C22.1905 1.9471 21.9975 2.04445 21.9975 2.23916C21.9975 2.92064 19.0066 5.69525 17.4629 5.69525C17.1735 5.69525 16.4499 5.54922 16.4499 5.79261C16.4499 5.93864 16.8358 6.036 17.27 6.42542C18.7172 7.59367 19.489 8.76193 19.489 11.5365C19.489 14.4085 17.9936 17.7186 14.3756 17.7186C14.2791 17.7186 14.2308 17.7186 14.2308 17.6212C14.2308 17.5239 13.7967 17.3778 13.266 17.3778C12.446 17.3778 10.3716 15.7715 10.3716 14.9926C10.3716 14.8466 10.2751 14.7492 10.1304 14.7492C9.74451 14.7492 8.7797 15.3334 8.20082 15.3334C7.71842 15.1873 7.47722 14.1651 7.47722 13.1429C7.47722 12.1207 7.71842 11.0984 8.24906 11.0984C8.49026 11.0984 8.63498 11.2445 8.63498 11.4392C8.63498 11.5852 8.73146 11.6826 8.87618 11.6826C9.26211 11.6826 9.50331 11.2932 9.50331 10.8064C9.50331 9.97886 11.0952 8.27515 11.8671 8.27515C12.5907 8.27515 13.1696 7.78838 13.1696 7.35028C13.1696 7.05822 12.7836 6.81483 12.7836 6.62012C12.7836 6.42542 12.9766 6.32806 13.266 6.32806C13.8449 6.32806 14.6168 6.71748 14.6168 7.25293C14.6168 7.78838 13.5555 8.32383 13.5555 8.76193C13.5555 9.00531 13.9896 9.10267 13.9896 9.39473C13.9896 9.93019 13.5072 10.4656 13.0731 10.4656C12.7836 10.4656 12.06 10.2709 11.5776 10.2709C10.5646 10.2709 9.93747 10.9524 9.93747 12.072C9.93747 12.8508 10.0339 13.0942 10.3716 13.0942C11.7706 13.0942 12.3977 11.0498 14.6168 11.0498C14.9062 11.0498 15.3886 11.2932 15.3886 11.6339C15.3886 12.072 14.5685 12.072 14.5685 12.7048C14.5685 13.2889 15.3886 13.3863 15.3886 13.7757C15.3886 14.2625 14.4238 15.4307 14.1826 15.4307C13.9896 15.4307 13.8932 15.236 13.8932 14.7979C13.8932 13.7757 13.5072 13.3376 12.5907 13.3376C11.9153 13.3376 11.6741 14.0191 11.6741 14.8953C11.6741 16.0635 12.3012 16.6477 13.459 16.6477C16.9323 16.6477 18.9584 14.6519 18.9584 11.0984C18.9584 8.71325 16.884 5.69525 13.7484 5.69525C8.20082 5.69525 4.77577 10.0275 4.77577 15.3821C4.77577 19.1789 7.62194 24.8255 11.2882 27.0159C12.253 27.6001 12.3012 27.454 11.3364 26.2371C9.74451 24.144 8.10434 20.8339 8.10434 20.2011C8.10434 20.0551 8.73146 19.0815 8.87618 18.5948C8.97266 18.2053 9.35859 16.5503 9.69627 16.5503C9.69627 16.5503 9.84099 16.9397 9.84099 17.2805C9.84099 17.6212 9.45507 18.1567 9.35859 18.7408C9.16563 19.471 9.11739 20.0551 9.11739 20.5905C9.11739 20.8826 9.40683 21.4667 9.55155 21.4667C9.79275 21.4667 9.88923 20.6879 10.1304 20.0064C10.3716 19.3249 10.854 18.8868 11.5294 18.8868C11.7224 18.8868 12.253 19.0329 12.253 19.1789C12.253 19.3249 10.6128 20.5905 10.6128 22.5863C10.6128 23.3651 11.047 23.9979 11.4812 24.5821C11.7224 24.9228 11.8671 24.7768 11.7706 24.4847C11.6259 23.9493 11.5776 23.4625 11.5776 23.0731C11.5776 21.2233 12.8319 20.4445 14.7615 20.4445C15.4368 20.4445 16.1122 20.3958 16.1122 20.5419C16.1122 20.7366 15.0992 21.0773 14.665 21.0773C14.0861 21.0773 12.6389 21.7101 12.6389 22.635C12.6389 22.7323 12.6389 23.2191 12.8319 23.2191C13.0248 23.2191 13.459 22.8297 13.7002 22.8297C14.4238 22.8297 14.472 24.2413 14.472 25.1662C14.472 25.7017 13.7484 26.0911 13.1213 26.0911C12.446 26.0911 11.7706 25.7017 11.7706 25.8477C11.7706 25.945 12.6872 27.308 13.8449 28.4763L13.459 29.4011ZM24.1201 46.6329C24.1201 46.4869 23.2035 45.9514 22.9623 45.9514C22.6729 45.9514 22.0457 46.6329 22.0457 46.779C22.0457 46.8763 22.6729 46.9737 22.9141 46.9737C23.2517 46.9737 24.1201 46.8763 24.1201 46.6329ZM22.9623 35.0477C20.7433 36.8975 18.8137 39.3313 18.8137 41.6192C18.8137 43.7123 19.682 46.0488 21.2739 46.0488C21.8528 46.0488 22.2387 45.27 22.2387 44.5885C22.2387 44.1991 22.2387 43.7123 21.901 43.7123C21.7081 43.7123 21.3221 44.1017 21.0809 44.1017C20.5985 44.1017 20.1161 43.2742 20.1161 42.544C20.1161 42.0086 20.4056 41.9112 20.5021 41.3758L21.4669 41.9599L22.3834 42.6414C22.2869 42.0573 22.094 40.9864 21.6598 40.3049C21.5151 40.0615 21.0327 40.0128 21.0327 39.6721C21.0327 38.9419 21.6116 38.9419 21.8528 38.017C21.901 37.9197 22.094 37.0922 22.1905 37.0922C22.3352 37.0922 22.5281 37.5303 22.6729 38.0657C22.8176 38.5038 23.7824 38.9906 23.7824 39.38C23.7824 39.5747 23.5412 39.7207 23.3482 39.9154C23.0105 40.2562 22.7211 40.8403 22.7211 41.2784C22.7211 41.6192 22.6246 42.252 22.8176 42.252C23.107 42.252 23.8306 41.6192 23.9753 41.2297C24.1201 40.8403 24.506 40.1102 24.6989 40.1102C24.6989 40.1102 25.4708 41.1811 25.4708 42.3006C25.4708 43.1768 25.2296 43.6149 24.6025 43.6149C24.2165 43.6149 23.5894 43.1282 23.2517 43.1282C23.0105 43.1282 23.0105 43.4689 23.0105 43.6149C23.0105 44.3451 23.4929 45.5133 24.3613 45.5133C25.8567 45.5133 26.918 43.9557 26.918 42.2033C26.918 39.8668 25.1331 37.0922 22.9623 35.0477ZM23.5412 34.5609C25.905 36.508 27.5934 38.7472 27.5934 41.7165C27.5934 42.4467 27.2074 43.6149 26.7733 44.4911C26.4356 45.1726 26.1944 45.7567 26.1944 45.9514C26.1944 46.0001 26.1944 46.0488 26.2426 46.0488C27.8346 46.0488 29.137 42.5927 29.137 40.5969C29.137 37.5303 27.931 34.9504 26.4838 32.6138C25.5673 33.1493 24.5542 33.7821 23.5412 34.5609ZM22.3352 34.4636C21.6598 33.8795 20.9845 33.3927 20.3573 33.0033C18.4277 35.4858 16.7393 38.3091 16.7393 41.2784C16.7393 42.1059 17.8971 44.2964 18.0901 44.2964C18.3795 44.2964 17.9453 43.1282 17.9453 41.9599C17.9453 39.1366 19.7302 36.5567 22.3352 34.4636ZM22.8658 34.0255C23.8306 33.2953 24.9401 32.6625 26.0979 32.0297C25.3261 30.8615 24.506 29.7906 23.7341 28.671C22.8658 29.8879 21.7563 31.2022 20.6468 32.5652C21.4186 33.0519 22.1905 33.5387 22.8658 34.0255ZM24.7954 24.8741C25.1331 23.9493 25.3261 22.9757 25.3261 21.9048C25.3261 20.7852 24.506 19.471 23.6377 18.4C22.8176 19.6657 22.094 21.1747 22.094 22.4403C22.094 23.3165 22.2387 24.0953 22.5281 24.8741H21.7081C21.6598 24.6308 21.5633 24.436 21.4186 24.29C20.695 23.9006 19.8749 23.0244 19.8749 22.0509C19.8749 20.9313 20.5503 19.3249 20.8397 19.3249C20.9845 19.3249 21.1774 19.6657 21.3221 20.0064L21.6116 20.9313C21.6116 20.9313 21.7563 20.2985 21.8528 19.9577C22.0457 19.3736 22.5764 18.5461 23.1553 17.7672C22.3352 16.8424 21.6116 16.1609 21.6116 16.0149C21.6116 15.8201 21.6598 15.3821 21.8528 15.3821C21.9493 15.3821 22.2387 15.6741 22.4317 15.8688C22.8176 16.2582 23.2517 16.6963 23.6377 17.1831C24.1201 16.5503 24.6025 16.0149 24.8437 15.7715C25.0366 15.5768 25.3743 15.4794 25.4226 15.4794C25.4708 15.4794 25.5673 15.7228 25.5673 15.7715C25.5673 15.8201 24.8437 16.599 24.0718 17.7186C24.6507 18.3514 25.0849 19.0329 25.3743 19.617C25.3743 19.617 25.3261 19.0329 25.3743 19.0329C25.4225 19.0329 25.519 18.7895 25.5673 18.7895C25.712 18.7895 25.8085 19.1302 25.8085 19.2762C25.8085 19.471 26.0979 20.0551 26.4356 20.5419C26.6768 20.8826 26.8215 21.126 26.8215 21.3694C26.8215 22.0995 26.2426 23.1218 25.7602 23.7059C25.5673 23.9493 25.5673 24.5334 25.5673 24.8741H24.7954Z" fill="black"/>
</svg>
