<svg width="24" height="24" viewBox="0 0 24 24" fill="none" xmlns="http://www.w3.org/2000/svg">
<path fill-rule="evenodd" clip-rule="evenodd" d="M10.5 0L11.5 1V10.063C11.6598 10.0219 11.8274 10 12 10C12.1726 10 12.3402 10.0219 12.5 10.063V1L13.5 0H10.5ZM13.016 10.2769C13.3072 10.449 13.551 10.6928 13.7231 10.984L20.1317 4.57539H21.5459L19.4246 2.45407V3.86828L13.016 10.2769ZM13.937 11.5C13.9781 11.6598 14 11.8274 14 12C14 12.1726 13.9781 12.3402 13.937 12.5H23L24 13.5V10.5L23 11.5H13.937ZM13.7231 13.016C13.551 13.3072 13.3072 13.551 13.016 13.7231L19.4246 20.1317V21.5459L21.5459 19.4246H20.1317L13.7231 13.016ZM12.5 13.937C12.3402 13.9781 12.1726 14 12 14C11.8274 14 11.6598 13.9781 11.5 13.937V23L10.5 24H13.5L12.5 23V13.937ZM10.984 13.7231C10.6928 13.551 10.449 13.3072 10.2769 13.016L3.86827 19.4246H2.45406L4.57538 21.546V20.1317L10.984 13.7231ZM10.063 12.5C10.0219 12.3402 10 12.1726 10 12C10 11.8273 10.0219 11.6598 10.063 11.5H1L0 10.5V13.5L1 12.5H10.063ZM10.2769 10.984C10.449 10.6928 10.6928 10.449 10.984 10.2769L4.57537 3.86827V2.45406L2.45405 4.57538H3.86826L10.2769 10.984Z" fill="black"/>
<path fill-rule="evenodd" clip-rule="evenodd" d="M12 20C16.4183 20 20 16.4183 20 12C20 7.58172 16.4183 4 12 4C7.58172 4 4 7.58172 4 12C4 16.4183 7.58172 20 12 20ZM12 21C16.9706 21 21 16.9706 21 12C21 7.02944 16.9706 3 12 3C7.02944 3 3 7.02944 3 12C3 16.9706 7.02944 21 12 21Z" fill="black"/>
<circle cx="12" cy="12" r="2.5" stroke="black"/>
</svg>
