<svg width="48" height="48" viewBox="0 0 48 48" fill="none" xmlns="http://www.w3.org/2000/svg">
<path d="M13.2923 48C5.29231 48 0 43.2737 0 35.601C0 31.7954 1.53846 27.4987 4.06154 24.3683C6.46154 21.3606 10.5231 17.4322 15.0769 17.4322C17.2308 17.4322 17.8462 18.046 18.9538 19.8875C22.7077 16.8184 29.8462 10.0665 29.8462 5.76982C29.8462 5.15601 29.6 4.5422 29.1692 3.98977C28.7385 3.43734 28.4308 2.94629 28.4308 2.39386C28.4308 1.04348 29.6615 0 30.8923 0C32.8 0 33.7231 1.10486 33.7231 3.31458C33.7231 8.04092 28.6154 14.7928 17.8462 23.4476C14.0308 26.5166 9.29231 29.8312 4.12308 33.3913C4.12308 40.6957 8.67692 44.5013 14.8308 44.5013C24.7385 44.5013 32.8615 34.312 33.2923 21.8517C32.4923 21.1765 31.5077 20.8082 30.2154 20.8082C28 20.8082 25.6 22.7724 25.6 24.3683C25.6 24.9821 25.7846 25.78 26.0923 26.6394C26.4 27.4987 26.5231 28.1125 26.5231 28.5422C26.5231 29.7084 25.8462 30.2609 24.4923 30.2609C22.7077 30.2609 21.8462 29.4629 21.8462 27.8056C21.8462 23.3862 27.8154 18.2916 32.1231 18.2916C34.9538 18.2916 36.8615 19.8261 39.3846 22.3427C40.9846 23.9386 42.2154 24.7366 43.1385 24.7366C43.8769 24.7366 44.2462 24.1228 44.2462 22.8338C44.2462 22.4655 44.1231 21.6675 43.7538 20.3785C43.7538 19.335 44.8615 18.7826 45.7231 18.7826C47.2615 18.7826 48 19.9488 48 22.2813C48 24.0614 47.5077 25.1662 46.4 25.4118C45.7231 25.5345 44.9846 25.78 43.7538 26.1483C42.5231 26.578 41.3538 26.9463 40.6154 27.2532C40.1846 27.4987 40 27.4987 39.8154 27.4987C39.5692 27.4987 39.3846 27.3146 38.7692 26.5166C37.9077 25.289 36.4923 23.8159 34.8923 22.5882V23.5089C34.8923 33.8824 28.6154 48 13.2923 48ZM4.24615 30.9974C8.67692 27.9284 12 25.4118 14.2769 23.4476C14.3385 22.9565 14.3385 22.4655 14.3385 21.9744C14.3385 20.6854 13.6615 20.0716 12.3077 20.0716C10.7077 20.0716 8.12308 22.3427 6.95385 24.1228C5.90769 25.6573 4.67692 28.665 4.24615 30.9974Z" fill="black"/>
</svg>
