<svg width="256" height="256" viewBox="0 0 256 256" fill="none" xmlns="http://www.w3.org/2000/svg">
<path fill-rule="evenodd" clip-rule="evenodd" d="M106.935 1.05591C122.94 1.0228 138.946 0.907279 154.951 1.15461C165.109 1.88661 164.149 1.32057 173.201 2.73566C175.874 3.90662 178.811 4.44749 181.566 5.38767C184.273 6.75642 187.144 8.22709 190.015 9.15045C197.638 14.4773 207.043 20.2359 209.865 29.8505C211.185 35.1111 211.333 40.8831 209.865 46.1114C209.386 47.0021 208.462 48.7663 208 49.6569C205.212 54.2414 201.202 58.0679 196.747 61.0031C195.856 61.3659 194.09 62.092 193.199 62.471C190.955 63.6748 188.695 64.8622 186.467 66.0991C184.437 66.6766 182.375 67.0393 180.313 67.468C177.425 68.4576 174.339 68.8536 171.534 70.0901C167.134 70.6389 166.168 70.6786 161.254 71.8053C152.46 72.1848 143.649 71.8053 134.837 71.9376C134.887 89.6991 134.738 105.021 134.92 122.767C145.559 119.837 149.291 117.461 157.212 112.606C163.356 109.453 164.701 108.565 171.831 103.915C183.382 96.2298 194.899 88.4949 206.482 80.8595C211.251 77.9237 215.046 73.6691 218.396 69.2327C218.495 67.798 218.495 66.3464 218.412 64.9117C216.976 62.9492 215.425 61.0859 213.974 59.1234C215.871 57.8368 219.044 56.3288 220.991 55.125C223.586 56.8791 234.519 68.344 236.332 69.6777C243.196 74.1969 248.921 80.1999 256 84.4054C253.228 85.0482 250.324 88.1321 247.634 85.4604C246.925 85.2959 245.522 84.9326 244.813 84.7681C239.104 82.5087 232.322 83.0692 226.431 84.4381C224.121 85.2463 221.877 86.1864 219.649 87.1756C218.115 87.984 216.564 88.7754 215.013 89.5341C210.954 91.9584 207.225 94.8611 203.116 97.17C196.78 100.518 191.203 105.152 184.999 108.714C181.715 110.413 178.728 112.606 175.461 114.321C170.088 117.301 160.253 123.844 155.644 125.882C151.519 128.191 147.773 131.06 143.797 133.6C142.675 134.029 139.933 136.039 138.827 136.468C142.161 140.167 142.654 140.425 145.431 142.374C151.404 145.854 156.832 150.224 162.888 153.588C164.242 154.708 164.037 154.529 166.138 156.227C180.642 166.254 195.179 176.726 210.063 186.407C214.947 190.645 220.425 194.01 226.53 196.153C230.245 197.107 230.261 196.881 233.602 196.603C234.129 196.051 236.349 195.14 237.14 194.355C240.424 192.344 243.757 192.36 247.04 194.355C247.04 195.279 248.587 196.138 248.587 197.061C237.961 203.394 229.845 214.768 220.451 222.921C219.246 224.503 217.785 227.702 215.046 226.284C213 224.816 211.004 223.266 209.139 221.567C213.775 217.873 212.67 211.688 211.713 206.56C206.169 198.132 197.126 193.283 189.486 187.066C171.847 174.846 154.687 161.95 136.702 150.257C136.289 174.285 136.487 198.314 136.586 222.342C139.556 226.877 137.279 232.583 138.797 237.564C140.167 239.526 141.817 241.308 143.946 242.479C146.651 243.65 149.39 244.821 152.245 245.612C153.251 246.041 155.281 246.915 156.304 247.344C156.288 249.884 156.288 252.44 156.288 254.996C138.632 254.996 120.977 255.012 103.321 254.98C103.354 252.902 103.47 250.824 103.668 248.762C105.285 247.327 107.298 246.535 109.212 245.612C114.938 243.336 117.05 237.861 118.073 232.287C118.485 228.955 117.726 225.245 119.888 222.342C120.086 198.429 119.987 174.516 119.921 150.586C115.176 152.437 113.39 154.059 109.162 156.606C99.5005 161.918 90.5599 167.982 81.326 173.543C68.5714 182.267 55.3876 190.364 43.0451 199.617C41.5438 202.041 39.8276 204.317 38.2271 206.675C37.5671 208.753 37.039 210.996 38.6723 212.827C39.9431 215.267 40.8669 217.84 41.3126 220.577C39.2004 220.512 36.4618 222.541 34.3664 222.31C23.74 213.239 11.5501 203.433 0 195.534C1.76565 192.516 7.04114 189.375 10.1764 191.816C12.3377 192.888 14.5487 193.861 16.8261 194.669C18.5912 195.592 20.3243 195.51 22.0071 194.422C24.0366 194.026 26.0993 193.663 28.0955 193.119C33.4913 190.398 38.2434 186.621 43.4413 183.586C46.2958 182.119 48.903 180.255 51.6747 178.672C56.7407 176.066 61.0966 172.323 66.1621 169.7C68.9508 168.134 71.5578 166.27 74.3961 164.786C76.7885 163.45 79.0164 161.834 81.4087 160.515C87.1697 157.239 93.6151 153.086 98.9721 149.405C99.5253 149.036 99.6731 148.99 100.17 148.624C103.19 146.975 105.994 144.946 109.047 143.347C111.951 141.714 112.968 138.852 115.84 137.186C110.791 131.315 105.796 128.108 99.5099 123.688C88.3554 116.251 77.0528 108.994 66.2117 101.111C57.8132 95.933 50.0082 89.6991 41.4941 84.5867C35.6531 81.0572 28.9538 78.501 22.139 80.9418C21.2811 81.4859 19.5651 82.591 18.7068 83.1352C17.1395 83.8608 15.5721 84.5867 13.9879 85.2626C12.2223 84.0094 10.7045 82.4424 9.15301 80.9418C21.3799 73.0422 31.3463 62.4214 41.6096 52.2131C42.4015 52.3781 44.0021 52.7081 44.7939 52.8895C46.4937 54.4397 49.9423 55.3467 49.0512 58.2823C47.467 59.4529 45.7678 60.4426 43.9694 61.2673C44.0517 63.477 44.0021 65.6868 44.2827 67.8967C52.5331 77.6928 63.7697 84.0753 73.6037 92.0739C87.3489 101.293 100.698 109.899 114.343 119.25C115.317 119.629 117.281 121.545 118.271 121.924C118.452 88.759 118.254 55.5939 118.37 22.4293C118.32 19.8235 118.568 17.0527 117.016 14.777C116.868 14.0515 116.588 12.5999 116.439 11.8745C115.928 10.8189 114.769 9.18177 114.257 8.1425C113.482 8.06023 112.57 7.49458 111.636 7.23697C109.327 6.40397 104.892 5.71574 103.091 5.41386C104.149 2.92074 104.953 0.835786 106.935 1.05591ZM140.942 6.40397C139.87 6.96487 137.741 8.19769 136.669 8.75859C135.695 11.1993 134.54 13.1441 134.821 15.8489C134.837 32.1099 134.837 48.3708 134.837 64.6313C135.959 65.2086 138.187 65.4634 139.292 66.0403C148.549 65.3974 158.334 67.4951 167.244 64.7079C167.97 64.5102 169.422 64.3714 170.148 64.19C171.864 63.514 173.613 63.0652 175.379 62.5706C176.963 61.8119 178.53 61.3266 180.131 60.6011C184.157 58.3085 187.507 55.2644 189.883 51.3061C190.295 50.4319 191.104 48.6677 191.516 47.7935C192.127 46.2433 192.688 44.6763 193.216 43.0934C193.924 39.5377 193.759 37.4972 192.919 32.9345C192.77 32.2086 192.44 30.7243 192.275 29.9987C190.262 22.0333 183.068 16.8218 176.914 11.9736C176.055 11.5776 174.323 10.7862 173.448 10.3902C169.472 8.62678 165.764 8.06215 161.568 6.88734C154.687 6.64001 147.823 6.35442 140.942 6.40397Z" fill="black"/>
</svg>
