<svg width="16" height="16" viewBox="0 0 16 16" fill="none" xmlns="http://www.w3.org/2000/svg">
<style>
  path {
    fill: #000000;
  }
  @media (prefers-color-scheme: dark) {
    path {
      fill: #FFFFFF;
    }
  }
</style>
<path fill-rule="evenodd" clip-rule="evenodd" d="M8.49996 4H11C12.1045 4 13 3.10457 13 2C13 0.895431 12.1045 0 11 0H6.49996L7.49996 1V8.13396L3.05383 5.56699L2.68781 4.20096L1.18781 6.79904L2.55383 6.43301L6.99998 9L2.55383 11.567L1.18781 11.201L2.68781 13.799L3.05383 12.433L7.49996 9.86604V15L6.49996 16H9.49996L8.49996 15V9.86601L12.9461 12.433L13.3122 13.799L14.8122 11.201L13.4461 11.567L8.99998 9L13.4461 6.43301L14.8122 6.79904L13.3122 4.20096L12.9461 5.56699L8.49996 8.13399V4ZM8.5 3V1H11C11.5523 1 12 1.44772 12 2C12 2.55228 11.5523 3 11 3H8.5Z" fill="black"/>
</svg>
