<svg width="24" height="24" viewBox="0 0 24 24" fill="none" xmlns="http://www.w3.org/2000/svg">
<path fill-rule="evenodd" clip-rule="evenodd" d="M12 6H16C17.6568 6 19 4.65686 19 3C19 1.34315 17.6568 0 16 0H9.99997L11 1L11 12.134L3.08972 7.56696L2.72369 6.20093L1.22369 8.79901L2.58972 8.43298L10.5 13L2.58972 17.567L1.22369 17.201L2.72369 19.799L3.08972 18.433L11 13.866L11 23L9.99997 24H13L12 23L12 13.866L19.9102 18.433L20.2763 19.799L21.7763 17.2009L20.4102 17.567L12.5 13L20.4102 8.43301L21.7763 8.79904L20.2763 6.20096L19.9102 7.56699L12 12.134L12 6ZM12 5V1H16C17.1045 1 18 1.89543 18 3C18 4.10457 17.1045 5 16 5H12Z" fill="black"/>
</svg>
