<svg width="85" height="15" viewBox="0 0 85 15" fill="none" xmlns="http://www.w3.org/2000/svg">
<path d="M0.876 12C1.296 11.748 1.428 11.4 1.488 9.984C1.524 9.228 1.5 8.448 1.5 7.644C1.488 6.12 1.512 5.196 1.452 4.308C1.416 3.732 1.308 3.348 0.864 3H3.612C3.216 3.324 3.072 3.732 3.072 4.332V7.644C3.072 8.94 3.084 9.564 3.12 10.416C3.156 11.244 3.264 11.7 3.672 12H0.876ZM5.748 12C5.976 11.844 6.072 11.688 6.072 11.508C6.072 11.208 5.868 10.872 5.556 10.476L3.072 7.344L6.132 4.212C6.348 3.996 6.456 3.804 6.456 3.624C6.456 3.384 6.24 3.18 5.784 3H8.988C8.256 3.336 7.632 3.828 6.996 4.416L4.512 6.696L7.5 10.428C7.992 11.052 8.448 11.556 9.156 12H5.748ZM10.1928 8.7C10.2861 8.44 10.3528 8.23 10.3928 8.07C10.4328 7.91 10.4528 7.78333 10.4528 7.69C10.4528 7.59667 10.4361 7.53667 10.4028 7.51C10.3761 7.47667 10.3461 7.46 10.3128 7.46C10.2395 7.46 10.1595 7.49667 10.0728 7.57C9.98615 7.63667 9.89948 7.71667 9.81281 7.81C9.72615 7.90333 9.64948 7.99667 9.58281 8.09C9.51615 8.18333 9.46948 8.25667 9.44281 8.31L9.15281 8.13C9.23281 7.98333 9.34281 7.82 9.48281 7.64C9.62948 7.46 9.79281 7.29333 9.97281 7.14C10.1528 6.98667 10.3395 6.86 10.5328 6.76C10.7261 6.65333 10.9095 6.6 11.0828 6.6C11.2495 6.6 11.3728 6.65 11.4528 6.75C11.5395 6.84333 11.5828 7.01667 11.5828 7.27C11.5828 7.46333 11.5228 7.72333 11.4028 8.05C11.2895 8.37667 11.1395 8.79667 10.9528 9.31L10.5828 10.32C10.5695 10.3533 10.5495 10.4067 10.5228 10.48C10.5028 10.5467 10.4795 10.62 10.4528 10.7C10.4328 10.7733 10.4128 10.8467 10.3928 10.92C10.3795 10.9933 10.3728 11.0533 10.3728 11.1C10.3728 11.16 10.3895 11.2133 10.4228 11.26C10.4561 11.3067 10.5095 11.33 10.5828 11.33C10.6828 11.33 10.7861 11.29 10.8928 11.21C10.9995 11.1233 11.1028 11.0233 11.2028 10.91C11.3028 10.7967 11.3928 10.6833 11.4728 10.57C11.5528 10.45 11.6128 10.3567 11.6528 10.29L11.9528 10.46C11.8728 10.62 11.7628 10.7967 11.6228 10.99C11.4895 11.1833 11.3361 11.3633 11.1628 11.53C10.9895 11.69 10.7995 11.8267 10.5928 11.94C10.3861 12.0467 10.1728 12.1 9.95281 12.1C9.75948 12.1 9.61281 12.05 9.51281 11.95C9.41948 11.85 9.37281 11.6833 9.37281 11.45C9.37281 11.2567 9.40281 11.05 9.46281 10.83C9.52948 10.6033 9.62281 10.32 9.74281 9.98L10.1928 8.7ZM11.6628 4.96C11.4961 4.96 11.3495 4.90333 11.2228 4.79C11.1028 4.67667 11.0428 4.53 11.0428 4.35C11.0428 4.17 11.1028 4.01667 11.2228 3.89C11.3428 3.76333 11.4895 3.7 11.6628 3.7C11.8495 3.7 12.0028 3.76333 12.1228 3.89C12.2428 4.01667 12.3028 4.16667 12.3028 4.34C12.3028 4.51333 12.2395 4.66 12.1128 4.78C11.9861 4.9 11.8361 4.96 11.6628 4.96ZM14.8313 8.706C14.5253 8.706 14.2283 8.76 14.0033 8.94C13.8953 9.021 13.7603 9.219 13.7603 9.588V11.442C13.7603 11.685 13.9673 11.73 14.1473 11.784C14.2463 11.82 14.3543 11.856 14.3543 11.946C14.3543 12.018 14.2463 12.027 14.1743 12.027C13.8143 12.027 13.7603 11.982 13.4453 11.982C13.1303 11.982 13.0763 12.027 12.7163 12.027C12.6443 12.027 12.5363 12.018 12.5363 11.946C12.5363 11.856 12.6443 11.82 12.7433 11.784C12.9233 11.73 13.1303 11.685 13.1303 11.442V9.507C13.1303 9.183 13.0853 8.922 12.7793 8.859C12.7343 8.85 12.7073 8.796 12.7073 8.742C12.7073 8.688 12.7343 8.643 12.7703 8.634C13.2383 8.526 13.4633 8.337 13.7693 8.13C13.7963 8.13 13.8323 8.157 13.8323 8.193C13.8323 8.274 13.7873 8.598 13.7873 8.769C13.7873 8.823 13.7873 8.868 13.8053 8.877C14.2193 8.481 14.6873 8.274 15.2543 8.274C15.8393 8.274 16.2713 8.823 16.2713 9.525V11.442C16.2713 11.685 16.4783 11.73 16.6583 11.784C16.7573 11.82 16.8653 11.856 16.8653 11.946C16.8653 12.018 16.7573 12.027 16.6853 12.027C16.3253 12.027 16.2803 11.982 15.9653 11.982C15.6503 11.982 15.5873 12.027 15.2273 12.027C15.1643 12.027 15.0473 12.018 15.0473 11.946C15.0473 11.856 15.1553 11.82 15.2543 11.784C15.4343 11.73 15.6413 11.685 15.6413 11.442V9.552C15.6413 9.03 15.3173 8.715 14.8313 8.706ZM21.4917 6.5275C21.565 6.32583 21.6585 6.12417 21.7722 5.9225C21.8895 5.72083 22.0325 5.55217 22.2012 5.4165C22.3735 5.28083 22.5789 5.213 22.8172 5.213C23.0409 5.213 23.226 5.27167 23.3727 5.389C23.523 5.50267 23.5982 5.6585 23.5982 5.8565C23.5982 6.01417 23.545 6.159 23.4387 6.291C23.336 6.423 23.1875 6.489 22.9932 6.489C22.8722 6.489 22.7769 6.46517 22.7072 6.4175C22.6375 6.36983 22.5734 6.32217 22.5147 6.2745C22.456 6.22683 22.379 6.203 22.2837 6.203C22.148 6.203 22.0527 6.25983 21.9977 6.3735C21.9427 6.48717 21.9005 6.61917 21.8712 6.7695L21.4917 6.5275ZM20.1332 9.712C20.3385 9.712 20.4962 9.62767 20.6062 9.459C20.7199 9.28667 20.7987 9.07767 20.8427 8.832C20.8904 8.58267 20.9142 8.34067 20.9142 8.106C20.9142 7.95933 20.905 7.79983 20.8867 7.6275C20.8684 7.45517 20.8317 7.29017 20.7767 7.1325C20.7254 6.97483 20.652 6.8465 20.5567 6.7475C20.4614 6.64483 20.3367 6.5935 20.1827 6.5935C20.025 6.5935 19.8949 6.6485 19.7922 6.7585C19.6895 6.8685 19.6089 7.00967 19.5502 7.182C19.4915 7.35433 19.4494 7.53583 19.4237 7.7265C19.4017 7.9135 19.3907 8.084 19.3907 8.238C19.3907 8.43233 19.4109 8.645 19.4512 8.876C19.4915 9.107 19.5649 9.305 19.6712 9.47C19.7775 9.63133 19.9315 9.712 20.1332 9.712ZM20.1277 10.2015C19.706 10.2015 19.4219 10.2418 19.2752 10.3225C19.1285 10.3995 19.0552 10.4967 19.0552 10.614C19.0552 10.7497 19.1505 10.856 19.3412 10.933C19.5319 11.01 19.8967 11.0962 20.4357 11.1915L21.2277 11.329C21.884 11.439 22.368 11.6223 22.6797 11.879C22.9914 12.132 23.1472 12.4693 23.1472 12.891C23.1472 13.265 23.0464 13.5785 22.8447 13.8315C22.643 14.0882 22.3735 14.2935 22.0362 14.4475C21.7025 14.6015 21.3304 14.7115 20.9197 14.7775C20.509 14.8472 20.0947 14.882 19.6767 14.882C19.3577 14.882 19.0424 14.8563 18.7307 14.805C18.419 14.7537 18.1349 14.673 17.8782 14.563C17.6252 14.453 17.4217 14.3063 17.2677 14.123C17.1174 13.9433 17.0422 13.7252 17.0422 13.4685C17.0422 13.1862 17.1559 12.9277 17.3832 12.693C17.6142 12.462 17.9992 12.242 18.5382 12.033L19.0002 12.22C18.8095 12.3447 18.661 12.5042 18.5547 12.6985C18.452 12.8965 18.4007 13.1 18.4007 13.309C18.4007 13.5437 18.4759 13.7362 18.6262 13.8865C18.7765 14.0368 18.9727 14.1468 19.2147 14.2165C19.4567 14.2898 19.7134 14.3265 19.9847 14.3265C20.267 14.3265 20.5567 14.2972 20.8537 14.2385C21.1507 14.1798 21.4 14.0882 21.6017 13.9635C21.807 13.8388 21.9097 13.6757 21.9097 13.474C21.9097 13.3457 21.8657 13.232 21.7777 13.133C21.6897 13.034 21.5339 12.9423 21.3102 12.858C21.0865 12.7773 20.773 12.7003 20.3697 12.627L19.4677 12.4565C18.815 12.3318 18.3567 12.165 18.0927 11.956C17.8287 11.747 17.6967 11.4922 17.6967 11.1915C17.6967 10.9862 17.759 10.7973 17.8837 10.625C18.0084 10.4527 18.1954 10.3078 18.4447 10.1905C18.6977 10.0695 19.013 9.98883 19.3907 9.9485L20.1277 10.2015ZM20.1277 10.2015C19.6987 10.2015 19.2954 10.1208 18.9177 9.9595C18.5437 9.7945 18.2412 9.55983 18.0102 9.2555C17.7792 8.9475 17.6637 8.579 17.6637 8.15C17.6637 7.76133 17.77 7.41483 17.9827 7.1105C18.199 6.8025 18.4924 6.5605 18.8627 6.3845C19.2367 6.2085 19.6565 6.1205 20.1222 6.1205C20.5695 6.1205 20.9839 6.20483 21.3652 6.3735C21.7465 6.54217 22.0527 6.77683 22.2837 7.0775C22.5184 7.37817 22.6357 7.72833 22.6357 8.128C22.6357 8.46533 22.5312 8.7935 22.3222 9.1125C22.1132 9.4315 21.8199 9.69367 21.4422 9.899C21.0682 10.1007 20.63 10.2015 20.1277 10.2015ZM24.8799 12C24.583 12 24.083 11.6875 23.8096 11.2344L24.4189 10.5938C24.6846 10.9766 24.9502 11.3047 25.3486 11.3047C25.6533 11.3047 25.8799 11.1172 26.0596 10.8516C26.1924 10.6484 26.2861 10.4141 26.2861 10.2578C26.2861 10.0469 26.1768 9.97656 25.8252 9.97656C25.6924 9.97656 25.5518 9.97656 25.4033 9.99219C25.2549 10.0078 25.1064 10.0156 24.9658 10.0156C24.333 10.0156 23.6299 9.625 23.6299 9.11719C23.6299 8.9375 23.7158 8.76562 23.8486 8.5625C24.0908 8.1875 24.5283 7.71875 24.8643 7.48438C25.083 7.33594 25.2471 7.28906 25.4268 7.28906C25.7314 7.28906 26.3564 7.71094 26.6689 8.17969L26.1143 8.75C25.8408 8.45312 25.5752 8.23438 25.3721 8.10156C25.2705 8.03906 25.1611 8.00781 25.0596 8.00781C24.6768 8.00781 24.3252 8.35938 24.3252 8.63281C24.3252 9.04688 24.9814 9.38281 25.333 9.38281C25.4658 9.38281 25.5596 9.35938 25.7158 9.32031C25.958 9.25781 26.2861 9.17188 26.4658 9.17188C26.833 9.17188 27.0596 9.4375 27.0596 9.69531C27.0596 10.1406 26.2705 11.2578 25.9346 11.5547C25.5986 11.8594 25.1689 12 24.8799 12ZM33.96 12.168C32.4 12.168 31.368 11.244 31.368 9.744C31.368 9 31.668 8.16 32.16 7.548C32.628 6.96 33.42 6.192 34.308 6.192C34.728 6.192 34.848 6.312 35.064 6.672C35.796 6.072 37.188 4.752 37.188 3.912C37.188 3.792 37.14 3.672 37.056 3.564C36.972 3.456 36.912 3.36 36.912 3.252C36.912 2.988 37.152 2.784 37.392 2.784C37.764 2.784 37.944 3 37.944 3.432C37.944 4.356 36.948 5.676 34.848 7.368C34.104 7.968 33.18 8.616 32.172 9.312C32.172 10.74 33.06 11.484 34.26 11.484C36.192 11.484 37.776 9.492 37.86 7.056C37.704 6.924 37.512 6.852 37.26 6.852C36.828 6.852 36.36 7.236 36.36 7.548C36.36 7.668 36.396 7.824 36.456 7.992C36.516 8.16 36.54 8.28 36.54 8.364C36.54 8.592 36.408 8.7 36.144 8.7C35.796 8.7 35.628 8.544 35.628 8.22C35.628 7.356 36.792 6.36 37.632 6.36C38.184 6.36 38.556 6.66 39.048 7.152C39.36 7.464 39.6 7.62 39.78 7.62C39.924 7.62 39.996 7.5 39.996 7.248C39.996 7.176 39.972 7.02 39.9 6.768C39.9 6.564 40.116 6.456 40.284 6.456C40.584 6.456 40.728 6.684 40.728 7.14C40.728 7.488 40.632 7.704 40.416 7.752C40.284 7.776 40.14 7.824 39.9 7.896C39.66 7.98 39.432 8.052 39.288 8.112C39.204 8.16 39.168 8.16 39.132 8.16C39.084 8.16 39.048 8.124 38.928 7.968C38.76 7.728 38.484 7.44 38.172 7.2V7.38C38.172 9.408 36.948 12.168 33.96 12.168ZM32.196 8.844C33.06 8.244 33.708 7.752 34.152 7.368C34.164 7.272 34.164 7.176 34.164 7.08C34.164 6.828 34.032 6.708 33.768 6.708C33.456 6.708 32.952 7.152 32.724 7.5C32.52 7.8 32.28 8.388 32.196 8.844ZM54.4443 12.28C53.1843 12.28 52.2143 12.03 51.1443 11.7C49.6343 11.22 48.4743 10.59 48.4743 9.21C48.4743 8.99 48.4943 8.81 48.5543 8.61C48.5843 8.52 48.5443 8.47 48.4543 8.48C48.2943 8.48 48.0243 8.5 47.7143 8.5C45.9143 8.5 44.3643 8.15 43.6743 6.93C43.4843 6.57 43.3843 6.13 43.3843 5.71C43.3843 4.63 43.9043 3.82 45.0743 3.04C46.3443 2.1 48.1643 1.82 49.3843 1.82C50.1443 1.82 50.8643 1.9 51.6243 1.98C55.0443 2.39 58.1543 2.92 60.9743 4.06C61.2943 4.2 59.9843 5.09 59.7343 5C58.3943 4.46 57.0643 4.06 55.6643 3.74C55.6043 3.73 55.5543 3.73 55.4843 3.76C54.0543 4.44 52.3043 5.22 51.4943 5.83C50.6743 6.48 49.8143 7.41 49.8143 8.39C49.8143 9.39 50.6443 10.15 51.7343 10.57C52.9943 11.05 54.5943 11.34 55.6343 11.34C57.0043 11.34 58.2543 11.04 59.4243 10.73C59.8043 10.63 58.9943 11.52 58.6543 11.56C57.3543 11.91 55.9743 12.28 54.4443 12.28ZM44.7143 4.89C44.7143 6.03 45.4443 6.76 46.2343 7.12C47.0043 7.46 47.8843 7.54 48.9943 7.54C49.0743 7.54 49.1143 7.51 49.1643 7.45C49.6343 6.84 50.1643 6.3 50.9243 5.75C52.2043 4.78 53.3143 4.34 54.6643 3.69C54.7643 3.64 54.7543 3.55 54.6443 3.53C53.2343 3.26 51.8243 3.08 50.4043 2.91C49.6843 2.83 48.9043 2.74 48.1843 2.74C47.2143 2.74 46.1843 2.91 45.5743 3.19C45.0643 3.42 44.7143 4.17 44.7143 4.89ZM60.4102 4.32C60.5182 4.32 60.5782 4.38 60.5782 4.488C60.5782 5.94 59.5222 8.316 60.3382 8.316C60.3982 8.316 60.6622 8.196 61.1302 7.956C61.5862 7.716 61.9942 7.596 62.3422 7.596C63.2782 7.596 63.7342 8.868 63.7342 9.72C63.7342 10.824 62.7262 12.24 61.7902 12.24C61.7542 12.24 61.7422 12.228 61.7422 12.216C61.7422 12.192 61.8142 12.12 61.9582 12.012C62.4142 11.64 62.8582 10.908 62.8582 9.948C62.8582 9.276 62.5582 8.724 62.2942 8.46C62.0302 8.196 61.7542 8.04 61.5142 8.04C61.2982 8.04 61.0942 8.148 60.9142 8.352C60.5182 8.784 60.4942 8.976 60.3742 9.192C60.0262 9.876 60.1822 11.088 60.1822 11.508C60.1822 11.568 60.2782 11.592 60.4822 11.604C60.6862 11.616 60.7822 11.64 60.7822 11.676C60.7822 11.712 60.6742 11.784 60.4702 11.88C60.2662 11.988 59.9662 12.048 59.5942 12.06C59.4982 12.06 59.4502 12 59.4502 11.892C59.4262 11.22 59.4142 10.668 59.4142 10.248C59.4142 9.228 59.5342 8.196 59.5342 7.404C59.5342 7.128 59.5222 6.78 59.4982 6.384C59.4382 5.712 59.2222 5.16 59.2222 4.944C59.2222 4.62 59.8102 4.32 60.4102 4.32ZM64.1975 12V11.776L64.6455 11.72V9.864C64.6455 9.608 64.6455 9.352 64.6375 9.088L64.2455 8.992V8.8L65.3655 8.432L65.6855 8.504C65.6535 9.096 65.6375 9.856 65.6375 10.776V11.72L66.0775 11.776V12H64.1975ZM64.4695 6.992C64.4695 6.664 64.7415 6.384 65.0775 6.384C65.4135 6.384 65.6855 6.648 65.6855 6.992C65.6855 7.336 65.4135 7.592 65.0775 7.592C64.7335 7.592 64.4695 7.336 64.4695 6.992ZM68.3156 12.119C68.2456 12.119 68.1826 12.112 68.1266 12.112C68.0566 12.112 67.9936 12.098 67.9166 12.098C67.7626 12.098 67.5736 12.021 67.4476 11.972C66.9086 11.762 66.4676 11.314 66.4676 10.586C66.4676 10.411 66.4956 10.271 66.5586 10.166C66.6076 10.082 66.6636 10.012 66.7196 9.928C66.8946 9.662 67.1606 9.466 67.4406 9.298C67.7346 9.123 68.0916 8.976 68.5466 8.976C68.9246 8.976 69.2466 9.074 69.4986 9.221C69.6316 9.298 69.7156 9.445 69.7156 9.655C69.7156 9.788 69.6386 10.026 69.5126 10.026C69.4776 10.026 69.4426 9.998 69.4006 9.949C69.3026 9.837 69.2396 9.704 69.1276 9.592C68.9246 9.389 68.5746 9.284 68.1966 9.284C67.7836 9.284 67.4686 9.459 67.2376 9.662C67.1396 9.746 67.0556 9.858 66.9786 9.977C66.9506 10.019 66.9506 10.061 66.9506 10.138C66.9506 10.18 66.9506 10.222 66.9436 10.264C67.0626 10.264 67.1816 10.25 67.3006 10.25C67.5806 10.25 67.8396 10.264 68.1196 10.264H68.4136C68.6376 10.264 68.8616 10.278 69.0856 10.278C69.1976 10.278 69.2466 10.313 69.2466 10.348C69.2466 10.39 69.1766 10.432 69.0786 10.446C68.7286 10.495 68.3226 10.516 67.9096 10.516H66.9366C66.9716 10.796 67.1536 10.992 67.3076 11.167C67.4896 11.377 67.6996 11.524 67.9586 11.65C68.0286 11.685 68.0986 11.706 68.1896 11.72C68.2876 11.734 68.3926 11.748 68.5046 11.748C69.1906 11.748 69.5126 11.216 69.7506 10.74C69.7856 10.67 69.8416 10.621 69.8766 10.621C69.9046 10.621 69.9186 10.656 69.9186 10.705C69.9186 10.733 69.9186 10.747 69.9116 10.782C69.7576 11.552 69.2256 12.119 68.3156 12.119ZM72.2503 12.144C71.8423 12.144 71.5023 12.036 71.2303 11.82C70.9663 11.604 70.8343 11.272 70.8343 10.824C70.8343 10.656 70.8583 10.476 70.9063 10.284L71.6023 7.704C71.6263 7.6 71.6423 7.516 71.6503 7.452C71.6583 7.38 71.6623 7.328 71.6623 7.296C71.6623 7.144 71.5983 7.068 71.4703 7.068C71.3343 7.068 71.1783 7.172 71.0023 7.38C70.8343 7.58 70.6303 7.932 70.3903 8.436L70.1143 8.304C70.2903 7.896 70.4703 7.556 70.6543 7.284C70.8463 7.012 71.0583 6.808 71.2903 6.672C71.5223 6.528 71.7863 6.456 72.0823 6.456C72.4503 6.456 72.7183 6.552 72.8863 6.744C73.0543 6.936 73.1383 7.184 73.1383 7.488C73.1383 7.568 73.1303 7.644 73.1143 7.716C73.1063 7.78 73.0943 7.856 73.0783 7.944L72.4303 10.632C72.3983 10.768 72.3823 10.884 72.3823 10.98C72.3823 11.156 72.4183 11.292 72.4903 11.388C72.5703 11.476 72.6903 11.52 72.8503 11.52C73.0823 11.52 73.3063 11.432 73.5223 11.256C73.7463 11.072 73.9463 10.844 74.1223 10.572C74.3063 10.292 74.4663 10 74.6023 9.696C74.7383 9.392 74.8423 9.112 74.9143 8.856C74.9943 8.592 75.0343 8.396 75.0343 8.268C75.0343 8.132 74.9943 8.036 74.9143 7.98C74.8423 7.924 74.7503 7.884 74.6383 7.86C74.5263 7.836 74.4103 7.808 74.2903 7.776C74.1783 7.736 74.0823 7.672 74.0023 7.584C73.9303 7.488 73.8943 7.344 73.8943 7.152C73.8943 6.92 73.9623 6.736 74.0983 6.6C74.2343 6.464 74.4263 6.396 74.6743 6.396C74.9463 6.396 75.1623 6.488 75.3223 6.672C75.4823 6.856 75.5623 7.172 75.5623 7.62C75.5623 7.956 75.5143 8.324 75.4183 8.724C75.3303 9.124 75.1943 9.528 75.0103 9.936C74.8263 10.336 74.6023 10.704 74.3383 11.04C74.0743 11.368 73.7663 11.636 73.4143 11.844C73.0623 12.044 72.6743 12.144 72.2503 12.144ZM78.9069 8.58C78.9069 8.46 78.8709 8.358 78.7989 8.274C78.7269 8.19 78.6069 8.148 78.4389 8.148C78.2529 8.148 78.0729 8.202 77.8989 8.31C77.7309 8.418 77.5779 8.553 77.4399 8.715C77.3019 8.871 77.1819 9.042 77.0799 9.228C76.9779 9.408 76.8999 9.576 76.8459 9.732C76.9839 9.756 77.1369 9.768 77.3049 9.768C77.5209 9.768 77.7249 9.735 77.9169 9.669C78.1089 9.603 78.2769 9.516 78.4209 9.408C78.5709 9.3 78.6879 9.174 78.7719 9.03C78.8619 8.886 78.9069 8.736 78.9069 8.58ZM78.9249 11.118C78.8889 11.16 78.8349 11.238 78.7629 11.352C78.6909 11.46 78.5919 11.571 78.4659 11.685C78.3399 11.793 78.1839 11.892 77.9979 11.982C77.8179 12.066 77.5989 12.108 77.3409 12.108C77.0829 12.108 76.8639 12.066 76.6839 11.982C76.5099 11.898 76.3659 11.79 76.2519 11.658C76.1439 11.526 76.0629 11.382 76.0089 11.226C75.9609 11.064 75.9369 10.908 75.9369 10.758C75.9369 10.458 76.0089 10.149 76.1529 9.831C76.3029 9.507 76.4949 9.213 76.7289 8.949C76.9689 8.679 77.2389 8.457 77.5389 8.283C77.8389 8.109 78.1449 8.022 78.4569 8.022C78.5769 8.022 78.6969 8.037 78.8169 8.067C78.9369 8.091 79.0449 8.13 79.1409 8.184C79.2369 8.238 79.3149 8.307 79.3749 8.391C79.4349 8.475 79.4649 8.577 79.4649 8.697C79.4649 8.859 79.4199 9.003 79.3299 9.129C79.2459 9.249 79.1349 9.354 78.9969 9.444C78.8589 9.528 78.7059 9.6 78.5379 9.66C78.3759 9.72 78.2169 9.768 78.0609 9.804C77.9049 9.834 77.7609 9.858 77.6289 9.876C77.5029 9.888 77.4099 9.894 77.3499 9.894C77.2479 9.894 77.1489 9.891 77.0529 9.885C76.9569 9.879 76.8729 9.87 76.8009 9.858C76.7349 10.05 76.6779 10.242 76.6299 10.434C76.5879 10.62 76.5669 10.818 76.5669 11.028C76.5669 11.352 76.6509 11.595 76.8189 11.757C76.9869 11.913 77.1999 11.991 77.4579 11.991C77.6499 11.991 77.8179 11.955 77.9619 11.883C78.1119 11.805 78.2409 11.715 78.3489 11.613C78.4629 11.511 78.5559 11.409 78.6279 11.307C78.7059 11.199 78.7689 11.115 78.8169 11.055L78.9249 11.118ZM80.114 8.81C80.114 8.491 80.257 8.051 80.521 7.919C80.653 7.864 80.708 7.842 80.796 7.754C81.071 7.512 81.445 7.292 81.797 7.171C81.885 7.149 81.995 7.138 82.105 7.138C82.545 7.138 83.117 7.303 83.117 7.655C83.117 7.974 82.831 8.48 82.501 8.48C82.094 8.48 81.885 7.93 81.445 7.93C81.368 7.93 81.302 7.963 81.225 8.007C81.159 8.04 81.115 8.062 81.115 8.15C81.115 8.238 81.071 8.326 81.071 8.436C81.071 8.832 81.291 8.986 81.478 9.206C81.599 9.327 81.731 9.426 81.962 9.426C82.479 9.426 82.853 9.129 83.293 9.03C83.337 9.019 83.37 9.019 83.403 9.019C83.7 9.019 83.843 9.272 83.953 9.47C84.041 9.657 84.118 9.844 84.118 10.086C84.118 10.559 83.832 10.867 83.832 11.318C83.832 11.395 83.843 11.494 83.843 11.582C83.843 11.714 83.7 11.857 83.579 11.857C83.414 11.857 83.26 11.912 83.018 12.121C82.897 12.231 82.787 12.341 82.578 12.341C82.292 12.341 82.061 12.22 81.874 12.099C81.687 11.978 81.511 11.868 81.335 11.758C81.225 11.692 81.104 11.659 80.961 11.659C80.873 11.659 80.785 11.67 80.686 11.692L80.631 11.516C80.785 11.351 80.994 11.23 81.203 11.12C81.368 11.021 81.544 10.922 81.764 10.922C82.05 10.922 82.314 11.032 82.49 11.131C82.6 11.186 82.688 11.23 82.765 11.23C82.941 11.23 83.161 11.043 83.183 10.878C83.216 10.779 83.227 10.68 83.227 10.57C83.227 10.13 83.029 9.789 82.567 9.789C82.325 9.789 82.138 9.855 81.918 9.91C81.665 9.965 81.346 10.13 81.06 10.13C80.455 10.13 80.114 9.514 80.114 8.81Z" fill="black"/>
</svg>
