<svg width="24" height="24" viewBox="0 0 24 24" fill="none" xmlns="http://www.w3.org/2000/svg">
<g clip-path="url(#clip0_835_439)">
<mask id="mask0_835_439" style="mask-type:alpha" maskUnits="userSpaceOnUse" x="0" y="0" width="24" height="24">
<path d="M12 24C18.6274 24 24 18.6274 24 12C24 5.37258 18.6274 0 12 0C5.37258 0 0 5.37258 0 12C0 18.6274 5.37258 24 12 24Z" fill="black"/>
</mask>
<g mask="url(#mask0_835_439)">
<path d="M12 24C18.6274 24 24 18.6274 24 12C24 5.37258 18.6274 0 12 0C5.37258 0 0 5.37258 0 12C0 18.6274 5.37258 24 12 24Z" fill="black"/>
<path d="M19.9344 21.0027L9.21895 7.2H7.20001V16.796H8.81516V9.25114L18.6665 21.9793C19.1111 21.6819 19.5345 21.3553 19.9344 21.0027Z" fill="url(#paint0_linear_835_439)"/>
<path d="M16.9333 7.2H15.3333V16.8H16.9333V7.2Z" fill="url(#paint1_linear_835_439)"/>
</g>
</g>
<defs>
<linearGradient id="paint0_linear_835_439" x1="14.5333" y1="15.5333" x2="19.2667" y2="21.4" gradientUnits="userSpaceOnUse">
<stop stop-color="white"/>
<stop offset="1" stop-color="white" stop-opacity="0"/>
</linearGradient>
<linearGradient id="paint1_linear_835_439" x1="16.1333" y1="7.2" x2="16.1065" y2="14.25" gradientUnits="userSpaceOnUse">
<stop stop-color="white"/>
<stop offset="1" stop-color="white" stop-opacity="0"/>
</linearGradient>
<clipPath id="clip0_835_439">
<rect width="24" height="24" fill="white"/>
</clipPath>
</defs>
</svg>
