<svg width="24" height="24" viewBox="0 0 24 24" fill="none" xmlns="http://www.w3.org/2000/svg">
<g clip-path="url(#clip0_835_460)">
<path d="M0 8.32C0 4.39792 0 2.43687 1.21844 1.21844C2.43687 0 4.39792 0 8.32 0H15.68C19.6021 0 21.5631 0 22.7816 1.21844C24 2.43687 24 4.39792 24 8.32V15.68C24 19.6021 24 21.5631 22.7816 22.7816C21.5631 24 19.6021 24 15.68 24H8.32C4.39792 24 2.43687 24 1.21844 22.7816C0 21.5631 0 19.6021 0 15.68V8.32Z" fill="#4945FF"/>
<path fill-rule="evenodd" clip-rule="evenodd" d="M16.56 7.28H8.48001V11.4H12.6V15.52H16.72V7.44C16.72 7.35164 16.6484 7.28 16.56 7.28Z" fill="white"/>
<path d="M12.6 11.4H12.44V11.56H12.6V11.4Z" fill="white"/>
<path d="M8.48001 11.4H12.44C12.5284 11.4 12.6 11.4716 12.6 11.56V15.52H8.64001C8.55165 15.52 8.48001 15.4484 8.48001 15.36V11.4Z" fill="#9593FF"/>
<path d="M12.6 15.52H16.72L12.7366 19.5034C12.6862 19.5538 12.6 19.5181 12.6 19.4469V15.52Z" fill="#9593FF"/>
<path d="M8.48 11.4H4.55312C4.48184 11.4 4.44616 11.3138 4.49656 11.2634L8.48 7.28V11.4Z" fill="#9593FF"/>
</g>
<defs>
<clipPath id="clip0_835_460">
<rect width="24" height="24" fill="white"/>
</clipPath>
</defs>
</svg>
