<svg width="24" height="24" viewBox="0 0 24 24" fill="none" xmlns="http://www.w3.org/2000/svg">
<g clip-path="url(#clip0_834_422)">
<path d="M20.6919 3.17288C18.4757 -0.0203371 14.0637 -0.95593 10.8919 1.05763L5.3006 4.63729C3.7757 5.59322 2.71844 7.15932 2.41346 8.92882C2.14914 10.4136 2.37279 11.939 3.08441 13.261C2.59644 13.9932 2.27113 14.8068 2.12881 15.661C1.80349 17.4712 2.23047 19.3424 3.28773 20.8271C5.52425 24.0203 9.91597 24.9559 13.0878 22.9424L18.6791 19.3831C20.204 18.4271 21.2612 16.861 21.5662 15.0915C21.8305 13.6068 21.6069 12.0814 20.8953 10.7593C21.3832 10.0271 21.7085 9.21356 21.8509 8.35932C22.1965 6.52882 21.7695 4.65763 20.6919 3.17288Z" fill="#FF3E00"/>
<path d="M10.3429 21.1322C8.53339 21.6 6.64251 20.8881 5.58525 19.3627C4.93462 18.4678 4.69064 17.3492 4.87362 16.2509C4.91429 16.0678 4.95495 15.9051 4.99562 15.722L5.09728 15.3966L5.38193 15.6C6.05288 16.0881 6.78483 16.4542 7.57778 16.6983L7.7811 16.7593L7.76077 16.9627C7.74044 17.2475 7.82177 17.5525 7.98442 17.7966C8.30973 18.2644 8.87903 18.4881 9.428 18.3458C9.54999 18.3051 9.67198 18.2644 9.77364 18.2034L15.3446 14.6441C15.6293 14.461 15.8122 14.1966 15.8732 13.8712C15.9342 13.5458 15.8529 13.2 15.6699 12.9356C15.3446 12.4678 14.7753 12.2644 14.2263 12.4068C14.1044 12.4475 13.9824 12.4881 13.8807 12.5492L11.7458 13.9119C11.4002 14.1356 11.0139 14.2983 10.6073 14.4C8.7977 14.8678 6.90683 14.1559 5.84956 12.6305C5.21927 11.7356 4.95495 10.617 5.15827 9.51865C5.34126 8.46102 5.99189 7.50509 6.90683 6.9356L12.4981 3.37628C12.8438 3.15255 13.2301 2.98983 13.6367 2.8678C15.4463 2.4 17.3371 3.11187 18.3944 4.63729C19.045 5.53221 19.289 6.65085 19.106 7.74916C19.0654 7.93221 19.0247 8.09492 18.9637 8.27797L18.862 8.60339L18.5774 8.4C17.9064 7.91187 17.1745 7.54577 16.3815 7.3017L16.1782 7.24068L16.1986 7.03729C16.2189 6.75255 16.1376 6.44746 15.9749 6.20339C15.6496 5.7356 15.0803 5.53221 14.5313 5.67458C14.4093 5.71526 14.2873 5.75594 14.1857 5.81695L8.61472 9.37628C8.33007 9.55933 8.14708 9.82373 8.08608 10.1492C8.02509 10.4746 8.10641 10.8203 8.2894 11.0847C8.61471 11.5525 9.18401 11.7559 9.73298 11.6136C9.85497 11.5729 9.97696 11.5322 10.0786 11.4712L12.2135 10.1085C12.5591 9.88475 12.9454 9.72204 13.3521 9.6C15.1616 9.13221 17.0525 9.84407 18.1098 11.3695C18.7604 12.2644 19.0044 13.3831 18.8214 14.4814C18.6384 15.539 17.9878 16.4949 17.0728 17.0644L11.4815 20.6237C11.1359 20.8475 10.7496 21.0102 10.3429 21.1322Z" fill="white"/>
</g>
<defs>
<clipPath id="clip0_834_422">
<rect width="20" height="24" fill="white" transform="translate(2)"/>
</clipPath>
</defs>
</svg>
