<svg width="24" height="24" viewBox="0 0 24 24" fill="none" xmlns="http://www.w3.org/2000/svg">
<g clip-path="url(#clip0_834_416)">
<path fill-rule="evenodd" clip-rule="evenodd" d="M0.0830202 0.0749892C0.152694 0.0085654 0.25284 -0.0160233 0.345772 0.0104766L6.18045 1.67426C6.206 1.67412 6.23178 1.67757 6.25703 1.68478C6.28216 1.69196 6.30573 1.70259 6.32721 1.71611L17.8345 4.99747C17.8579 4.99791 17.8814 5.00135 17.9045 5.00795C17.9275 5.01452 17.9492 5.02396 17.9691 5.03587L23.8041 6.69973C23.8971 6.72626 23.9688 6.79994 23.992 6.89301C24.0153 6.98607 23.9867 7.08436 23.9169 7.15083L6.31038 23.9251C6.24064 23.9915 6.1404 24.0161 6.04743 23.9895C5.95447 23.9628 5.8829 23.8891 5.85969 23.7961L2.93914 12.0857C2.93719 12.0798 2.93545 12.0737 2.93392 12.0676C2.93235 12.0613 2.93102 12.0551 2.92992 12.0488L0.00790924 0.33258C-0.0152817 0.239592 0.0133464 0.141413 0.0830202 0.0749892ZM3.57287 12.3896L4.80194 17.3177L8.49301 13.7938L3.57287 12.3896ZM8.9372 14.1149L5.24172 17.643L10.1648 19.0427L8.9372 14.1149ZM10.0901 19.5796L5.00552 18.134L6.27303 23.2162L10.0901 19.5796ZM10.7094 18.9896L14.395 15.4783L9.48571 14.0771L10.7094 18.9896ZM9.54034 13.5344L14.5443 14.9625L13.2953 9.94954L9.54034 13.5344ZM13.8214 9.82197L15.0704 14.8348L18.8355 11.2476L13.8214 9.82197ZM19.4522 10.6601L23.203 7.08661L18.2071 5.66201L19.4522 10.6601ZM17.2961 5.40224L12.3703 3.99762L13.5995 8.93139L17.2961 5.40224ZM13.0663 9.03029L11.8452 4.12935L8.16629 7.63713L13.0663 9.03029ZM7.78461 7.25636L11.4712 3.74124L6.56011 2.34081L7.78461 7.25636ZM5.64717 2.08048L0.646123 0.654408L1.89515 5.66254L5.64717 2.08048ZM2.09835 6.47732L3.34772 11.4868L7.10787 7.90162L2.09835 6.47732ZM7.48555 8.28619L3.72268 11.874L8.73572 13.3048L7.48555 8.28619ZM9.23729 13.0786L12.9328 9.55049L8.00973 8.15077L9.23729 13.0786ZM7.25911 7.38646L6.03156 2.45865L2.33607 5.98674L7.25911 7.38646ZM13.9836 9.30991L18.9066 10.7096L17.6791 5.78182L13.9836 9.30991Z" fill="black"/>
</g>
<defs>
<clipPath id="clip0_834_416">
<rect width="24" height="24" fill="white"/>
</clipPath>
</defs>
</svg>
