<svg width="24" height="24" viewBox="0 0 24 24" fill="none" xmlns="http://www.w3.org/2000/svg">
<g clip-path="url(#clip0_834_424)">
<path d="M14.4154 10.651C15.5606 9.68748 16.0682 3.99172 16.564 1.9443C17.0601 -0.102755 19.1105 0.000657158 19.1105 0.000657158C19.1105 0.000657158 18.5783 0.943363 18.7951 1.64677C19.0123 2.35019 20.5 2.97877 20.5 2.97877L20.1791 3.83925C20.1791 3.83925 19.5095 3.75207 19.1105 4.56348C18.7115 5.37454 19.3669 13.4075 19.3669 13.4075C19.3669 13.4075 16.9706 18.2156 16.9706 20.2454C16.9706 22.2755 17.9153 23.9767 17.9153 23.9767H16.59C16.59 23.9767 14.6454 21.6225 14.2468 20.4465C13.8478 19.2702 14.0074 18.0938 14.0074 18.0938C14.0074 18.0938 11.8942 17.9721 10.02 18.0938C8.1462 18.2156 6.89618 19.8543 6.67067 20.7709C6.44516 21.6878 6.35149 23.9767 6.35149 23.9767H5.30408C4.66606 21.9741 4.15918 21.2565 4.43431 20.2454C5.19549 17.4448 5.04596 15.8562 4.86971 15.1489C4.69347 14.4412 3.5 13.824 3.5 13.824C4.08459 12.6123 4.68133 12.03 7.24798 11.9692C9.81463 11.9085 13.2701 11.6149 14.4154 10.651Z" fill="#EC4815"/>
<path d="M7.75 20.1282C7.75 20.1282 8.02061 22.6775 9.45937 23.9767H10.6924C9.45937 22.5558 9.3251 18.8524 9.3251 18.8524C8.69784 19.0602 7.8298 19.8039 7.75 20.1282Z" fill="#EC4815"/>
</g>
<defs>
<clipPath id="clip0_834_424">
<rect width="17" height="24" fill="white" transform="translate(3.5)"/>
</clipPath>
</defs>
</svg>
