<svg width="24" height="24" viewBox="0 0 24 24" fill="none" xmlns="http://www.w3.org/2000/svg">
<g clip-path="url(#clip0_835_450)">
<path d="M11.8901 4.1573C7.62631 4.1573 4.15735 7.62626 4.15735 11.8901C4.15735 16.1539 7.62631 19.6229 11.8901 19.6229C16.154 19.6229 19.6229 16.1539 19.6229 11.8901C19.6229 7.62626 16.154 4.1573 11.8901 4.1573ZM11.8901 15.8919C9.67975 15.8919 7.88839 14.1005 7.88839 11.8901C7.88839 9.6797 9.67975 7.88834 11.8901 7.88834C14.1005 7.88834 15.8919 9.6797 15.8919 11.8901C15.8919 14.1005 14.1005 15.8919 11.8901 15.8919Z" fill="black"/>
<path fill-rule="evenodd" clip-rule="evenodd" d="M12.5381 2.8872V0C18.8136 0.33552 23.7989 5.53104 23.7989 11.8901C23.7989 18.2491 18.8136 23.4432 12.5381 23.7802V20.893C17.2152 20.5589 20.9189 16.6507 20.9189 11.8901C20.9189 7.12944 17.2152 3.22128 12.5381 2.8872ZM5.07024 17.7941C3.8304 16.3627 3.0312 14.5397 2.88864 12.5381H0C0.14976 15.3389 1.27008 17.8805 3.02544 19.8374L5.0688 17.7941H5.07024ZM11.2421 23.7802V20.893C9.23906 20.7504 7.41602 19.9526 5.98466 18.7114L3.9413 20.7547C5.8997 22.5115 8.4413 23.6304 11.2407 23.7802H11.2421Z" fill="url(#paint0_linear_835_450)"/>
</g>
<defs>
<linearGradient id="paint0_linear_835_450" x1="13.0047" y1="1.67201" x2="1.30042" y2="13.3763" gradientUnits="userSpaceOnUse">
<stop stop-color="#0096FF"/>
<stop offset="1" stop-color="#FF1E56"/>
</linearGradient>
<clipPath id="clip0_835_450">
<rect width="24" height="24" fill="white"/>
</clipPath>
</defs>
</svg>
