<svg
  fill="none"
  height="48"
  viewBox="0 0 182 48"
  width="182"
  xmlns="http://www.w3.org/2000/svg"
>
  <rect
    height="47"
    stroke="black"
    width="181"
    x="0.5"
    y="0.5"
  />
  <g clip-path="url(#clip)">
    <path
      d="M0 15H9M48 15H39M24 0V30M24 48V30M24 30L39 15M24 30L9 15M39 15H9"
      stroke="black"
    />
  </g>
  <rect
    height="47"
    stroke="black"
    width="47"
    x="0.5"
    y="0.5"
  />
  <path
    d="M75.2906 28.712C75.4346 28.448 75.7706 28.352 75.8906 28.256C75.9146 28.232 75.9146 28.232 75.9386 28.232C76.0346 28.232 76.1066 28.472 76.1066 28.688C76.1066 28.76 76.0826 28.832 76.0826 28.88C75.9866 29.48 75.6506 30.824 75.2906 31.376C75.1706 31.568 74.7146 31.688 74.1146 31.88C73.2746 32.144 71.5226 32.36 70.0826 32.36C65.7146 32.36 62.3306 28.616 62.3306 24.248C62.3306 19.592 66.4106 16.088 71.0666 16.088C71.8346 16.088 73.1786 16.232 73.6106 16.376C74.0426 16.52 74.9546 16.736 75.4346 16.808C75.6266 16.832 75.7226 17.192 75.7466 17.528C75.8426 18.272 75.9146 18.896 75.9386 20.144C75.9626 20.36 75.9146 20.72 75.6746 20.696C75.4106 20.672 75.1466 20.36 75.0506 19.808C74.9306 18.848 74.4986 18.32 74.2106 18.056C73.9706 17.816 72.8906 16.832 70.6826 16.832C67.1546 16.832 64.7306 20.144 64.7306 23.672C64.7306 27.584 67.0826 31.616 70.8266 31.616C73.5146 31.616 74.6666 29.936 75.2906 28.712ZM80.4181 25.664V30.392C80.4421 31.04 81.2341 31.28 81.7141 31.424C81.9781 31.52 82.2661 31.616 82.2661 31.856C82.2661 32.048 81.9541 32.072 81.7861 32.072C80.8261 32.072 80.5381 31.952 79.6981 31.952C78.8581 31.952 78.7141 32.072 77.7541 32.072C77.5861 32.072 77.2741 32.048 77.2741 31.856C77.2741 31.616 77.5621 31.52 77.8261 31.424C78.3061 31.28 78.7141 31.16 78.7381 30.512V25.352C78.7381 24.488 78.5461 23.792 77.7541 23.624C77.6341 23.6 77.5141 23.456 77.5141 23.312C77.5141 23.168 77.6341 23.048 77.7301 23.024C78.9541 22.736 79.7461 22.088 80.3941 21.704C80.4181 21.704 80.4181 21.68 80.4421 21.68C80.5141 21.68 80.5621 21.776 80.5861 21.848C80.5861 22.016 80.5621 22.88 80.5141 23.648C80.5141 23.696 80.5141 23.696 80.5381 23.696C80.6341 23.696 80.9461 23.24 81.1141 23.096C81.8581 22.424 82.7461 22.064 83.3221 22.064C83.9941 22.064 84.4741 22.4 84.4741 22.832C84.4741 23.312 84.0181 24.08 83.5381 24.08C83.1301 24.08 82.5781 23.648 82.0981 23.648C81.3301 23.648 80.4181 24.056 80.4181 25.664ZM90.2913 22.064C93.0753 22.064 95.2353 24.296 95.2353 26.888C95.2353 29.696 93.4113 32.336 89.8113 32.336C87.1233 32.336 85.0353 30.32 85.0353 27.512C85.0353 24.848 87.3393 22.064 90.2913 22.064ZM89.8833 22.808C89.0193 22.808 88.3473 23.024 87.7713 23.768C87.1233 24.584 87.0033 25.808 87.0033 26.96C87.0033 29.336 88.3953 31.616 90.3153 31.616C91.3953 31.616 92.3073 31.232 92.7873 30.296C93.1713 29.552 93.2673 28.4 93.2673 27.464C93.2673 25.184 91.9233 22.808 89.8833 22.808ZM109.924 24.512L106.636 32.384C106.588 32.48 106.516 32.552 106.42 32.552C106.348 32.552 106.276 32.48 106.228 32.384L103.732 26.192C103.636 25.952 103.564 25.88 103.42 26.216L100.804 32.384C100.756 32.48 100.684 32.552 100.612 32.552C100.54 32.552 100.468 32.48 100.444 32.384L97.1075 24.104C96.8675 23.48 96.3395 23.072 95.8595 22.928C95.5955 22.832 95.3075 22.736 95.3075 22.496C95.3075 22.304 95.6195 22.28 95.7875 22.28C95.9315 22.28 97.5395 22.4 97.5395 22.4C97.5395 22.4 99.3635 22.28 99.5315 22.28C99.6515 22.28 100.012 22.304 100.012 22.496C100.012 22.736 99.7235 22.832 99.4595 22.928C99.1235 23.024 98.9555 23.432 98.9555 23.888C98.9555 24.104 99.0035 24.32 99.0755 24.512L100.9 29.216C101.02 29.552 101.116 29.528 101.26 29.192L102.844 25.328C102.94 25.064 102.988 24.824 102.988 24.608C102.988 23.72 102.292 23.072 101.788 22.928C101.523 22.856 101.236 22.736 101.236 22.496C101.236 22.304 101.523 22.28 101.716 22.28C102.148 22.28 102.628 22.4 103.516 22.4C104.404 22.4 105.004 22.28 105.532 22.28C105.7 22.28 106.012 22.304 106.012 22.496C106.012 22.736 105.724 22.832 105.46 22.928C105.1 23.048 104.644 23.216 104.644 23.792C104.644 23.984 104.692 24.224 104.812 24.512L106.612 29.144C106.756 29.48 106.852 29.504 106.996 29.168L108.82 24.92C108.94 24.656 108.988 24.392 108.988 24.176C108.988 23.48 108.508 23.048 108.148 22.928C107.884 22.832 107.596 22.736 107.596 22.496C107.596 22.304 107.908 22.28 108.076 22.28C108.772 22.28 109.012 22.4 109.876 22.4C110.764 22.4 110.74 22.28 111.268 22.28C111.46 22.28 111.748 22.304 111.748 22.496C111.748 22.736 111.46 22.832 111.196 22.928C110.716 23.072 110.236 23.792 109.924 24.512ZM112.398 17.72C111.702 17.648 111.27 17.24 111.27 16.712C111.27 16.064 111.894 15.608 112.59 15.608C113.742 15.608 114.582 16.424 114.582 17.768C114.582 20.192 112.782 21.008 111.558 21.056C111.246 21.056 111.078 20.96 111.078 20.792C111.078 20.672 111.198 20.552 111.414 20.504C112.446 20.288 113.334 19.856 113.334 18.608C113.334 18.224 112.926 17.768 112.398 17.72ZM115.302 22.688C114.39 22.688 113.79 23.312 113.79 24.272C113.79 25.232 115.062 25.976 115.83 26.456C116.55 26.912 118.11 27.872 118.11 29.456C118.11 31.112 117.318 32.336 114.654 32.336C113.358 32.336 112.254 31.784 112.11 31.472C111.942 31.136 111.822 30.56 111.798 30.008C111.798 29.864 112.014 29.792 112.206 29.792C112.374 29.792 112.542 29.84 112.566 29.96C112.734 30.776 113.814 31.688 114.798 31.688C115.95 31.688 116.478 30.968 116.478 30.008C116.478 29.144 115.71 28.568 114.654 27.824C113.502 27.008 112.35 26.072 112.35 24.896C112.35 23.528 113.214 22.064 115.566 22.064C116.526 22.064 117.126 22.376 117.366 22.616C117.654 22.976 117.774 23.816 117.774 24.488C117.774 24.56 117.726 24.584 117.63 24.584C117.39 24.584 116.814 24.296 116.814 24.08C116.79 23.408 116.094 22.688 115.302 22.688ZM138.425 16.4C139.577 16.4 139.721 16.328 141.185 16.328C141.593 16.328 141.881 16.4 141.881 16.592C141.881 16.808 141.641 16.976 141.089 17.072C139.889 17.288 139.601 17.576 139.577 18.368C139.553 18.944 139.529 30.488 139.529 31.808C139.529 32.312 139.265 32.408 139.025 32.408C138.737 32.408 137.849 31.952 137.081 30.896C136.649 30.296 129.089 21.056 128.537 20.384C128.297 20.096 128.153 20 128.033 20C127.865 20 127.817 20.312 127.817 20.504C127.769 22.88 127.697 26.552 127.697 29.504C127.697 30.368 128.033 31.208 129.233 31.424C129.785 31.52 130.025 31.64 130.025 31.856C130.025 32.048 129.737 32.12 129.329 32.12C128.033 32.12 127.961 32 127.073 32C126.209 32 126.185 32.12 124.889 32.12C124.481 32.12 124.193 32.048 124.193 31.856C124.193 31.64 124.433 31.544 124.985 31.4C125.897 31.16 126.281 30.416 126.377 29.432C126.569 27.632 126.809 23.792 126.809 19.832C126.809 18.128 125.849 17.576 124.433 17.12C124.289 17.072 123.689 16.832 123.689 16.544C123.689 16.256 124.073 16.208 124.241 16.208C126.113 16.256 126.209 16.328 127.937 16.328C128.225 16.328 128.345 16.52 128.513 16.736C128.969 17.384 137.177 27.68 137.657 28.256C137.777 28.4 138.065 28.736 138.257 28.736C138.377 28.736 138.473 28.592 138.497 28.232C138.521 27.464 138.545 23.24 138.545 20.552V18.464C138.521 17.84 137.681 17.24 137.153 17.144C136.601 17.048 136.361 16.88 136.361 16.664C136.361 16.472 136.649 16.4 137.057 16.4H138.425ZM147.221 22.808C145.877 22.808 144.773 24.104 144.773 24.728C144.773 24.92 144.893 25.088 145.229 25.088H147.197C147.893 25.088 148.445 25.064 148.949 24.968C149.117 24.944 149.189 24.56 149.189 24.296C149.189 23.336 148.157 22.808 147.221 22.808ZM147.605 22.064C149.453 22.064 150.749 22.976 150.749 24.752C150.749 25.472 150.533 25.832 149.909 25.832H144.917C144.533 25.832 144.317 25.904 144.317 26.72C144.317 28.88 145.781 30.896 147.941 30.896C148.541 30.896 149.621 30.632 150.245 29.816C150.317 29.744 150.437 29.648 150.509 29.648C150.677 29.648 150.701 29.936 150.653 30.128C150.413 30.968 149.069 32.336 146.861 32.336C144.677 32.336 142.829 30.32 142.829 27.128C142.829 24.416 144.893 22.064 147.605 22.064ZM154.893 20C154.893 20.888 155.157 22.064 156.117 22.064C157.077 22.064 157.677 22.304 157.917 22.544C158.157 23.312 158.253 23.816 158.253 24.488C158.253 24.56 158.205 24.584 158.133 24.584C157.869 24.584 157.389 24.32 157.341 24.104C157.197 23.168 156.405 23 155.901 23C154.965 23 154.221 23.6 154.221 24.416C154.221 25.376 155.469 26.24 156.261 26.672C157.077 27.104 158.397 27.92 158.397 29.456C158.397 31.112 157.557 32.336 154.797 32.336C154.317 32.336 152.757 31.784 152.613 31.472C152.445 31.136 152.325 30.56 152.301 30.008C152.301 29.864 152.493 29.792 152.685 29.792C152.853 29.792 152.997 29.84 153.021 29.96C153.189 30.776 154.221 31.592 155.061 31.592C156.309 31.592 156.741 30.872 156.741 29.96C156.741 28.616 155.781 28.328 154.917 27.752C153.741 26.984 152.733 26.456 152.733 24.92C152.733 23.528 153.429 22.52 154.941 22.184C154.485 22.04 154.149 20.816 154.149 19.904C154.149 17.816 156.093 16.04 158.949 16.04C160.365 16.04 162.669 17.072 162.669 19.088V20.984L162.645 22.064C162.645 22.28 162.861 22.4 163.173 22.4H166.005C166.125 22.4 166.197 22.688 166.197 22.976C166.197 23.264 166.125 23.552 166.005 23.552H163.533C162.669 23.552 162.573 23.552 162.573 23.888V29.432C162.573 30.392 163.389 31.256 164.253 31.256C165.309 31.256 165.669 30.992 166.053 30.704C166.197 30.608 166.293 30.824 166.293 31.016C166.293 31.088 166.269 31.136 166.245 31.184C166.029 31.544 164.709 32.336 163.461 32.336C162.117 32.336 160.893 31.352 160.893 30.008V23.912C160.893 23.456 160.605 23.6 160.101 23.552C159.957 23.528 159.741 23.048 159.933 22.976C160.941 22.568 161.085 22.16 161.349 21.848C161.421 21.752 161.469 20.696 161.469 19.976C161.469 18.32 160.269 16.76 158.613 16.76C156.693 16.76 154.893 18.128 154.893 20Z"
    fill="black"
  />
  <defs>
    <clipPath id="clip">
      <rect fill="white" height="48" width="48" />
    </clipPath>
  </defs>
</svg>