<svg
  fill="none"
  height="48"
  viewBox="0 0 127 48"
  width="127"
  xmlns="http://www.w3.org/2000/svg"
>
  <rect
    height="47"
    stroke="black"
    width="126"
    x="0.5"
    y="0.5"
  />
  <rect
    height="47"
    stroke="black"
    width="47"
    x="0.5"
    y="0.5"
  />
  <path
    d="M17 48V39M31 48V39M31 0V9M17 0V9M31 19V29M31 19H17M31 19V9M17 19V29M17 19V9M17 29H31M17 29V39M31 29V39M17 9H31M31 39H17"
    stroke="black"
  />
  <path
    d="M78.368 29.6C78.368 30.776 78.488 31.208 79.688 31.424C80.24 31.52 80.48 31.64 80.48 31.856C80.48 32.048 80.192 32.12 79.784 32.12C78.488 32.12 78.272 32 77.288 32C76.28 32 76.016 32.12 74.72 32.12C74.312 32.12 74.024 32.048 74.024 31.856C74.024 31.64 74.264 31.52 74.816 31.424C75.824 31.232 76.448 30.704 76.448 29.672V25.112C76.448 24.944 76.472 24.752 76.328 24.752H67.16C67.04 24.752 67.04 24.824 67.04 25.016V29.456C67.04 30.464 67.832 31.232 68.936 31.424C69.488 31.52 69.728 31.64 69.728 31.856C69.728 32.048 69.44 32.12 69.032 32.12C67.736 32.12 67.328 32 66.224 32C65.192 32 64.88 32.12 63.584 32.12C63.176 32.12 62.888 32.048 62.888 31.856C62.888 31.64 63.128 31.52 63.68 31.424C64.88 31.208 65.12 30.776 65.12 29.624V18.776C65.12 17.672 65.048 17.288 63.848 17.072C63.296 16.976 63.056 16.808 63.056 16.592C63.056 16.4 63.344 16.328 63.752 16.328C65.048 16.328 65.264 16.4 66.224 16.4C67.208 16.4 67.472 16.328 68.768 16.328C69.176 16.328 69.464 16.4 69.464 16.592C69.464 16.808 69.224 16.976 68.672 17.072C67.472 17.288 67.04 17.84 67.04 18.776V23.384C67.04 23.576 67.232 23.6 67.376 23.6H76.28C76.4 23.6 76.448 23.528 76.448 23.312V18.752C76.448 17.888 76.064 17.288 74.864 17.072C74.312 16.976 74.072 16.808 74.072 16.592C74.072 16.4 74.36 16.328 74.768 16.328C76.064 16.328 76.472 16.4 77.552 16.4C78.416 16.4 78.44 16.328 79.736 16.328C80.144 16.328 80.432 16.4 80.432 16.592C80.432 16.808 80.192 16.976 79.64 17.072C78.44 17.288 78.368 17.84 78.368 18.752V29.6ZM87.5257 22.064C90.3097 22.064 92.4697 24.296 92.4697 26.888C92.4697 29.696 90.6457 32.336 87.0457 32.336C84.3577 32.336 82.2697 30.32 82.2697 27.512C82.2697 24.848 84.5737 22.064 87.5257 22.064ZM87.1177 22.808C86.2537 22.808 85.5817 23.024 85.0057 23.768C84.3577 24.584 84.2377 25.808 84.2377 26.96C84.2377 29.336 85.6297 31.616 87.5497 31.616C88.6297 31.616 89.5417 31.232 90.0217 30.296C90.4057 29.552 90.5017 28.4 90.5017 27.464C90.5017 25.184 89.1577 22.808 87.1177 22.808ZM97.0325 30.512C97.0325 31.16 97.5845 31.28 98.0645 31.424C98.3285 31.52 98.6165 31.616 98.6165 31.856C98.6165 32.048 98.3045 32.072 98.1365 32.072C97.2005 32.072 97.0325 31.952 96.1925 31.952C95.3525 31.952 95.1845 32.072 94.2485 32.072C94.0805 32.072 93.7685 32.048 93.7685 31.856C93.7685 31.616 94.0565 31.52 94.3205 31.424C94.8005 31.28 95.3525 31.16 95.3525 30.512V18.416C95.3525 17.48 95.0405 16.832 94.2485 16.664C94.1285 16.64 94.0565 16.496 94.0565 16.352C94.0565 16.208 94.1285 16.088 94.2245 16.064C95.4485 15.776 96.2405 15.392 97.0085 15.104C97.0325 15.104 97.0325 15.08 97.0565 15.08C97.1285 15.08 97.2005 15.176 97.2005 15.248C97.2005 15.536 97.0325 16.352 97.0325 18.512V30.512ZM104.574 22.904C103.638 22.904 101.694 23.672 101.694 26.888C101.694 30.512 104.19 31.256 105.246 31.256C106.59 31.256 107.526 30.272 107.526 29.12V25.88C107.526 24.536 106.446 22.904 104.574 22.904ZM107.19 22.568C107.286 22.688 107.382 22.784 107.43 22.784C107.502 22.784 107.526 22.64 107.526 22.208V18.416C107.526 17.12 107.118 16.832 106.302 16.664C106.182 16.64 106.11 16.496 106.11 16.352C106.11 16.232 106.158 16.088 106.278 16.064C108.03 15.656 108.87 15.104 109.206 15.104C109.302 15.104 109.35 15.152 109.374 15.248C109.374 15.536 109.206 16.352 109.206 18.512V29.36C109.206 30.368 109.326 30.92 109.71 30.92C109.95 30.92 110.574 30.896 110.814 30.848C110.934 30.824 111.174 30.872 111.174 31.16C111.174 31.424 110.958 31.496 110.838 31.496C109.59 31.664 108.726 32.024 108.03 32.312C107.934 32.36 107.598 32.456 107.454 32.456C107.358 32.456 107.382 32.432 107.382 32.36C107.382 32.048 107.502 31.184 107.502 30.776V30.632C107.022 31.376 105.942 32.336 104.358 32.336C101.622 32.336 99.9181 29.864 99.9181 27.44C99.9181 24.656 101.958 22.064 105.318 22.064C105.99 22.064 107.046 22.4 107.19 22.568Z"
    fill="black"
  />
</svg>