<svg
  fill="none"
  height="48"
  viewBox="0 0 133 48"
  width="133"
  xmlns="http://www.w3.org/2000/svg"
>
  <rect
    height="47"
    stroke="black"
    width="132"
    x="0.5"
    y="0.5"
  />
  <g clip-path="url(#clip)">
    <path
      d="M31.2929 8L24 15.2929L16.7071 8L24 0.707107L31.2929 8ZM16.7071 40L24 32.7071L31.2929 40L24 47.2929L16.7071 40ZM32.7071 24L40 16.7071L47.2929 24L40 31.2929L32.7071 24ZM0.707107 24L8 16.7071L15.2929 24L8 31.2929L0.707107 24Z"
      stroke="black"
    />
    <path
      d="M24.3536 15.6464L24 15.2929L23.6464 15.6464L15.6464 23.6464L15.2929 24L15.6464 24.3536L23.6464 32.3536L24 32.7071L24.3536 32.3536L32.3536 24.3536L32.7071 24L32.3536 23.6464L24.3536 15.6464Z"
      stroke="black"
    />
  </g>
  <rect
    height="47"
    stroke="black"
    width="47"
    x="0.5"
    y="0.5"
  />
  <path
    d="M70.2271 29.552C70.2271 30.704 70.9231 31.208 72.1231 31.424C72.6751 31.52 72.9151 31.64 72.9151 31.856C72.9151 32.048 72.6271 32.12 72.2191 32.12C70.9231 32.12 70.5151 32 69.4111 32C68.2111 32 67.6351 32.12 66.3391 32.12C65.9311 32.12 65.6431 32.048 65.6431 31.856C65.6431 31.64 65.8831 31.52 66.4351 31.424C67.6351 31.208 68.3071 30.704 68.3071 29.552V18.632C68.3071 18.2 68.2591 17.672 67.8751 17.6C67.4191 17.504 66.9151 17.504 66.0991 17.504H64.9711C64.2031 17.504 63.3391 17.816 63.0031 18.44C62.8591 18.704 62.3791 19.352 62.0191 19.352C61.8991 19.352 61.8511 19.208 61.8511 19.04C61.8511 18.896 61.8991 18.704 61.9711 18.56C62.4031 17.648 62.5711 16.904 62.7151 15.896C62.7871 15.368 63.0031 15.344 63.1231 15.344C63.2431 15.344 63.5791 15.848 63.7231 16.112C63.9151 16.448 64.7311 16.592 65.4031 16.592H74.5471C75.2431 16.592 75.6991 16.424 75.9391 16.256C76.4191 15.92 76.7791 15.392 77.1391 15.392C77.2351 15.392 77.3071 15.704 77.3071 15.944C77.3071 16.016 77.2831 16.112 77.2831 16.16C77.0671 17.048 76.8991 17.912 76.8991 18.536V18.824C76.8991 19.112 76.7551 19.592 76.5151 19.592C76.2751 19.592 76.1791 19.232 76.0591 18.608C75.9391 17.936 75.3871 17.504 73.8511 17.504H71.5711C70.3471 17.504 70.2271 17.624 70.2271 18.608V29.552ZM82.1611 31.232C82.5931 31.232 82.8571 31.136 83.1211 30.896C83.2651 30.752 83.5051 30.92 83.5051 31.112C83.5051 31.304 82.4971 32.336 81.5851 32.336C80.2171 32.336 80.0011 31.088 79.8091 31.088C79.4971 31.088 78.8251 32.312 76.8571 32.336C75.8731 32.336 74.7931 31.376 74.7931 30.44C74.7931 29.432 75.3691 28.76 76.5451 28.28L78.9931 27.272C79.6171 27.008 79.6411 26.96 79.6651 26.312L79.7131 24.776C79.7371 23.96 79.1611 23.24 78.2971 23.24C77.7211 23.24 77.0251 23.672 76.8331 24.008C76.7611 24.128 76.7371 24.296 76.7371 24.464C76.7371 24.584 76.7611 24.68 76.7611 24.8C76.7611 25.136 75.4171 25.64 75.1051 25.64C74.9611 25.64 74.9131 25.496 74.9131 25.424C74.9131 24.92 75.2731 24.296 75.8731 23.768C76.6171 23.096 78.1771 22.064 79.4491 22.064C80.5771 22.064 81.4411 23.024 81.4171 24.2L81.2971 29.384C81.2971 30.32 81.4651 31.232 82.1611 31.232ZM76.7131 29.912C76.7131 30.824 77.4331 31.232 77.8891 31.232C78.5131 31.232 78.9451 30.92 79.3291 30.584C79.4971 30.44 79.5931 30.224 79.6171 29.624L79.6651 28.448C79.6891 28.088 79.6411 27.944 79.4491 27.944C79.3771 27.944 79.2331 27.968 79.1131 28.016C77.2651 28.64 76.7131 29.36 76.7131 29.912ZM91.5311 24.344C91.3151 24.344 91.0511 24.224 90.9311 24.104C90.1391 23.24 89.8751 22.976 88.6751 22.976C86.9231 22.976 86.0351 24.824 86.0351 26.576C86.0351 28.88 87.5471 31.088 89.8511 31.088C90.8591 31.088 91.3391 30.704 91.9631 29.888C92.0351 29.816 92.1071 29.768 92.1791 29.768C92.3231 29.768 92.4671 29.936 92.4671 30.104C92.4671 30.992 90.5471 32.336 88.4831 32.336C86.0591 32.336 84.3791 30.152 84.3791 27.68C84.3791 24.728 86.4911 22.088 89.4431 22.088C90.4751 22.088 91.6031 22.352 92.3231 23.24C92.3951 23.336 92.4431 23.432 92.4431 23.528C92.4431 23.936 91.7711 24.344 91.5311 24.344ZM98.6819 31.784C98.6819 31.28 99.7379 31.376 99.7379 30.896C99.7379 30.8 99.6659 30.68 99.5699 30.56L96.5459 27.08C96.4739 27.008 96.3059 27.032 96.3059 27.224C96.2819 27.68 96.2819 28.208 96.2819 28.76C96.2819 29.312 96.2819 29.888 96.3059 30.44C96.3059 31.088 96.6659 31.28 97.1459 31.424C97.4099 31.52 97.6979 31.616 97.6979 31.856C97.6979 32.096 97.2659 32.072 97.1459 32.072C96.2099 32.072 96.3059 31.952 95.4659 31.952C94.6259 31.952 94.5299 32.072 93.5939 32.072C93.4739 32.072 93.0419 32.096 93.0419 31.856C93.0419 31.616 93.3299 31.52 93.5939 31.424C94.0739 31.28 94.6259 31.088 94.6259 30.44V18.416C94.6259 17.288 94.3139 16.832 93.5219 16.664C93.4019 16.64 93.3299 16.496 93.3299 16.352C93.3299 16.208 93.4019 16.088 93.4979 16.064C94.7219 15.776 95.5619 15.392 96.3299 15.104C96.3539 15.104 96.3539 15.08 96.3779 15.08C96.4499 15.08 96.5219 15.2 96.5219 15.296C96.5219 15.632 96.3059 16.472 96.3059 18.512V26.456C96.3059 26.624 96.3539 26.648 96.4499 26.624C96.6659 26.576 96.9299 26.432 97.2899 26.12C98.5859 24.992 99.7619 23.792 100.026 23.408C100.05 23.384 100.05 23.36 100.05 23.336C100.05 23.168 99.7619 23 99.4259 22.928C99.3539 22.904 99.1379 22.808 99.1379 22.736C99.1379 22.448 99.5699 22.4 99.6659 22.4H100.842C101.706 22.4 102.498 22.184 103.146 22.112C103.218 22.112 103.338 22.184 103.338 22.28C103.338 22.472 103.074 22.736 102.858 22.784C102.258 22.904 101.61 23.264 101.178 23.528C100.866 23.72 99.2579 25.064 98.1059 26.072C97.9859 26.168 97.9379 26.384 98.0339 26.48C99.2819 27.992 101.058 29.864 101.562 30.32C102.09 30.824 103.05 31.328 103.53 31.472C103.794 31.568 104.082 31.664 104.082 31.904C104.082 32.096 103.77 32.12 103.602 32.12C102.354 32.12 100.746 32 99.2339 32C99.1139 32 98.6819 32.024 98.6819 31.784ZM106.993 30.512C106.993 31.16 107.545 31.28 108.025 31.424C108.289 31.52 108.577 31.616 108.577 31.856C108.577 32.048 108.265 32.072 108.097 32.072C107.161 32.072 106.993 31.952 106.153 31.952C105.313 31.952 105.145 32.072 104.209 32.072C104.041 32.072 103.729 32.048 103.729 31.856C103.729 31.616 104.017 31.52 104.281 31.424C104.761 31.28 105.313 31.16 105.313 30.512V18.416C105.313 17.48 105.001 16.832 104.209 16.664C104.089 16.64 104.017 16.496 104.017 16.352C104.017 16.208 104.089 16.088 104.185 16.064C105.409 15.776 106.201 15.392 106.969 15.104C106.993 15.104 106.993 15.08 107.017 15.08C107.089 15.08 107.161 15.176 107.161 15.248C107.161 15.536 106.993 16.352 106.993 18.512V30.512ZM114.151 22.808C112.807 22.808 111.703 24.104 111.703 24.728C111.703 24.92 111.823 25.088 112.159 25.088H114.127C114.823 25.088 115.375 25.064 115.879 24.968C116.047 24.944 116.119 24.56 116.119 24.296C116.119 23.336 115.087 22.808 114.151 22.808ZM114.535 22.064C116.383 22.064 117.679 22.976 117.679 24.752C117.679 25.472 117.463 25.832 116.839 25.832H111.847C111.463 25.832 111.247 25.904 111.247 26.72C111.247 28.88 112.711 30.896 114.871 30.896C115.471 30.896 116.551 30.632 117.175 29.816C117.247 29.744 117.367 29.648 117.439 29.648C117.607 29.648 117.631 29.936 117.583 30.128C117.343 30.968 115.999 32.336 113.791 32.336C111.607 32.336 109.759 30.32 109.759 27.128C109.759 24.416 111.823 22.064 114.535 22.064Z"
    fill="black"
  />
  <defs>
    <clipPath id="clip">
      <rect height="48" fill="white" width="48" />
    </clipPath>
  </defs>
</svg>