<svg width="96" height="96" viewBox="0 0 96 96" fill="none" xmlns="http://www.w3.org/2000/svg">
<path d="M65.9855 0C72.6129 0 77.9855 5.37258 77.9855 12C77.9855 18.6274 72.6129 24 65.9855 24H49.9855L49.9844 48.532L81.6265 30.268L83.0906 24.8039L89.0906 35.1962L83.6265 33.7321L51.9884 52L83.6265 70.2678L89.0906 68.8037L83.0906 79.196L81.6265 73.7319L49.9844 55.46L49.9855 92L53.9855 96H41.9855L45.9855 92L45.9844 55.464L14.3445 73.7321L12.8804 79.1962L6.88037 68.8039L12.3445 70.268L43.9844 51.996L12.3445 33.7319L6.88038 35.196L12.8804 24.8037L14.3445 30.2678L45.9844 48.532L45.9855 4L41.9855 0H65.9855ZM65.9855 4H49.9855V20H65.9855C70.4038 20 73.9855 16.4183 73.9855 12C73.9855 7.58172 70.4038 4 65.9855 4Z" fill="black"/>
</svg>
