<svg width="101" height="22" viewBox="0 0 101 22" fill="none" xmlns="http://www.w3.org/2000/svg">
<g clip-path="url(#clip0_1_283)">
<path fill-rule="evenodd" clip-rule="evenodd" d="M0 0H18V2C16.8954 2 16 2.89543 16 4V6H14V11.4384C14 12.65 13.1754 13.7061 12 14V7L10 7.5V12.4384C10 13.65 9.17541 14.7061 8 15V8L6 8.5V13.4384C6 14.65 5.17541 15.7061 4 16V6H2V4C2 2.89543 1.10457 2 0 2V0ZM4 16V22H2V18.5616C2 17.35 2.82459 16.2939 4 16ZM8 15V22H6V17.5616C6 16.35 6.82459 15.2939 8 15ZM12 14V22H10V16.5616C10 15.35 10.8246 14.2939 12 14Z" fill="#BF3030"/>
</g>
<path d="M24 16.826H26.3808L27.2434 14.3373H32.5054L33.368 16.826H35.7661L31.3322 4.64391H28.4339L24 16.826ZM27.8473 12.6319L29.814 6.99331H29.9521L31.9188 12.6319H27.8473Z" fill="#332E29"/>
<path d="M39.6682 16.9478C40.134 16.9478 40.5653 16.8956 40.9449 16.7912V15.1205C40.6171 15.1553 40.4618 15.1553 40.2548 15.1553C39.3232 15.1553 39.0816 14.7202 39.0816 13.9371V9.51673H40.8414V7.77644H39.0816V5.46185H36.8733V7.77644H35.3724V9.51673H36.8733V14.2851C36.8733 16.1995 37.9775 16.9478 39.6682 16.9478Z" fill="#332E29"/>
<path d="M44.4857 12.6145C44.4857 10.4913 45.7106 9.62115 47.1943 9.62115C47.4186 9.62115 47.6256 9.63855 47.8844 9.67336V7.79384C47.6428 7.72423 47.4013 7.70683 47.1943 7.70683C45.6761 7.70683 44.8307 8.7162 44.5374 9.9344H44.4857V7.77644H42.2774V16.826H44.4857V12.6145Z" fill="#332E29"/>
<path d="M49.1345 16.826H51.3428V7.77644H49.1345V16.826ZM48.9792 5.25301C48.9792 5.96653 49.5658 6.50602 50.2387 6.50602C50.8942 6.50602 51.4808 5.96653 51.4808 5.25301C51.4808 4.53949 50.8942 4 50.2387 4C49.5658 4 48.9792 4.53949 48.9792 5.25301Z" fill="#332E29"/>
<path d="M55.4032 12.9451V7.77644H53.1949V13.4672C53.1949 15.921 54.5578 17 56.3175 17C58.2153 17 59.0779 15.747 59.2504 14.9639H59.3195V16.826H61.5277V7.77644H59.3195V12.9451C59.3195 14.4244 58.4396 15.1553 57.2319 15.1553C56.0415 15.1553 55.4032 14.4244 55.4032 12.9451Z" fill="#332E29"/>
<path d="M74.7917 11.6573V16.826H77V11.1352C77 8.68139 75.7061 7.60241 73.9808 7.60241C72.2038 7.60241 71.2722 8.89023 71.0997 9.69076C70.6856 8.24632 69.616 7.60241 68.3566 7.60241C66.7004 7.60241 65.8032 8.85542 65.6652 9.63855H65.5962V7.77644H63.3879V16.826H65.5962V11.6573C65.5962 10.178 66.3726 9.44712 67.4249 9.44712C68.4946 9.44712 69.0812 10.178 69.0812 11.6573V16.826H71.2895V11.6573C71.2895 10.178 72.0658 9.44712 73.1182 9.44712C74.1879 9.44712 74.7917 10.178 74.7917 11.6573Z" fill="#332E29"/>
<g clip-path="url(#clip1_1_283)">
<path fill-rule="evenodd" clip-rule="evenodd" d="M101 0H83V2C84.1046 2 85 2.89543 85 4V6H87V11.4384C87 12.65 87.8246 13.7061 89 14V7L91 7.5V12.4384C91 13.65 91.8246 14.7061 93 15V8L95 8.5V13.4384C95 14.65 95.8246 15.7061 97 16V6H99V4C99 2.89543 99.8954 2 101 2V0ZM97 16V22H99V18.5616C99 17.35 98.1754 16.2939 97 16ZM93 15V22H95V17.5616C95 16.35 94.1754 15.2939 93 15ZM89 14V22H91V16.5616C91 15.35 90.1754 14.2939 89 14Z" fill="#BF3030"/>
</g>
<defs>
<clipPath id="clip0_1_283">
<rect width="18" height="22" fill="white"/>
</clipPath>
<clipPath id="clip1_1_283">
<rect width="18" height="22" fill="white" transform="matrix(-1 0 0 1 101 0)"/>
</clipPath>
</defs>
</svg>
