<svg width="150" height="48" viewBox="0 0 150 48" fill="none" xmlns="http://www.w3.org/2000/svg">
<g clip-path="url(#clip0_330_2)">
<path d="M12.9285 24.4138C12.9195 24.4138 12.9121 24.4004 12.9002 24.3989C12.7571 24.4034 12.8897 24.4093 12.9285 24.4138Z" fill="#121A30"/>
<path d="M0 0L0.612378 2.04759V33.2314C0.612346 35.0691 1.16267 36.8644 2.19182 38.3838C3.22096 39.9032 4.68132 41.0764 6.38304 41.751L16.8963 45.9135C17.9584 46.3337 18.9773 46.8565 19.9388 47.4746L20.7508 47.997L21.5629 47.4746C22.5243 46.8565 23.5433 46.3337 24.6054 45.9135L35.1186 41.7465C36.8204 41.0719 38.2807 39.8987 39.3099 38.3793C40.339 36.8599 40.8894 35.0646 40.8893 33.2269V2.04759L41.5017 0H0ZM28.6462 19.9565V20.0298C28.6462 20.0882 28.6462 20.1451 28.6462 20.2019C28.6461 20.6398 28.6097 21.0768 28.5374 21.5086C28.5255 21.585 28.5121 21.6583 28.4972 21.7361C28.4823 21.814 28.4689 21.8738 28.4525 21.9427L27.7895 21.9651L27.4244 21.1225C27.4349 21.0536 27.4438 20.9848 27.4513 20.9144C27.4587 20.8441 27.4602 20.8036 27.4647 20.7468V20.6929C27.4766 20.5312 27.484 20.3681 27.484 20.2034C27.4837 19.8693 27.4588 19.5356 27.4095 19.2051C27.3976 19.1273 27.3842 19.0554 27.3693 18.9731C27.0555 17.2511 26.0866 15.7195 24.668 14.7028C24.5741 14.4798 24.4951 14.2897 24.4341 14.1415L24.3759 13.9918C24.215 13.6027 24.078 13.2539 23.9439 12.9441C25.2657 13.5376 26.4013 14.4823 27.2281 15.6764C28.0549 16.8704 28.5416 18.2685 28.6358 19.72C28.6402 19.7948 28.6432 19.8696 28.6462 19.9565ZM28.9874 24.4468V24.4243C28.8594 24.408 28.7305 24.3995 28.6015 24.3989C28.5898 24.3995 28.5784 24.4024 28.5679 24.4076C28.5574 24.4127 28.5481 24.4199 28.5404 24.4288C28.5349 24.4395 28.5321 24.4513 28.5321 24.4632C28.5321 24.4752 28.5349 24.487 28.5404 24.4977C29.1766 25.9525 29.7905 27.3281 30.3641 28.5884C30.0772 29.4687 29.6051 30.2767 28.98 30.9577C28.2484 29.1392 27.5272 27.3745 26.8359 25.719L26.2772 24.3824C26.272 24.3699 26.2633 24.3591 26.2522 24.3514C26.2411 24.3437 26.2281 24.3394 26.2146 24.339L25.1552 24.3181C24.9621 23.6447 24.6842 22.9989 24.3283 22.3962L25.328 22.3782C25.3394 22.3776 25.3504 22.3742 25.3602 22.3685C25.3701 22.3628 25.3784 22.3549 25.3847 22.3453C25.3901 22.3352 25.393 22.3239 25.393 22.3124C25.393 22.3009 25.3901 22.2896 25.3847 22.2795C25.0673 21.5311 24.7723 20.8321 24.4907 20.184C25.3214 20.2114 26.1386 20.4031 26.8955 20.7483L27.5555 22.269C27.562 22.2811 27.5714 22.2913 27.5828 22.2986C27.5943 22.3059 27.6075 22.3102 27.6211 22.3109L28.4659 22.284L28.9829 22.2675V24.4303C29.056 24.4363 28.9815 24.4468 28.9815 24.4468H28.9874ZM26.4545 25.6876C26.1497 26.0062 25.8198 26.2995 25.4681 26.5647C25.4654 26.0919 25.422 25.6201 25.3385 25.1548C25.5009 25.0051 25.6603 24.8359 25.8153 24.6593H26.0253C26.1734 25.0046 26.3179 25.3473 26.4589 25.6876H26.4545ZM19.1536 20.1136C18.6179 19.9529 18.0643 19.8599 17.5057 19.8367C17.6755 19.4401 17.8365 19.0629 17.9914 18.7037C18.8065 18.7827 19.6044 18.9893 20.356 19.3159C19.9351 19.546 19.5352 19.8129 19.161 20.1136H19.1536ZM20.7866 19.4805L21.0116 19.3742C21.8165 19.0069 22.6774 18.7787 23.558 18.6992L23.7606 18.6827C24.558 18.6316 25.3586 18.7007 26.1356 18.8878L26.371 18.9491C26.6094 19.015 26.8493 19.0988 27.0832 19.1826C27.1377 19.5197 27.1651 19.8605 27.1652 20.2019C27.1652 20.2962 27.1652 20.389 27.1652 20.4818L27.1384 20.4684C27.0519 20.4285 26.964 20.3895 26.8746 20.3516C26.0636 20.0094 25.193 19.8323 24.3134 19.8307H24.2821H24.1525H24.1033C23.497 19.8461 22.8955 19.9438 22.3153 20.1211L22.0888 20.196C21.6108 20.3617 21.153 20.5811 20.724 20.8501C20.6614 20.889 20.5974 20.9294 20.5348 20.9713C20.0718 21.2847 19.6485 21.6536 19.2743 22.0699C18.7856 22.0699 18.2939 22.0609 17.8037 22.0534C18.2171 21.4601 18.7094 20.9263 19.2668 20.4669C19.316 20.425 19.3682 20.3861 19.4158 20.3456L19.4501 20.3187C19.8668 19.9954 20.3145 19.7146 20.7866 19.4805ZM17.7754 18.3893L17.6904 18.5854L17.1392 19.8727L17.0527 20.0762C16.7652 20.7513 16.4567 21.4772 16.1245 22.2645C16.119 22.2746 16.1161 22.2859 16.1161 22.2974C16.1161 22.3089 16.119 22.3202 16.1245 22.3303C16.1307 22.3399 16.1391 22.3478 16.1489 22.3535C16.1587 22.3593 16.1698 22.3626 16.1811 22.3633L17.303 22.3842H17.5355C18.0674 22.3917 18.5978 22.3992 19.1268 22.4022H19.3905C20.2919 22.4022 21.1904 22.4022 22.0725 22.4022C22.5491 22.9567 22.9281 23.589 23.1929 24.2717C21.5226 24.2552 19.842 24.2537 18.1926 24.2717H17.9795C17.5191 24.2717 17.0602 24.2836 16.6072 24.2911L15.819 24.3061C15.0716 23.4074 14.5832 22.3204 14.4065 21.1629L14.7224 20.4354C14.9578 19.8891 15.1903 19.3533 15.4108 18.8384L15.5091 18.6094C16.1632 17.0916 16.7279 15.7655 17.09 14.9064C17.8873 14.3489 18.8003 13.9809 19.76 13.8302C19.2698 14.9303 18.5993 16.4615 17.7709 18.3893H17.7754ZM17.829 24.6219C17.7126 25.005 17.6298 25.3977 17.5817 25.7954C17.2066 25.5791 16.8541 25.3254 16.5298 25.038C16.5566 24.9048 16.5864 24.7716 16.6192 24.6399C17.0135 24.6329 17.4153 24.6269 17.8245 24.6219H17.829ZM15.5017 24.4393C15.5553 24.5052 15.6075 24.5695 15.6626 24.6324C15.8286 24.8247 16.0052 25.0076 16.1915 25.1802C16.2482 25.2341 16.3077 25.2865 16.3673 25.3299C16.7432 25.6549 17.1534 25.9375 17.5906 26.1726C17.6547 26.207 17.7202 26.2399 17.7858 26.2729C18.6936 26.7218 19.6906 26.9591 20.7024 26.9671C21.7142 26.9751 22.7147 26.7537 23.6295 26.3192C23.6295 26.4105 23.6295 26.5019 23.6295 26.5947C23.6289 26.9371 23.601 27.279 23.546 27.617C21.7231 28.3108 19.709 28.3028 17.8916 27.5945C17.826 27.5691 17.762 27.5451 17.6994 27.5182C17.2254 27.3173 16.7714 27.0717 16.3435 26.7847C16.2899 26.7473 16.2347 26.7084 16.1826 26.6695L16.1409 26.6411C15.734 26.3457 15.3554 26.013 15.01 25.6472L14.9906 25.6247C14.9489 25.5813 14.9072 25.5379 14.8669 25.4915C14.0212 24.5447 13.4142 23.4077 13.0969 22.1762C13.0849 22.1313 13.076 22.0864 13.0656 22.0415L13.0507 21.9756C13.0358 21.9068 13.0194 21.8379 13.0045 21.7691C13.3292 21.4815 13.6822 21.2277 14.0579 21.0117C14.0579 21.0521 14.0683 21.0925 14.0728 21.1329C14.0907 21.2527 14.11 21.3709 14.1324 21.4892C14.3418 22.5694 14.8103 23.582 15.4972 24.4393H15.5017ZM23.8649 27.822C23.8783 27.7487 23.8917 27.6723 23.9021 27.6005C23.9514 27.27 23.9763 26.9363 23.9766 26.6021C23.9766 26.4375 23.9766 26.2743 23.9573 26.1127V26.0783C23.9573 26.0184 23.9573 25.96 23.9439 25.9017C23.8954 25.4359 23.799 24.9764 23.6563 24.5306C23.6339 24.4648 23.6131 24.3989 23.5892 24.333C23.3263 23.5918 22.9365 22.9024 22.4375 22.2959C22.3853 22.2331 22.3317 22.1717 22.2691 22.1013C21.9154 21.7002 21.5152 21.343 21.0771 21.0371C21.4598 20.815 21.8643 20.6329 22.284 20.4938C22.8649 20.9777 23.3736 21.5428 23.7949 22.1717C23.8261 22.2181 23.8559 22.266 23.8857 22.3124L23.917 22.3618C24.315 22.9932 24.622 23.678 24.8289 24.3959L24.8423 24.4438C24.8572 24.4917 24.8706 24.5411 24.884 24.5935C24.9257 24.7536 24.9615 24.9168 24.9928 25.0814C25.0077 25.1533 25.0196 25.2311 25.033 25.2985C25.1037 25.7304 25.1396 26.1674 25.1403 26.6051C25.1403 26.6695 25.1403 26.7324 25.1403 26.7967V26.8506C25.1403 26.9269 25.1403 27.0003 25.1314 27.0796C25.0632 28.1642 24.7748 29.2233 24.2838 30.1917C23.7928 31.1601 23.1097 32.0173 22.2766 32.7105C21.8568 32.5714 21.4524 32.3893 21.0697 32.1671C22.5318 31.1431 23.5343 29.5823 23.8604 27.822H23.8649ZM14.1562 8.55556L14.2948 8.57202C14.3052 8.57202 18.1032 8.76361 20.3113 8.80103H21.1904C23.3985 8.76361 27.1965 8.57352 27.2069 8.57202L27.3455 8.55556V10.901L27.2099 10.8845C27.1935 10.8845 23.9111 10.684 23.0916 10.684C23.012 10.6825 22.9324 10.6855 22.8532 10.6929C22.8436 10.6939 22.8343 10.6967 22.8259 10.7014C22.8174 10.706 22.81 10.7123 22.804 10.7199C22.7982 10.7274 22.794 10.7361 22.7917 10.7454C22.7894 10.7547 22.789 10.7643 22.7906 10.7738C22.8387 10.9928 22.9045 11.2076 22.9873 11.4159C23.0767 11.6614 23.2033 11.9862 23.4119 12.501L23.5088 12.739C23.6325 13.0459 23.7755 13.3916 23.9349 13.7868L24.3968 14.9034C24.7499 15.7416 25.2908 17.0228 25.9315 18.4956C25.3854 18.3819 24.8293 18.3243 24.2716 18.3235C24.1018 18.3235 23.923 18.3235 23.7114 18.3445C22.8621 16.3672 22.1782 14.8121 21.6806 13.7239L21.5852 13.5174C21.2872 12.8857 21.0742 12.4307 20.9296 12.1703C20.8805 12.079 20.8417 12.0206 20.809 11.9652C20.8017 11.9561 20.7923 11.949 20.7817 11.9446C20.771 11.9401 20.7594 11.9385 20.7479 11.9398C19.864 11.9389 18.9859 12.0825 18.1479 12.3648C18.3133 11.9547 18.4295 11.6539 18.5144 11.4234C18.5979 11.2153 18.6637 11.0005 18.7111 10.7813C18.7131 10.7718 18.7129 10.7621 18.7106 10.7527C18.7083 10.7434 18.7039 10.7347 18.6977 10.7274C18.6917 10.7198 18.6843 10.7135 18.6758 10.7089C18.6674 10.7042 18.6581 10.7014 18.6485 10.7004C18.5693 10.693 18.4897 10.69 18.4101 10.6915C17.5906 10.6915 14.3082 10.8905 14.2933 10.892L14.1562 10.9085V8.55556ZM17.7068 12.8767C17.7873 12.8423 17.8692 12.8094 17.9527 12.7794C18.8101 12.4529 19.7178 12.2796 20.6346 12.2675H20.7061C20.7538 12.3678 20.8134 12.5235 20.8805 12.6986C20.9639 12.9141 21.0637 13.1776 21.1785 13.447C20.849 13.4224 20.5181 13.4254 20.1891 13.456C20.1146 13.456 20.0401 13.468 19.9641 13.4769C18.9559 13.5933 17.9875 13.9399 17.1332 14.4903C17.0319 14.5546 16.9335 14.622 16.8352 14.6908C15.4191 15.6999 14.4472 17.2207 14.1234 18.9342C13.6877 19.1128 13.2679 19.3286 12.8689 19.5793C12.989 18.1247 13.5034 16.731 14.3562 15.5494C15.2091 14.3678 16.3679 13.4435 17.7068 12.8767ZM10.2659 22.8512C10.327 22.7375 10.3911 22.6237 10.4581 22.513C10.5252 22.4022 10.6071 22.2765 10.6801 22.1627C10.7144 22.1103 10.7502 22.0609 10.7859 22.013L10.8142 21.9756C11.317 21.2719 11.9311 20.6556 12.632 20.1511L12.6633 20.1286C12.7169 20.0897 12.7706 20.0508 12.8257 20.0133C13.2522 19.7249 13.7058 19.4793 14.1801 19.2799L14.3425 19.2156L14.3842 19.1991C14.5853 19.1213 14.7895 19.0494 14.9936 18.9911L14.3499 20.4878L14.2531 20.5357C14.189 20.5671 14.1264 20.5986 14.0653 20.6315C13.6286 20.8666 13.2189 21.1492 12.8436 21.4742C12.7859 21.5221 12.7293 21.572 12.6737 21.6239C12.562 21.7271 12.4547 21.8349 12.3489 21.9457C12.2908 22.0085 12.2327 22.0714 12.1761 22.1358C11.5682 22.8258 11.1077 23.6337 10.8232 24.5097C10.8008 24.574 10.7814 24.6399 10.7621 24.7072C10.39 25.9744 10.3968 27.3235 10.7814 28.5869C10.5391 29.1187 10.3151 29.6057 10.1095 30.0477C9.59173 28.9749 9.3247 27.7974 9.32872 26.6051C9.32881 25.2954 9.65073 24.006 10.2659 22.8512ZM11.8051 32.7659C11.5294 33.4589 11.3432 33.9318 11.2746 34.113L11.1971 34.3045L8.96218 33.4409L8.83107 33.3855L8.90557 33.2628C9.07691 32.9799 9.56711 31.9875 10.184 30.6734L10.2868 30.4548C10.5058 29.9833 10.7487 29.4595 11.0109 28.8847L11.1331 28.6183C11.7201 27.3311 12.337 25.9465 12.9687 24.5022C12.9742 24.4918 12.9771 24.4802 12.9771 24.4685C12.9771 24.4567 12.9742 24.4452 12.9687 24.4348C12.9687 24.4258 12.9508 24.4258 12.9434 24.4213C12.8978 24.4245 12.852 24.4245 12.8063 24.4213C12.713 24.417 12.6195 24.4235 12.5277 24.4408V22.2525L12.7855 22.2615C13.121 23.5601 13.7646 24.7577 14.6613 25.752C13.9685 27.4194 13.2399 29.2035 12.4949 31.0595L12.413 31.2646C12.2178 31.7495 12.042 32.1881 11.89 32.5698L11.8051 32.7659ZM17.23 34.538C15.3882 34.5368 13.6044 33.8899 12.1865 32.709L12.6454 31.5594C13.504 32.3636 14.5573 32.9279 15.7004 33.1963C16.8435 33.4646 18.0366 33.4277 19.161 33.0891C19.5378 33.39 19.9401 33.657 20.3635 33.8869C19.3747 34.3182 18.308 34.5399 17.23 34.538ZM29.3539 32.6761C28.2132 33.6396 26.8243 34.2591 25.3477 34.463C23.8712 34.667 22.3674 34.447 21.0101 33.8286L20.7851 33.7223C20.3115 33.4873 19.8623 33.2055 19.4441 32.8811L19.3994 32.8467C19.3518 32.8092 19.3041 32.7718 19.2504 32.7329C18.4288 32.053 17.752 31.2138 17.2602 30.2654C16.7684 29.317 16.4719 28.2789 16.3882 27.2128C16.7871 27.4643 17.2068 27.6806 17.6428 27.8594C17.8118 28.7423 18.1531 29.5829 18.6468 30.3327C19.1406 31.0825 19.7772 31.7268 20.5199 32.2285C20.581 32.2704 20.6451 32.3108 20.7076 32.3497C21.1368 32.6184 21.5946 32.8378 22.0725 33.0038L22.3004 33.0787C23.4456 33.4303 24.6635 33.4682 25.8281 33.1885C26.9927 32.9088 28.0618 32.3216 28.9248 31.4876C28.9755 31.4397 29.0262 31.3903 29.0738 31.3379C29.7596 30.6379 30.2871 29.7976 30.6204 28.8742C30.6517 28.7844 30.6815 28.6961 30.7113 28.6033C31.1028 27.3338 31.1126 25.9764 30.7396 24.7012C30.7203 24.6354 30.7009 24.568 30.6785 24.5037C30.397 23.6307 29.9406 22.8249 29.3376 22.1358C29.2809 22.0714 29.2228 22.007 29.1647 21.9457C29.0664 21.8409 28.9651 21.7391 28.8667 21.6463C28.9483 21.1812 28.9912 20.7101 28.9949 20.2379C29.6492 20.7272 30.2246 21.3148 30.7009 21.9801L30.7337 22.0265C30.7664 22.0729 30.8007 22.1193 30.832 22.1657C30.9095 22.281 30.981 22.3992 31.054 22.5174C31.127 22.6357 31.1851 22.742 31.2462 22.8557C31.8608 24.0096 32.1826 25.298 32.1834 26.6066C32.1861 27.8462 31.8971 29.0689 31.3401 30.1749L31.3103 30.2318C31.2835 30.2842 31.2566 30.3381 31.2283 30.3905C30.7884 31.205 30.2094 31.9355 29.5178 32.5488C29.4568 32.5922 29.4061 32.6341 29.3539 32.6775V32.6761ZM30.4178 34.2506L30.3045 34.2985L30.2152 34.0755C30.1392 33.8824 29.9648 33.4394 29.7145 32.8107C30.3708 32.2312 30.932 31.5513 31.3773 30.7961C31.9733 32.0504 32.4322 32.9904 32.5976 33.2643L32.6721 33.387L30.4178 34.2506Z" fill="#121A30"/>
<path d="M49.8619 11.1884V10.5896H51.4637V2.29752L50.0139 0.610657H51.5709L58.8331 9.14226V1.20937H57.2462V0.610657H61.1366V1.20937H59.5348V11.6479L52.1654 3.11625V10.6001H53.7523V11.1988L49.8619 11.1884Z" fill="#121A30"/>
<path d="M69.8827 3.85417V7.6859L68.7846 6.06041H66.2815V10.5896H70.4162L72.3844 8.06159L71.7586 11.1884H63.4595V10.5896H65.0612V1.20936H63.4595V0.610653H70.6605L71.4845 0.161621V3.31833L70.0809 1.20339H66.2815V5.46469H68.7846L69.8827 3.85417Z" fill="#121A30"/>
<path d="M79.8938 9.31444L81.9679 3.76591L81.0828 1.20644H79.8908V0.607727H84.2594V1.20644H82.3344L85.0506 9.28901L88.0112 1.20644H86.104V0.607727H90.0093V1.20644H88.713L84.7601 11.7677L82.2733 4.62506L79.5735 11.7677L75.637 1.20644H74.3407V0.607727H78.5976V1.20644H76.9035L79.8938 9.31444Z" fill="#121A30"/>
<path d="M98.4515 2.86185C98.4515 5.33003 103.853 4.88549 103.853 8.08859C103.853 10.0045 102.214 11.3381 100.175 11.3381C99.0624 11.3381 97.8719 10.9085 97.1239 10.235V7.8955C97.8406 9.7036 99.0013 10.684 100.45 10.684C101.701 10.684 102.708 9.88769 102.708 8.60047C102.708 5.73415 97.4144 6.48554 97.4144 3.28095C97.4144 1.76472 98.6064 0.461019 100.344 0.461019C101.132 0.466612 101.891 0.760922 102.479 1.28874L103.471 0.431091V3.70453C102.726 2.26464 101.716 1.11511 100.283 1.11511C99.2143 1.11511 98.4515 1.85003 98.4515 2.86185Z" fill="#121A30"/>
<path d="M112.018 0.607727L116.076 10.5897H117.373V11.1884H112.856V10.5897H114.764L113.375 7.12616H109.65L108.264 10.5897H110.14V11.1884H106.266V10.5897H107.549L111.195 1.71532L110.748 0.610705L112.018 0.607727ZM113.131 6.52446L111.514 2.50712L109.897 6.52296L113.131 6.52446Z" fill="#121A30"/>
<path d="M124.18 0.607727V1.20644H122.579V10.5897H124.18V11.1884H119.755V10.5897H121.36V1.20941H119.755V0.610705L124.18 0.607727Z" fill="#121A30"/>
<path d="M126.575 11.1884V10.5897H128.176V2.29757L126.724 0.607727H128.281L135.543 9.13933V1.20644H133.962V0.607727H137.852V1.20644H136.251V11.6449L128.881 3.11332V10.5972H130.468V11.1959L126.575 11.1884Z" fill="#121A30"/>
<path d="M140.282 3.42908V0.164612L141.106 0.613644H149.179L150.002 0.164612V3.42908L148.598 1.20638H145.767V10.5896H147.491V11.1883H142.815V10.5896H144.524V1.20936H141.693L140.282 3.42908Z" fill="#121A30"/>
<path d="M56.3969 18.319L61.0158 29.6645H62.4909V30.347H57.3505V29.6675H59.5259L57.9465 25.7295H53.715L52.1356 29.6675H54.2693V30.347H49.856V29.6675H51.3131L55.4597 19.5703L54.9561 18.316L56.3969 18.319ZM57.6634 25.0455L55.8233 20.4803L53.9847 25.0455H57.6634Z" fill="#121A30"/>
<path d="M64.8972 30.3471V29.6675H66.7195V20.2379L65.0701 18.322H66.8401L75.0991 28.0301V19.0015H73.2947V18.322H77.7184V19.0015H75.8962V30.8695L67.5166 21.1629V29.6675H69.3209V30.3471H64.8972Z" fill="#121A30"/>
<path d="M92.5526 24.0008C92.5526 27.852 89.2553 30.3441 85.0044 30.3441H80.3557V29.6646H82.1735V18.9986H80.3557V18.319H84.8256C89.3253 18.319 92.5526 20.41 92.5526 24.0008ZM83.5651 18.9986V29.6646H84.7571C88.631 29.6646 90.9852 27.4194 90.9852 24.0172C90.9852 20.8111 88.6087 18.9986 84.7273 18.9986H83.5651Z" fill="#121A30"/>
<path d="M100.724 30.3471H95.692V29.6675H97.5202V19.0015H95.692V18.322H100.359C103.082 18.322 105.182 19.2096 105.182 21.3545C105.182 23.1312 103.654 24.1594 101.712 24.4738L107.125 30.3471H105.304L100.168 24.5785H98.9014V29.6675H100.724V30.3471ZM98.9014 23.9334H100.306C102.319 23.9334 103.707 23.0967 103.707 21.4413C103.707 19.7859 102.319 19.0015 100.306 19.0015H98.9014V23.9334Z" fill="#121A30"/>
<path d="M116.741 22.013V26.3702L115.492 24.5231H112.646V29.6645H117.349L119.584 26.7892L118.87 30.3471H109.44V29.6675H111.261V19.0015H109.44V18.322H117.635L118.572 17.8161V21.4084L116.976 19.003H112.655V23.8481H115.501L116.741 22.013Z" fill="#121A30"/>
<path d="M128.118 28.2187L130.477 21.9083L129.471 18.9986H128.118V18.319H133.08V18.9986H130.896L133.983 28.1828L137.349 18.9986H135.179V18.319H139.621V18.9986H138.146L133.652 31.0072L130.821 22.8842L127.75 31.0072L123.28 18.9986H121.807V18.319H126.648V18.9986H124.717L128.118 28.2187Z" fill="#121A30"/>
<path d="M143.627 20.88C143.627 23.6864 149.769 23.1805 149.769 26.8237C149.769 29.003 147.913 30.5192 145.588 30.5192C144.32 30.5192 142.967 30.0298 142.118 29.2634V26.6051C142.933 28.6617 144.252 29.7768 145.9 29.7768C147.323 29.7768 148.468 28.8697 148.468 27.4059C148.468 24.1474 142.447 25.0006 142.447 21.3589C142.447 19.6332 143.8 18.1514 145.779 18.1514C146.676 18.1575 147.539 18.4923 148.208 19.0928L149.335 18.1169V21.8469C148.485 20.2004 147.34 18.9013 145.709 18.9013C144.495 18.8938 143.627 19.7305 143.627 20.88Z" fill="#121A30"/>
<path d="M53.5958 37.8564C54.1583 37.8489 54.7102 38.0099 55.1812 38.3189L55.8949 37.8564V40.1464C55.284 39.2229 54.6284 38.3503 53.5586 38.3503C52.4888 38.3503 51.4726 39.3397 51.4726 40.8574C51.4726 42.667 52.7108 43.6564 54.0235 43.6564C54.4055 43.6635 54.7849 43.5919 55.1383 43.4459C55.4917 43.2999 55.8116 43.0827 56.0781 42.8077C55.722 43.7791 54.7655 44.5515 53.4617 44.5515C51.8377 44.5515 50.2807 43.3361 50.2807 41.3573C50.2747 39.2514 51.9539 37.8564 53.5958 37.8564Z" fill="#121A30"/>
<path d="M69.0618 44.5484C67.3066 44.5484 65.675 43.1355 65.675 41.2032C65.675 39.2708 67.3066 37.8564 69.0618 37.8564C70.8169 37.8564 72.4395 39.2708 72.4395 41.2032C72.4395 43.1355 70.8095 44.5484 69.0618 44.5484ZM69.0618 44.0994C70.1122 44.0994 71.1477 42.902 71.1477 41.1972C71.1477 39.4923 70.1152 38.3024 69.0618 38.3024C68.0083 38.3024 66.9758 39.4909 66.9758 41.1972C66.9758 42.9035 68.0188 44.1054 69.0618 44.1054V44.0994Z" fill="#121A30"/>
<path d="M82.0662 38.4042V37.9551H85.1236V38.4042H84.1864V44.0021H86.1234L87.6521 42.206L87.2572 44.4511H82.0662V44.0021H83.0034V38.4042H82.0662Z" fill="#121A30"/>
<path d="M97.0732 38.4042V37.9551H100.132V38.4042H99.1935V44.0021H101.13L102.659 42.206L102.266 44.4511H97.0732V44.0021H98.0119V38.4042H97.0732Z" fill="#121A30"/>
<path d="M116.185 39.8366V42.3901L115.378 41.3423H114.186V44.0096H116.249L117.788 42.2135L117.393 44.4586H112.065V44.0096H113.004V38.4117H112.065V37.9626H116.757L117.264 37.6887V39.8665L116.128 38.4161H114.192V40.8948H115.383L116.185 39.8366Z" fill="#121A30"/>
<path d="M131.062 42.0039V41.5429H133.953V42.0039H133.165V43.5187H133.761C133.165 44.1398 132.099 44.5454 130.964 44.5454C129.125 44.5454 127.427 43.3585 127.427 41.2945C127.427 40.3899 127.781 39.5217 128.413 38.8775C129.045 38.2333 129.904 37.8649 130.805 37.8519C131.399 37.8463 131.983 38.0064 132.493 38.3144L133.224 37.8519V40.1419C132.615 39.2184 131.912 38.3458 130.823 38.3458C129.641 38.3458 128.722 39.3636 128.722 41.031C128.722 42.8795 129.979 44.038 131.302 44.038C131.538 44.0447 131.773 44.0097 131.997 43.9348V42.0024L131.062 42.0039Z" fill="#121A30"/>
<path d="M147.592 39.8366V42.3901L146.785 41.3423H145.593V44.0096H147.658L149.195 42.2135L148.802 44.4586H143.472V44.0096H144.411V38.4117H143.472V37.9626H148.164L148.671 37.6887V39.8665L147.536 38.4161H145.599V40.8948H146.791L147.592 39.8366Z" fill="#121A30"/>
</g>
<defs>
<clipPath id="clip0_330_2">
<rect width="150" height="48" fill="white"/>
</clipPath>
</defs>
</svg>
