<svg width="204" height="48" viewBox="0 0 204 48" fill="none" xmlns="http://www.w3.org/2000/svg">
<path d="M11.5 11.5C11.5 11.5 6.5 11.5 6 11C6.31476 11.6295 6.31476 12.3705 6 13C6.5 12.5 11.5 12.5 11.5 12.5C11.5 12.5 11.5 17.5 11 18C11.6295 17.6852 12.3705 17.6852 13 18C12.5 17.5 12.5 12.5 12.5 12.5C12.5 12.5 17.5 12.5 18 13C17.6852 12.3705 17.6852 11.6295 18 11C17.5 11.5 12.5 11.5 12.5 11.5C12.5 11.5 12.5 6.5 13 6C12.3705 6.31476 11.6295 6.31476 11 6C11.5 6.5 11.5 11.5 11.5 11.5Z" fill="#BF0000"/>
<path d="M35.5 11.5C35.5 11.5 30.5 11.5 30 11C30.3148 11.6295 30.3148 12.3705 30 13C30.5 12.5 35.5 12.5 35.5 12.5C35.5 12.5 35.5 17.5 35 18C35.6295 17.6852 36.3705 17.6852 37 18C36.5 17.5 36.5 12.5 36.5 12.5C36.5 12.5 41.5 12.5 42 13C41.6852 12.3705 41.6852 11.6295 42 11C41.5 11.5 36.5 11.5 36.5 11.5C36.5 11.5 36.5 6.5 37 6C36.3705 6.31476 35.6295 6.31476 35 6C35.5 6.5 35.5 11.5 35.5 11.5Z" fill="#BF0000"/>
<path d="M35.5 35.5C35.5 35.5 30.5 35.5 30 35C30.3148 35.6295 30.3148 36.3705 30 37C30.5 36.5 35.5 36.5 35.5 36.5C35.5 36.5 35.5 41.5 35 42C35.6295 41.6852 36.3705 41.6852 37 42C36.5 41.5 36.5 36.5 36.5 36.5C36.5 36.5 41.5 36.5 42 37C41.6852 36.3705 41.6852 35.6295 42 35C41.5 35.5 36.5 35.5 36.5 35.5C36.5 35.5 36.5 30.5 37 30C36.3705 30.3148 35.6295 30.3148 35 30C35.5 30.5 35.5 35.5 35.5 35.5Z" fill="#BF0000"/>
<path d="M11.5 35.5C11.5 35.5 6.5 35.5 6 35C6.31476 35.6295 6.31476 36.3705 6 37C6.5 36.5 11.5 36.5 11.5 36.5C11.5 36.5 11.5 41.5 11 42C11.6295 41.6852 12.3705 41.6852 13 42C12.5 41.5 12.5 36.5 12.5 36.5C12.5 36.5 17.5 36.5 18 37C17.6852 36.3705 17.6852 35.6295 18 35C17.5 35.5 12.5 35.5 12.5 35.5C12.5 35.5 12.5 30.5 13 30C12.3705 30.3148 11.6295 30.3148 11 30C11.5 30.5 11.5 35.5 11.5 35.5Z" fill="#BF0000"/>
<path d="M30 0C26.0274 0.6621 21.9726 0.662099 18 0C21 3 23 16 23 23C16 23 3 21 0 18C0.6621 21.9726 0.6621 26.0274 0 30C3 27 16 25 23 25C23 32 21 45 18 48C21.9726 47.3379 26.0274 47.3379 30 48C27 45 25 32 25 25C32 25 45 27 48 30C47.3379 26.0274 47.3379 21.9726 48 18C45 21 32 23 25 23C25 16 27 3 30 0Z" fill="#BF0000"/>
<path d="M67.6898 31.7404C67.6898 29.399 66.3989 28.4394 64.6102 28.4394C63.9094 28.4394 63.43 28.6697 63.43 29.2455V38.4C63.43 39.3212 63.7435 39.897 64.6655 40.0697C65.0896 40.1465 65.274 40.2424 65.274 40.4152C65.274 40.5687 65.0527 40.6263 64.7393 40.6263C63.7435 40.6263 63.6328 40.4919 62.9321 40.4919C61.9916 40.4919 61.5306 40.6263 60.5348 40.6263C60.2213 40.6263 60 40.5687 60 40.4152C60 40.2424 60.1844 40.1465 60.6085 40.0697C61.5306 39.897 61.9547 39.5515 61.9547 38.6111V30.5121C61.9547 29.3606 61.7519 28.7657 60.8298 28.5929C60.4057 28.5162 60.2213 28.3818 60.2213 28.2091C60.2213 28.0556 60.4426 27.998 60.7561 27.998C61.7519 27.998 61.8072 28.0172 62.5633 28.0172C63.3009 28.0172 64.0938 27.902 64.6102 27.902C67.3578 27.902 69.3494 29.2071 69.3494 31.2798C69.3494 33.6404 67.9664 35.6556 65.145 35.6556C64.6102 35.6556 64.3151 35.4444 64.3151 35.2909C64.3151 35.1949 64.4811 35.0798 64.6102 35.0798C64.7208 35.0798 64.9605 35.1758 65.4584 35.1758C66.9337 35.1758 67.6898 34.0051 67.6898 31.7404Z" fill="black" fill-opacity="0.5"/>
<path d="M72.6827 35.4636V39.2444C72.7012 39.7626 73.3097 39.9545 73.6785 40.0697C73.8814 40.1465 74.1027 40.2232 74.1027 40.4152C74.1027 40.5687 73.8629 40.5879 73.7338 40.5879C72.9962 40.5879 72.7749 40.4919 72.1295 40.4919C71.4841 40.4919 71.3734 40.5879 70.6358 40.5879C70.5067 40.5879 70.267 40.5687 70.267 40.4152C70.267 40.2232 70.4883 40.1465 70.6911 40.0697C71.0599 39.9545 71.3734 39.8586 71.3919 39.3404V35.2141C71.3919 34.5232 71.2444 33.9667 70.6358 33.8323C70.5436 33.8131 70.4514 33.698 70.4514 33.5828C70.4514 33.4677 70.5436 33.3717 70.6174 33.3525C71.5578 33.1222 72.1664 32.604 72.6643 32.297C72.6827 32.297 72.6827 32.2778 72.7012 32.2778C72.7565 32.2778 72.7934 32.3545 72.8118 32.4121C72.8118 32.5465 72.7934 33.2374 72.7565 33.8515C72.7565 33.8899 72.7565 33.8899 72.7749 33.8899C72.8487 33.8899 73.0884 33.5253 73.2175 33.4101C73.7892 32.8727 74.4715 32.5848 74.9141 32.5848C75.4304 32.5848 75.7992 32.8535 75.7992 33.199C75.7992 33.5828 75.4488 34.197 75.08 34.197C74.7665 34.197 74.3424 33.8515 73.9736 33.8515C73.3835 33.8515 72.6827 34.1778 72.6827 35.4636Z" fill="black" fill-opacity="0.5"/>
<path d="M79.819 33.1798C78.7863 33.1798 77.938 34.2162 77.938 34.7152C77.938 34.8687 78.0302 35.003 78.2884 35.003H79.8005C80.3353 35.003 80.7595 34.9838 81.1467 34.9071C81.2758 34.8879 81.3311 34.5808 81.3311 34.3697C81.3311 33.602 80.5382 33.1798 79.819 33.1798ZM80.114 32.5848C81.534 32.5848 82.5298 33.3141 82.5298 34.7343C82.5298 35.3101 82.3638 35.598 81.8843 35.598H78.0487C77.7536 35.598 77.5877 35.6556 77.5877 36.3081C77.5877 38.0354 78.7125 39.6475 80.3722 39.6475C80.8332 39.6475 81.6631 39.4364 82.1425 38.7838C82.1978 38.7263 82.29 38.6495 82.3454 38.6495C82.4744 38.6495 82.4929 38.8798 82.456 39.0333C82.2716 39.7051 81.2389 40.799 79.5424 40.799C77.8643 40.799 76.4443 39.1869 76.4443 36.6343C76.4443 34.4657 78.0302 32.5848 80.114 32.5848Z" fill="black" fill-opacity="0.5"/>
<path d="M86.3221 33.0838C85.6213 33.0838 85.1603 33.5828 85.1603 34.3505C85.1603 35.1182 86.1377 35.7131 86.7278 36.097C87.281 36.4616 88.4796 37.2293 88.4796 38.496C88.4796 39.8202 87.8711 40.799 85.8242 40.799C84.8284 40.799 83.9801 40.3576 83.8695 40.1081C83.7404 39.8394 83.6482 39.3788 83.6297 38.9374C83.6297 38.8222 83.7957 38.7646 83.9432 38.7646C84.0723 38.7646 84.2014 38.803 84.2198 38.899C84.3489 39.5515 85.1787 40.2808 85.9348 40.2808C86.82 40.2808 87.2257 39.7051 87.2257 38.9374C87.2257 38.2465 86.6356 37.7859 85.8242 37.1909C84.939 36.5384 84.0539 35.7899 84.0539 34.8495C84.0539 33.7556 84.7177 32.5848 86.5249 32.5848C87.2625 32.5848 87.7236 32.8343 87.908 33.0263C88.1293 33.3141 88.2215 33.9859 88.2215 34.5232C88.2215 34.5808 88.1846 34.6 88.1108 34.6C87.9264 34.6 87.4838 34.3697 87.4838 34.197C87.4654 33.6596 86.9306 33.0838 86.3221 33.0838Z" fill="black" fill-opacity="0.5"/>
<path d="M94.2376 40.204C95.6391 40.204 96.5058 38.7263 96.5058 36.7879C96.5058 35.3101 95.676 33.3717 93.9241 33.3717C93.4078 33.3717 92.5042 33.5828 92.0985 34.0434C91.8403 34.3313 91.7112 34.6576 91.7112 35.6747V37.997C91.7112 39.3404 92.9467 40.204 94.2376 40.204ZM90.4204 38.5152V29.6677C90.4204 28.996 90.1622 28.401 89.5536 28.2667C89.4614 28.2475 89.4061 28.1323 89.4061 28.0172C89.4061 27.902 89.4614 27.8061 89.5352 27.7869C90.4757 27.5566 91.0289 27.2495 91.619 27.0192C91.6374 27.0192 91.6374 27 91.6559 27C91.7112 27 91.7665 27.0768 91.7665 27.1343C91.7665 27.2303 91.7112 28.0747 91.7112 29.1495V33.0838C91.7112 33.4869 91.7112 33.698 91.8772 33.7172C92.7992 32.9111 93.9425 32.5848 94.5695 32.5848C96.4873 32.5848 97.8888 34.2929 97.8888 36.3657C97.8888 38.6111 96.598 40.799 93.8134 40.799C92.6701 40.799 91.3793 40.2424 91.1211 40.2424C90.8998 40.2424 90.6785 40.5879 90.5863 40.5879C90.4388 40.5879 90.2913 40.4727 90.2913 40.3576C90.2913 40.3192 90.4204 39.5323 90.4204 38.5152Z" fill="black" fill-opacity="0.5"/>
<path d="M98.4974 45.3091C98.4974 45.002 98.6265 44.7333 98.9953 44.7333C99.2719 44.7333 99.5301 44.8485 99.7329 44.8485C99.8804 44.8485 99.9911 44.7909 100.083 44.6374C100.471 43.9465 101.227 42.3152 101.761 40.8374C101.798 40.7222 101.817 40.5687 101.817 40.396C101.817 40.1848 101.798 39.9929 101.743 39.8394L99.6038 34.2162C99.4194 33.7556 99.1428 33.3909 98.774 33.2758C98.5711 33.199 98.3499 33.1222 98.3499 32.9303C98.3499 32.7768 98.5896 32.7576 98.7187 32.7576C99.4563 32.7576 99.4194 32.8535 100.065 32.8535C100.71 32.8535 100.729 32.7576 101.466 32.7576C101.614 32.7576 101.835 32.8152 101.835 32.9687C101.835 33.1606 101.503 33.3333 101.3 33.3909C101.042 33.4677 100.932 33.6404 100.932 34.0051C100.932 34.1586 101.024 34.4081 101.079 34.5424L102.536 38.304C102.647 38.5727 102.72 38.5535 102.813 38.2848L104.048 34.8687C104.122 34.696 104.196 34.3505 104.196 34.1586C104.196 33.6788 104.048 33.5253 103.827 33.4293C103.624 33.3333 103.292 33.1606 103.292 32.9687C103.292 32.8152 103.532 32.7576 103.661 32.7576C103.993 32.7576 104.288 32.8535 104.97 32.8535C105.652 32.8535 105.652 32.7576 106.058 32.7576C106.187 32.7576 106.427 32.7768 106.427 32.9303C106.427 33.1222 106.206 33.199 106.003 33.2758C105.634 33.3909 105.154 33.9475 104.915 34.5616L102.407 40.7798C102.333 40.9525 101.393 43.3707 100.637 45.2131C100.415 45.7313 99.9726 46 99.4379 46C98.9953 46 98.4974 45.7313 98.4974 45.3091Z" fill="black" fill-opacity="0.5"/>
<path d="M109.829 40.799C108.685 40.799 107.911 40.1081 107.911 38.5152V34.0626C107.911 33.8323 107.782 33.7747 107.21 33.7747C107.136 33.7747 106.989 33.5253 106.989 33.3909C106.989 33.3333 107.044 33.2758 107.081 33.2566C108.058 32.9687 108.851 31.5485 109.036 31.5485C109.146 31.5485 109.368 31.5677 109.349 31.7404L109.202 32.5848C109.165 32.7576 109.423 32.8535 109.663 32.8535H111.765C111.857 32.8535 111.949 33.0838 111.949 33.3141C111.949 33.5444 111.857 33.7747 111.765 33.7747H109.939C109.312 33.7747 109.202 33.7939 109.202 34.3121V37.9394C109.202 39.3596 109.847 39.7434 110.419 39.7434C111.138 39.7434 111.507 39.6091 111.802 39.3788C111.913 39.302 111.986 39.4747 111.986 39.6283C111.986 39.8394 110.954 40.799 109.829 40.799Z" fill="black" fill-opacity="0.5"/>
<path d="M116.07 33.1798C115.037 33.1798 114.189 34.2162 114.189 34.7152C114.189 34.8687 114.281 35.003 114.539 35.003H116.052C116.586 35.003 117.011 34.9838 117.398 34.9071C117.527 34.8879 117.582 34.5808 117.582 34.3697C117.582 33.602 116.789 33.1798 116.07 33.1798ZM116.365 32.5848C117.785 32.5848 118.781 33.3141 118.781 34.7343C118.781 35.3101 118.615 35.598 118.135 35.598H114.3C114.005 35.598 113.839 35.6556 113.839 36.3081C113.839 38.0354 114.964 39.6475 116.623 39.6475C117.084 39.6475 117.914 39.4364 118.394 38.7838C118.449 38.7263 118.541 38.6495 118.596 38.6495C118.726 38.6495 118.744 38.8798 118.707 39.0333C118.523 39.7051 117.49 40.799 115.793 40.799C114.115 40.799 112.695 39.1869 112.695 36.6343C112.695 34.4657 114.281 32.5848 116.365 32.5848Z" fill="black" fill-opacity="0.5"/>
<path d="M122.278 35.4636V39.2444C122.297 39.7626 122.905 39.9545 123.274 40.0697C123.477 40.1465 123.698 40.2232 123.698 40.4152C123.698 40.5687 123.458 40.5879 123.329 40.5879C122.592 40.5879 122.37 40.4919 121.725 40.4919C121.079 40.4919 120.969 40.5879 120.231 40.5879C120.102 40.5879 119.862 40.5687 119.862 40.4152C119.862 40.2232 120.084 40.1465 120.286 40.0697C120.655 39.9545 120.969 39.8586 120.987 39.3404V35.2141C120.987 34.5232 120.84 33.9667 120.231 33.8323C120.139 33.8131 120.047 33.698 120.047 33.5828C120.047 33.4677 120.139 33.3717 120.213 33.3525C121.153 33.1222 121.762 32.604 122.26 32.297C122.278 32.297 122.278 32.2778 122.297 32.2778C122.352 32.2778 122.389 32.3545 122.407 32.4121C122.407 32.5465 122.389 33.2374 122.352 33.8515C122.352 33.8899 122.352 33.8899 122.37 33.8899C122.444 33.8899 122.684 33.5253 122.813 33.4101C123.385 32.8727 124.067 32.5848 124.509 32.5848C125.026 32.5848 125.395 32.8535 125.395 33.199C125.395 33.5828 125.044 34.197 124.675 34.197C124.362 34.197 123.938 33.8515 123.569 33.8515C122.979 33.8515 122.278 34.1778 122.278 35.4636Z" fill="black" fill-opacity="0.5"/>
<path d="M126.704 29.6869C126.704 29.1303 127.109 28.7081 127.626 28.7081C128.16 28.7081 128.566 29.1303 128.566 29.6869C128.566 30.2242 128.16 30.6465 127.626 30.6465C127.109 30.6465 126.704 30.2242 126.704 29.6869ZM128.474 32.201C128.548 32.201 128.603 32.2394 128.603 32.297C128.529 33.0838 128.437 34.0242 128.437 34.8879V39.3404C128.437 39.8586 128.861 39.9545 129.23 40.0697C129.433 40.1465 129.654 40.2232 129.654 40.4152C129.654 40.5687 129.451 40.5879 129.285 40.5879C128.585 40.5879 128.437 40.4919 127.792 40.4919C127.146 40.4919 127.017 40.5879 126.298 40.5879C126.15 40.5879 125.929 40.5687 125.929 40.4152C125.929 40.2232 126.15 40.1465 126.353 40.0697C126.722 39.9545 127.146 39.8586 127.146 39.3404V35.1758C127.146 34.4848 126.906 33.9091 126.279 33.7747C126.187 33.7556 126.132 33.6404 126.132 33.5253C126.132 33.4293 126.187 33.3141 126.261 33.295C127.497 32.9879 128.326 32.201 128.474 32.201Z" fill="black" fill-opacity="0.5"/>
<path d="M136.313 39.9162C136.645 39.9162 136.848 39.8394 137.051 39.6475C137.162 39.5323 137.346 39.6667 137.346 39.8202C137.346 39.9737 136.571 40.799 135.871 40.799C134.82 40.799 134.654 39.801 134.506 39.801C134.266 39.801 133.75 40.7798 132.238 40.799C131.482 40.799 130.652 40.0313 130.652 39.2828C130.652 38.4768 131.095 37.9394 131.998 37.5556L133.879 36.7495C134.359 36.5384 134.377 36.5 134.395 35.9818L134.432 34.7535C134.451 34.101 134.008 33.5253 133.344 33.5253C132.902 33.5253 132.367 33.8707 132.219 34.1394C132.164 34.2354 132.146 34.3697 132.146 34.504C132.146 34.6 132.164 34.6768 132.164 34.7727C132.164 35.0414 131.131 35.4444 130.892 35.4444C130.781 35.4444 130.744 35.3293 130.744 35.2717C130.744 34.8687 131.021 34.3697 131.482 33.9475C132.054 33.4101 133.252 32.5848 134.23 32.5848C135.096 32.5848 135.76 33.3525 135.742 34.2929L135.649 38.4384C135.649 39.1869 135.779 39.9162 136.313 39.9162ZM132.127 38.8606C132.127 39.5899 132.681 39.9162 133.031 39.9162C133.51 39.9162 133.842 39.6667 134.137 39.398C134.266 39.2828 134.34 39.1101 134.359 38.6303L134.395 37.6899C134.414 37.402 134.377 37.2869 134.23 37.2869C134.174 37.2869 134.064 37.3061 133.971 37.3444C132.551 37.8434 132.127 38.4192 132.127 38.8606Z" fill="black" fill-opacity="0.5"/>
<path d="M142.517 33.5061C141.89 33.5061 141.282 33.6212 140.82 34.0051C140.599 34.1778 140.323 34.6 140.323 35.3869V39.3404C140.323 39.8586 140.747 39.9545 141.116 40.0697C141.318 40.1465 141.54 40.2232 141.54 40.4152C141.54 40.5687 141.318 40.5879 141.171 40.5879C140.433 40.5879 140.323 40.4919 139.677 40.4919C139.032 40.4919 138.921 40.5879 138.183 40.5879C138.036 40.5879 137.815 40.5687 137.815 40.4152C137.815 40.2232 138.036 40.1465 138.239 40.0697C138.608 39.9545 139.032 39.8586 139.032 39.3404V35.2141C139.032 34.5232 138.94 33.9667 138.313 33.8323C138.22 33.8131 138.165 33.698 138.165 33.5828C138.165 33.4677 138.22 33.3717 138.294 33.3525C139.253 33.1222 139.714 32.7192 140.341 32.2778C140.396 32.2778 140.47 32.3354 140.47 32.4121C140.47 32.5848 140.378 33.2758 140.378 33.6404C140.378 33.7556 140.378 33.8515 140.415 33.8707C141.263 33.0263 142.222 32.5848 143.384 32.5848C144.582 32.5848 145.468 33.7556 145.468 35.2525V39.3404C145.468 39.8586 145.892 39.9545 146.26 40.0697C146.463 40.1465 146.685 40.2232 146.685 40.4152C146.685 40.5687 146.463 40.5879 146.316 40.5879C145.578 40.5879 145.486 40.4919 144.841 40.4919C144.195 40.4919 144.066 40.5879 143.328 40.5879C143.199 40.5879 142.96 40.5687 142.96 40.4152C142.96 40.2232 143.181 40.1465 143.384 40.0697C143.753 39.9545 144.177 39.8586 144.177 39.3404V35.3101C144.177 34.197 143.513 33.5253 142.517 33.5061Z" fill="black" fill-opacity="0.5"/>
<path d="M161.613 37.901C161.723 37.6899 161.981 37.6131 162.074 37.5364C162.092 37.5172 162.092 37.5172 162.111 37.5172C162.184 37.5172 162.24 37.7091 162.24 37.8818C162.24 37.9394 162.221 37.997 162.221 38.0354C162.147 38.5152 161.889 39.5899 161.613 40.0313C161.52 40.1848 161.17 40.2808 160.709 40.4343C160.064 40.6455 158.717 40.8182 157.611 40.8182C154.255 40.8182 151.655 37.8242 151.655 34.3313C151.655 30.6081 154.79 27.8061 158.367 27.8061C158.957 27.8061 159.99 27.9212 160.322 28.0364C160.654 28.1515 161.354 28.3242 161.723 28.3818C161.871 28.401 161.945 28.6889 161.963 28.9576C162.037 29.5525 162.092 30.0515 162.111 31.0495C162.129 31.2222 162.092 31.5101 161.908 31.4909C161.705 31.4717 161.502 31.2222 161.428 30.7808C161.336 30.0131 161.004 29.5909 160.783 29.3798C160.598 29.1879 159.769 28.401 158.072 28.401C155.361 28.401 153.499 31.0495 153.499 33.8707C153.499 36.999 155.306 40.2232 158.183 40.2232C160.248 40.2232 161.133 38.8798 161.613 37.901Z" fill="black" fill-opacity="0.5"/>
<path d="M170.495 39.2253C170.495 39.7434 170.882 39.9545 171.251 40.0697C171.453 40.1465 171.675 40.2232 171.675 40.4152C171.675 40.5687 171.453 40.5879 171.306 40.5879C170.568 40.5879 170.513 40.4919 169.868 40.4919C169.222 40.4919 169.167 40.5879 168.429 40.5879C168.282 40.5879 168.06 40.5687 168.06 40.4152C168.06 40.2232 168.282 40.1465 168.485 40.0697C168.853 39.9545 169.204 39.7434 169.204 39.2253V35.3101C169.204 34.3505 168.282 33.5828 167.489 33.5828C167.028 33.5828 166.309 33.7172 165.958 34.0051C165.571 34.3313 165.46 34.6 165.46 35.3869V39.2828C165.479 39.801 165.792 39.9545 166.161 40.0697C166.364 40.1465 166.585 40.2232 166.585 40.4152C166.585 40.5687 166.364 40.5879 166.216 40.5879C165.479 40.5879 165.46 40.4919 164.815 40.4919C164.169 40.4919 164.059 40.5879 163.321 40.5879C163.192 40.5879 162.952 40.5687 162.952 40.4152C162.952 40.2232 163.174 40.1465 163.376 40.0697C163.745 39.9545 164.151 39.801 164.169 39.2828V29.6677C164.169 28.9768 163.967 28.401 163.34 28.2667C163.247 28.2475 163.192 28.1323 163.192 28.0172C163.192 27.902 163.247 27.8061 163.321 27.7869C164.262 27.5566 164.87 27.2495 165.46 27.0192C165.479 27.0192 165.497 27 165.497 27C165.571 27 165.589 27.0768 165.626 27.1343C165.626 27.3646 165.46 27.6909 165.46 29.7444V33.0838C165.46 33.3141 165.516 33.6788 165.608 33.7939C166.179 33.3525 167.231 32.5848 168.392 32.5848C169.591 32.5848 170.495 33.698 170.495 35.1949V39.2253Z" fill="black" fill-opacity="0.5"/>
<path d="M180.059 32.5657H180.096C180.262 32.5657 180.409 32.7576 180.317 32.9111C180.243 33.0455 180.169 33.9667 180.169 34.2737V38.3424C180.169 39.1293 180.206 39.6667 180.501 39.6667C180.686 39.6667 181.165 39.6475 181.35 39.6091C181.442 39.5899 181.626 39.6283 181.626 39.8586C181.626 40.0697 181.46 40.1273 181.368 40.1273C180.409 40.2616 179.745 40.5495 179.211 40.7798C179.137 40.8182 178.879 40.8949 178.768 40.8949C178.694 40.8949 178.713 40.8758 178.713 40.8182C178.713 40.5687 178.805 39.8778 178.805 39.5515V39.4364C177.846 40.4152 176.905 40.799 175.762 40.799C174.563 40.799 173.66 40.0121 173.66 38.5152V34.6192C173.66 34.0626 173.42 33.7556 172.867 33.5253C172.812 33.5061 172.627 33.4293 172.627 33.2374C172.627 32.9879 172.812 32.9303 172.904 32.9111C173.9 32.8727 174.084 32.7576 174.803 32.5848C174.988 32.5657 175.08 32.6616 175.061 32.8535C174.988 33.4485 174.951 33.7556 174.951 34.3313V38.0737C174.951 38.9949 175.707 39.8202 176.5 39.8202C177.127 39.8202 177.588 39.801 178.049 39.4364C178.325 39.2253 178.879 38.7838 178.879 37.997V34.4848C178.879 33.698 178.049 33.5444 177.68 33.5253C177.588 33.5253 177.256 33.4677 177.256 33.199C177.256 32.9687 177.606 32.9111 177.68 32.9111C179.542 32.8152 179.395 32.7576 180.059 32.5657Z" fill="black" fill-opacity="0.5"/>
<path d="M184.768 35.4636V39.2444C184.786 39.7626 185.395 39.9545 185.763 40.0697C185.966 40.1465 186.187 40.2232 186.187 40.4152C186.187 40.5687 185.948 40.5879 185.819 40.5879C185.081 40.5879 184.86 40.4919 184.214 40.4919C183.569 40.4919 183.458 40.5879 182.721 40.5879C182.592 40.5879 182.352 40.5687 182.352 40.4152C182.352 40.2232 182.573 40.1465 182.776 40.0697C183.145 39.9545 183.458 39.8586 183.477 39.3404V35.2141C183.477 34.5232 183.329 33.9667 182.721 33.8323C182.628 33.8131 182.536 33.698 182.536 33.5828C182.536 33.4677 182.628 33.3717 182.702 33.3525C183.643 33.1222 184.251 32.604 184.749 32.297C184.768 32.297 184.768 32.2778 184.786 32.2778C184.841 32.2778 184.878 32.3545 184.897 32.4121C184.897 32.5465 184.878 33.2374 184.841 33.8515C184.841 33.8899 184.841 33.8899 184.86 33.8899C184.933 33.8899 185.173 33.5253 185.302 33.4101C185.874 32.8727 186.556 32.5848 186.999 32.5848C187.515 32.5848 187.884 32.8535 187.884 33.199C187.884 33.5828 187.534 34.197 187.165 34.197C186.851 34.197 186.427 33.8515 186.058 33.8515C185.468 33.8515 184.768 34.1778 184.768 35.4636Z" fill="black" fill-opacity="0.5"/>
<path d="M194.117 34.4081C193.951 34.4081 193.748 34.3121 193.656 34.2162C193.047 33.5253 192.844 33.3141 191.922 33.3141C190.576 33.3141 189.894 34.7919 189.894 36.1929C189.894 38.0354 191.056 39.801 192.826 39.801C193.6 39.801 193.969 39.4939 194.449 38.8414C194.504 38.7838 194.559 38.7455 194.615 38.7455C194.725 38.7455 194.836 38.8798 194.836 39.0141C194.836 39.7242 193.361 40.799 191.775 40.799C189.912 40.799 188.621 39.0525 188.621 37.0758C188.621 34.7152 190.244 32.604 192.512 32.604C193.305 32.604 194.172 32.8152 194.725 33.5253C194.781 33.602 194.817 33.6788 194.817 33.7556C194.817 34.0818 194.301 34.4081 194.117 34.4081Z" fill="black" fill-opacity="0.5"/>
<path d="M202.82 39.2253C202.82 39.7434 203.207 39.9545 203.576 40.0697C203.779 40.1465 204 40.2232 204 40.4152C204 40.5687 203.779 40.5879 203.631 40.5879C202.894 40.5879 202.838 40.4919 202.193 40.4919C201.547 40.4919 201.492 40.5879 200.754 40.5879C200.607 40.5879 200.386 40.5687 200.386 40.4152C200.386 40.2232 200.607 40.1465 200.81 40.0697C201.179 39.9545 201.529 39.7434 201.529 39.2253V35.3101C201.529 34.3505 200.607 33.5828 199.814 33.5828C199.353 33.5828 198.634 33.7172 198.283 34.0051C197.896 34.3313 197.786 34.6 197.786 35.3869V39.2828C197.804 39.801 198.117 39.9545 198.486 40.0697C198.689 40.1465 198.91 40.2232 198.91 40.4152C198.91 40.5687 198.689 40.5879 198.542 40.5879C197.804 40.5879 197.785 40.4919 197.14 40.4919C196.495 40.4919 196.384 40.5879 195.646 40.5879C195.517 40.5879 195.278 40.5687 195.278 40.4152C195.278 40.2232 195.499 40.1465 195.702 40.0697C196.071 39.9545 196.476 39.801 196.495 39.2828V29.6677C196.495 28.9768 196.292 28.401 195.665 28.2667C195.573 28.2475 195.517 28.1323 195.517 28.0172C195.517 27.902 195.573 27.8061 195.646 27.7869C196.587 27.5566 197.195 27.2495 197.786 27.0192C197.804 27.0192 197.822 27 197.822 27C197.896 27 197.915 27.0768 197.951 27.1343C197.951 27.3646 197.786 27.6909 197.786 29.7444V33.0838C197.786 33.3141 197.841 33.6788 197.933 33.7939C198.505 33.3525 199.556 32.5848 200.718 32.5848C201.916 32.5848 202.82 33.698 202.82 35.1949V39.2253Z" fill="black" fill-opacity="0.5"/>
<path d="M60 22.2024C61.2596 21.9607 62.0106 21.9124 62.0106 20.2931V9.70695C62.0106 8.08761 61.2596 8.03927 60 7.79758V7.38671H65.4019C69.6169 7.38671 72.4511 8.64351 72.4511 11.858C72.4511 15.0242 69.6896 16.6435 64.9659 16.6435C64.5783 16.6435 64.5783 15.8943 64.9659 15.8943C68.8175 15.8943 70.392 14.4441 70.392 12.003C70.392 9.68278 68.9628 8.13595 65.6442 8.13595C64.1665 8.13595 63.8758 8.52266 63.8758 9.24773V20.2931C63.8758 21.9124 64.6268 21.9607 65.8864 22.2024V22.6133H60V22.2024Z" fill="black"/>
<path d="M73.8388 22.2024C75.0985 21.9607 75.8494 21.9124 75.8494 20.2931V9.70695C75.8494 8.08761 75.0985 8.03927 73.8388 7.79758V7.38671H79.483C83.6495 7.38671 85.975 8.71601 85.975 11.568C85.975 13.8399 84.4489 15.2417 81.324 15.6526C81.8569 15.7976 82.511 16.2326 83.2377 17.3686L84.8365 19.8097C85.7812 21.2115 86.7744 22.5891 88.0825 22.1782V22.6133C87.6707 22.855 87.5011 23 86.7986 23C85.1514 23 84.2551 22.2266 83.0924 20.4381L81.1302 17.4653C80.2824 16.2568 79.4346 15.8701 77.7147 15.7976V20.2931C77.7147 21.9124 78.4656 21.9607 79.7252 22.2024V22.6133H73.8388V22.2024ZM77.7147 15.0967H79.6768C82.8743 15.0967 84.0371 13.8157 84.0371 11.713C84.0371 9.5861 82.8501 8.13595 79.7495 8.13595C77.9811 8.13595 77.7147 8.52266 77.7147 9.24773V15.0967Z" fill="black"/>
<path d="M96.8093 22.9033C92.3279 22.9033 89.203 19.3988 89.203 15C89.203 10.6979 92.3279 7 96.9062 7C101.388 7 104.537 10.5529 104.537 14.8792C104.537 19.2538 101.388 22.9033 96.8093 22.9033ZM91.2621 14.2749C91.2621 18.9154 94.0962 22.1541 97.2211 22.1541C99.9827 22.1541 102.478 19.7372 102.478 15.6042C102.478 11.0363 99.6435 7.74925 96.4944 7.74925C93.7571 7.74925 91.2621 10.2145 91.2621 14.2749Z" fill="black"/>
<path d="M107.039 9.1994C106.555 8.08761 106.337 8.03927 105.077 7.79758V7.38671H110.673V7.79758C109.631 8.03927 108.662 8.06344 109.171 9.1994L113.943 20.2689L118.521 9.15106C118.982 8.06344 118.085 8.03927 117.044 7.79758V7.38671H121.477V7.79758C120.217 8.03927 119.854 8.01511 119.418 9.12689L113.749 22.7825H112.926L107.039 9.1994Z" fill="black"/>
<path d="M122.5 22.2024C123.759 21.9607 124.51 21.9124 124.51 20.2931V9.70695C124.51 8.08761 123.759 8.03927 122.5 7.79758V7.38671H128.386V7.79758C127.126 8.03927 126.375 8.08761 126.375 9.70695V20.2931C126.375 21.9124 127.126 21.9607 128.386 22.2024V22.6133H122.5V22.2024Z" fill="black"/>
<path d="M129.88 22.2024C131.14 21.9607 131.891 21.9124 131.891 20.2931V9.70695C131.891 8.08761 131.14 8.03927 129.88 7.79758V7.38671H135.427C140.054 7.38671 144.051 9.51359 144.051 14.9033C144.051 20.4139 140.151 22.6133 135.427 22.6133H129.88V22.2024ZM133.756 19.5196C133.756 21.1873 134.265 21.8399 136.106 21.8399C140.345 21.8399 141.944 19.3505 141.944 15.145C141.944 11.0121 140.321 8.16012 135.185 8.16012H133.756V19.5196Z" fill="black"/>
<path d="M145.564 22.2024C146.824 21.9607 147.575 21.9124 147.575 20.2931V9.70695C147.575 8.08761 146.824 8.03927 145.564 7.79758V7.38671H156.853L157.071 10.6979H156.538C156.32 8.98187 155.908 8.13595 154.164 8.13595H151.717C149.876 8.13595 149.44 8.30514 149.44 9.97281V14.565H151.596C154.527 14.565 154.818 14.0091 154.963 12.5347H155.351V17.3202H154.963C154.818 15.8459 154.527 15.29 151.596 15.29H149.44V20.0272C149.44 21.6949 149.876 21.864 151.717 21.864H153.655C155.569 21.864 156.465 21.1873 157.361 19.1088H157.894L156.901 22.6133H145.564V22.2024Z" fill="black"/>
<path d="M172.19 22.6133L162.477 9.75529V20.2931C162.477 21.9124 163.276 21.9607 164.657 22.2024V22.6133H159.521V22.2024C160.781 21.9607 161.58 21.9124 161.58 20.2931V9.70695C161.58 8.08761 160.781 8.03927 159.521 7.79758V7.38671H162.985L172.069 19.3021V9.70695C172.069 8.08761 171.27 8.03927 169.889 7.79758V7.38671H175.049V7.79758C173.789 8.03927 172.99 8.08761 172.99 9.70695V22.6133H172.19Z" fill="black"/>
<path d="M184.632 22.9033C180.005 22.9033 176.565 19.6647 176.565 14.9033C176.565 10.3837 179.714 7 184.922 7C187.078 7 188.677 7.58006 189.525 8.11178C189.525 9.15106 189.573 10.1903 189.694 11.3746H188.968C188.386 8.83686 186.57 7.74925 184.293 7.74925C181.095 7.74925 178.721 9.94864 178.721 14.1541C178.721 19.0604 181.87 21.864 185.48 21.864C186.57 21.864 188.556 21.5982 189.501 20.5347L189.912 20.9456C188.944 22.0091 187.054 22.9033 184.632 22.9033Z" fill="black"/>
<path d="M191.67 22.2024C192.93 21.9607 193.681 21.9124 193.681 20.2931V9.70695C193.681 8.08761 192.93 8.03927 191.67 7.79758V7.38671H202.958L203.176 10.6979H202.643C202.425 8.98187 202.014 8.13595 200.27 8.13595H197.823C195.982 8.13595 195.546 8.30514 195.546 9.97281V14.565H197.702C200.633 14.565 200.924 14.0091 201.069 12.5347H201.456V17.3202H201.069C200.924 15.8459 200.633 15.29 197.702 15.29H195.546V20.0272C195.546 21.6949 195.982 21.864 197.823 21.864H199.761C201.675 21.864 202.571 21.1873 203.467 19.1088H204L203.007 22.6133H191.67V22.2024Z" fill="black"/>
</svg>
