<svg width="151" height="36" viewBox="0 0 151 36" fill="none" xmlns="http://www.w3.org/2000/svg">
<g clip-path="url(#clip0_26_75)">
<path d="M21.9232 34.5307C21.8797 34.7887 21.6331 34.9618 21.3772 34.9073C18.2918 34.2502 15.4229 32.7561 13.0605 30.5712C10.5793 28.2766 8.75349 25.3093 7.78491 21.9976C6.81633 18.6859 6.74271 15.1587 7.57218 11.806C8.40164 8.45327 10.1019 5.40562 12.485 3L13.1089 3.67538C10.845 5.96072 9.22973 8.85598 8.44173 12.0411C7.65374 15.2262 7.72368 18.577 8.64383 21.7231C9.56399 24.8693 11.2985 27.6881 13.6556 29.8681C15.8975 31.9415 18.6196 33.36 21.5471 33.9853C21.7976 34.0388 21.9658 34.2781 21.9232 34.5307Z" fill="#6A8040"/>
<path fill-rule="evenodd" clip-rule="evenodd" d="M17 32.8696C15.2804 30.9483 12.7814 29.7391 9.99999 29.7391C7.2186 29.7391 4.71962 30.9483 3 32.8696C4.71962 34.7909 7.21861 36 10 36C12.7814 36 15.2804 34.7909 17 32.8696Z" fill="#6A8040"/>
<path fill-rule="evenodd" clip-rule="evenodd" d="M13.1304 30C15.0517 28.2804 16.2609 25.7814 16.2609 23C16.2609 20.2186 15.0518 17.7196 13.1304 16C11.2091 17.7196 10 20.2186 10 23C10 25.7814 11.2091 28.2804 13.1304 30Z" fill="#6A8040"/>
<path d="M7.68417 12.1593C8.69186 10.6176 9.06411 8.66992 8.54991 6.7509C8.03572 4.83188 6.73949 3.33125 5.09599 2.5C4.08829 4.04164 3.71604 5.98934 4.23024 7.90836C4.74444 9.82738 6.04066 11.328 7.68417 12.1593Z" fill="#6A8040"/>
<path d="M8.98689 24.9869C9.11617 22.6531 8.28939 20.2763 6.50656 18.4934C4.72373 16.7106 2.34688 15.8838 0.0131115 16.0131C-0.11617 18.3469 0.710604 20.7237 2.49344 22.5066C4.27627 24.2894 6.65312 25.1162 8.98689 24.9869Z" fill="#6A8040"/>
<path d="M7.51166 16.9883C7.39674 14.9139 8.13165 12.8011 9.71639 11.2164C11.3011 9.63165 13.4139 8.89674 15.4883 9.01165C15.6033 11.0861 14.8684 13.1989 13.2836 14.7836C11.6989 16.3684 9.58612 17.1033 7.51166 16.9883Z" fill="#6A8040"/>
<path d="M10.0102 6.9898C9.90965 5.17465 10.5527 3.32599 11.9393 1.93934C13.326 0.552694 15.1746 -0.0903528 16.9898 0.0101974C17.0904 1.82535 16.4473 3.67402 15.0607 5.06066C13.674 6.44731 11.8254 7.09035 10.0102 6.9898Z" fill="#6A8040"/>
</g>
<path d="M37.1524 29C41.1764 29 45.4313 27.4479 45.4313 23.2538C45.4313 18.9607 41.1434 17.6067 37.977 16.55C35.2723 15.6583 33.2273 14.7006 33.2273 12.2238C33.2273 10.5066 34.1839 8.72331 36.8555 8.72331C39.4612 8.72331 41.935 10.3745 43.0235 13.6769C43.1554 14.1062 43.2873 14.1723 43.5842 14.1723C44.7056 14.1723 44.7386 11.4973 43.8151 9.18564C42.2319 8.22795 40.0549 7.63352 37.6801 7.63352C33.0954 7.63352 30.2258 9.97822 30.2258 13.3467C30.2258 16.8142 33.0294 18.6635 36.6576 19.8854C39.5602 20.8431 42.1989 21.4705 42.1989 24.3766C42.1989 26.6883 40.6486 27.8442 38.2408 27.8772C35.1404 27.9102 32.5347 25.9948 31.4462 22.6924C31.3143 22.2631 31.1824 22.1971 30.8855 22.1971C29.7641 22.1971 29.7311 24.872 30.6546 27.1837C32.2378 28.1414 34.3488 29 37.1524 29Z" fill="#332E29"/>
<path d="M55.3913 28.8679C58.9535 28.8679 61.0645 26.7874 61.6252 25.4004L60.9985 24.905C59.91 26.5232 58.4917 26.9195 57.1064 26.9195C53.5442 26.9195 50.6416 24.3436 50.6416 19.9845C50.6416 16.55 52.2908 14.4695 54.9955 14.4695C57.3703 14.4695 58.0959 16.1537 58.2608 17.5407C58.3598 18.5314 58.9205 19.1258 59.8111 19.1258C60.8336 19.1258 61.4273 18.3993 61.4273 17.4416C61.4273 15.5923 59.2833 13.4788 55.6222 13.4788C51.4662 13.4788 47.5742 16.2197 47.5742 21.2064C47.5742 26.0609 51.2683 28.8679 55.3913 28.8679Z" fill="#332E29"/>
<path d="M77.7688 28.8679C78.6924 28.8679 79.6819 28.5046 80.0777 27.9102V27.4479C79.1212 27.646 78.4285 27.4479 78.4285 26.292V18.9937C78.4285 14.8988 76.0867 13.4788 73.5799 13.4788C70.8093 13.4788 69.424 15.163 68.8633 15.7244C68.4015 16.1867 68.0717 15.7904 68.0717 14.5355V8.02981C68.0717 7.23723 67.6099 6.87397 66.8513 7.03909L62.9592 7.86468V8.62423C64.7073 8.45911 65.1031 8.9875 65.1031 10.4736V26.0609C65.1031 27.3158 64.5424 27.7451 62.9922 27.8772V28.6698H70.1826V27.8772C68.6324 27.7451 68.0717 27.3158 68.0717 26.0609V19.7533C68.0717 17.1444 69.5229 15.2951 71.8648 15.2951C74.1736 15.2951 75.46 17.1444 75.46 19.7533V26.3581C75.46 28.1414 76.4495 28.8679 77.7688 28.8679Z" fill="#332E29"/>
<path d="M89.0474 28.8679C93.1044 28.8679 96.7326 25.9948 96.7326 21.1403C96.7326 16.3188 93.1044 13.4788 89.0804 13.4788C85.0234 13.4788 81.3952 16.3518 81.3952 21.2064C81.3952 26.0278 85.0234 28.8679 89.0474 28.8679ZM84.6276 19.9514C84.6276 16.2197 86.1449 14.4695 88.3218 14.4695C91.4222 14.4695 93.5002 18.1021 93.5002 22.3952C93.5002 26.1269 91.95 27.8442 89.806 27.8442C86.7056 27.8442 84.6276 24.2115 84.6276 19.9514Z" fill="#332E29"/>
<path d="M102.357 28.8679C103.28 28.8679 104.27 28.5046 104.665 27.9102V27.4479C103.709 27.646 103.016 27.4479 103.016 26.292V8.02981C103.016 7.23723 102.554 6.87397 101.796 7.03909L97.9038 7.86468V8.62423C99.6519 8.45911 100.048 8.9875 100.048 10.4736V26.3581C100.048 28.1414 101.037 28.8679 102.357 28.8679Z" fill="#332E29"/>
<path d="M110.775 28.8679C112.952 28.8679 114.931 27.8772 116.085 26.4572C116.316 26.1599 116.58 26.1599 116.58 26.4902C116.646 28.0423 117.603 28.8679 118.955 28.8679C119.846 28.8679 120.67 28.4056 121 27.7451V27.3158C120.175 27.613 119.549 27.4479 119.549 26.292V19.0598C119.549 15.1299 117.998 13.4788 114.106 13.4788C110.874 13.4788 107.444 14.5025 107.444 17.0123C107.444 17.97 107.939 18.6305 108.994 18.6305C112.028 18.6305 109.192 14.4034 113.216 14.4034C115.558 14.4034 116.58 15.8895 116.58 18.2672V18.9277C116.58 19.6542 116.283 19.8524 115.69 19.9184C108.532 20.777 106.487 22.6594 106.487 25.2353C106.487 27.8111 108.565 28.8679 110.775 28.8679ZM109.621 24.6078C109.621 23.0887 110.643 21.3715 115.261 20.8761C116.349 20.744 116.58 21.1733 116.58 21.9329V23.2869C116.58 25.5325 114.7 27.1837 112.457 27.1837C110.511 27.1837 109.621 25.9618 109.621 24.6078Z" fill="#332E29"/>
<g clip-path="url(#clip1_26_75)">
<path d="M129.077 34.5307C129.12 34.7887 129.367 34.9618 129.623 34.9073C132.708 34.2502 135.577 32.7561 137.94 30.5712C140.421 28.2766 142.247 25.3093 143.215 21.9976C144.184 18.6859 144.257 15.1587 143.428 11.806C142.598 8.45327 140.898 5.40562 138.515 3L137.891 3.67538C140.155 5.96072 141.77 8.85598 142.558 12.0411C143.346 15.2262 143.276 18.577 142.356 21.7231C141.436 24.8693 139.701 27.6881 137.344 29.8681C135.102 31.9415 132.38 33.36 129.453 33.9853C129.202 34.0388 129.034 34.2781 129.077 34.5307Z" fill="#6A8040"/>
<path fill-rule="evenodd" clip-rule="evenodd" d="M134 32.8696C135.72 30.9483 138.219 29.7391 141 29.7391C143.781 29.7391 146.28 30.9483 148 32.8696C146.28 34.7909 143.781 36 141 36C138.219 36 135.72 34.7909 134 32.8696Z" fill="#6A8040"/>
<path fill-rule="evenodd" clip-rule="evenodd" d="M137.87 30C135.948 28.2804 134.739 25.7814 134.739 23C134.739 20.2186 135.948 17.7196 137.87 16C139.791 17.7196 141 20.2186 141 23C141 25.7814 139.791 28.2804 137.87 30Z" fill="#6A8040"/>
<path d="M143.316 12.1593C142.308 10.6176 141.936 8.66992 142.45 6.7509C142.964 4.83188 144.261 3.33125 145.904 2.5C146.912 4.04164 147.284 5.98934 146.77 7.90836C146.256 9.82738 144.959 11.328 143.316 12.1593Z" fill="#6A8040"/>
<path d="M142.013 24.9869C141.884 22.6531 142.711 20.2763 144.493 18.4934C146.276 16.7106 148.653 15.8838 150.987 16.0131C151.116 18.3469 150.289 20.7237 148.507 22.5066C146.724 24.2894 144.347 25.1162 142.013 24.9869Z" fill="#6A8040"/>
<path d="M143.488 16.9883C143.603 14.9139 142.868 12.8011 141.284 11.2164C139.699 9.63165 137.586 8.89674 135.512 9.01165C135.397 11.0861 136.132 13.1989 137.716 14.7836C139.301 16.3684 141.414 17.1033 143.488 16.9883Z" fill="#6A8040"/>
<path d="M140.99 6.9898C141.09 5.17465 140.447 3.32599 139.061 1.93934C137.674 0.552694 135.825 -0.0903528 134.01 0.0101974C133.91 1.82535 134.553 3.67402 135.939 5.06066C137.326 6.44731 139.175 7.09035 140.99 6.9898Z" fill="#6A8040"/>
</g>
<defs>
<clipPath id="clip0_26_75">
<rect width="22" height="36" fill="white"/>
</clipPath>
<clipPath id="clip1_26_75">
<rect width="22" height="36" fill="white" transform="matrix(-1 0 0 1 151 0)"/>
</clipPath>
</defs>
</svg>
