<svg width="116" height="30" viewBox="0 0 116 30" fill="none" xmlns="http://www.w3.org/2000/svg">
<rect x="0.5" y="0.5" width="115" height="29" stroke="black"/>
<rect x="0.5" y="0.5" width="29" height="29" stroke="black"/>
<path d="M3 10.5H7.5M27 10.5H22.5M15 10.5V3M15 10.5V18M15 10.5H22.5M15 10.5H7.5M15 27V18M15 18L22.5 10.5M15 18L7.5 10.5" stroke="black"/>
<path d="M46.376 17.808C46.472 17.632 46.696 17.568 46.776 17.504C46.792 17.488 46.792 17.488 46.808 17.488C46.872 17.488 46.92 17.648 46.92 17.792C46.92 17.84 46.904 17.888 46.904 17.92C46.84 18.32 46.616 19.216 46.376 19.584C46.296 19.712 45.992 19.792 45.592 19.92C45.032 20.096 43.864 20.24 42.904 20.24C39.992 20.24 37.736 17.744 37.736 14.832C37.736 11.728 40.456 9.392 43.56 9.392C44.072 9.392 44.968 9.488 45.256 9.584C45.544 9.68 46.152 9.824 46.472 9.872C46.6 9.888 46.664 10.128 46.68 10.352C46.744 10.848 46.792 11.264 46.808 12.096C46.824 12.24 46.792 12.48 46.632 12.464C46.456 12.448 46.28 12.24 46.216 11.872C46.136 11.232 45.848 10.88 45.656 10.704C45.496 10.544 44.776 9.888 43.304 9.888C40.952 9.888 39.336 12.096 39.336 14.448C39.336 17.056 40.904 19.744 43.4 19.744C45.192 19.744 45.96 18.624 46.376 17.808ZM49.7944 15.776V18.928C49.8104 19.36 50.3384 19.52 50.6584 19.616C50.8344 19.68 51.0264 19.744 51.0264 19.904C51.0264 20.032 50.8184 20.048 50.7064 20.048C50.0664 20.048 49.8744 19.968 49.3144 19.968C48.7544 19.968 48.6584 20.048 48.0184 20.048C47.9064 20.048 47.6984 20.032 47.6984 19.904C47.6984 19.744 47.8904 19.68 48.0664 19.616C48.3864 19.52 48.6584 19.44 48.6744 19.008V15.568C48.6744 14.992 48.5464 14.528 48.0184 14.416C47.9384 14.4 47.8584 14.304 47.8584 14.208C47.8584 14.112 47.9384 14.032 48.0024 14.016C48.8184 13.824 49.3464 13.392 49.7784 13.136C49.7944 13.136 49.7944 13.12 49.8104 13.12C49.8584 13.12 49.8904 13.184 49.9064 13.232C49.9064 13.344 49.8904 13.92 49.8584 14.432C49.8584 14.464 49.8584 14.464 49.8744 14.464C49.9384 14.464 50.1464 14.16 50.2584 14.064C50.7544 13.616 51.3464 13.376 51.7304 13.376C52.1784 13.376 52.4984 13.6 52.4984 13.888C52.4984 14.208 52.1944 14.72 51.8744 14.72C51.6024 14.72 51.2344 14.432 50.9144 14.432C50.4024 14.432 49.7944 14.704 49.7944 15.776ZM56.6421 13.376C58.4981 13.376 59.9381 14.864 59.9381 16.592C59.9381 18.464 58.7221 20.224 56.3221 20.224C54.5301 20.224 53.1381 18.88 53.1381 17.008C53.1381 15.232 54.6741 13.376 56.6421 13.376ZM56.3701 13.872C55.7941 13.872 55.3461 14.016 54.9621 14.512C54.5301 15.056 54.4501 15.872 54.4501 16.64C54.4501 18.224 55.3781 19.744 56.6581 19.744C57.3781 19.744 57.9861 19.488 58.3061 18.864C58.5621 18.368 58.6261 17.6 58.6261 16.976C58.6261 15.456 57.7301 13.872 56.3701 13.872ZM70.0896 15.008L67.8976 20.256C67.8656 20.32 67.8176 20.368 67.7536 20.368C67.7056 20.368 67.6576 20.32 67.6256 20.256L65.9616 16.128C65.8976 15.968 65.8496 15.92 65.7536 16.144L64.0096 20.256C63.9776 20.32 63.9296 20.368 63.8816 20.368C63.8336 20.368 63.7856 20.32 63.7696 20.256L61.5456 14.736C61.3856 14.32 61.0336 14.048 60.7136 13.952C60.5376 13.888 60.3456 13.824 60.3456 13.664C60.3456 13.536 60.5536 13.52 60.6656 13.52C60.7616 13.52 61.8336 13.6 61.8336 13.6C61.8336 13.6 63.0496 13.52 63.1616 13.52C63.2416 13.52 63.4816 13.536 63.4816 13.664C63.4816 13.824 63.2896 13.888 63.1136 13.952C62.8896 14.016 62.7776 14.288 62.7776 14.592C62.7776 14.736 62.8096 14.88 62.8576 15.008L64.0736 18.144C64.1536 18.368 64.2176 18.352 64.3136 18.128L65.3696 15.552C65.4336 15.376 65.4656 15.216 65.4656 15.072C65.4656 14.48 65.0016 14.048 64.6656 13.952C64.4896 13.904 64.2976 13.824 64.2976 13.664C64.2976 13.536 64.4896 13.52 64.6176 13.52C64.9056 13.52 65.2256 13.6 65.8176 13.6C66.4096 13.6 66.8096 13.52 67.1616 13.52C67.2736 13.52 67.4816 13.536 67.4816 13.664C67.4816 13.824 67.2896 13.888 67.1136 13.952C66.8736 14.032 66.5696 14.144 66.5696 14.528C66.5696 14.656 66.6016 14.816 66.6816 15.008L67.8816 18.096C67.9776 18.32 68.0416 18.336 68.1376 18.112L69.3536 15.28C69.4336 15.104 69.4656 14.928 69.4656 14.784C69.4656 14.32 69.1456 14.032 68.9056 13.952C68.7296 13.888 68.5376 13.824 68.5376 13.664C68.5376 13.536 68.7456 13.52 68.8576 13.52C69.3216 13.52 69.4816 13.6 70.0576 13.6C70.6496 13.6 70.6336 13.52 70.9856 13.52C71.1136 13.52 71.3056 13.536 71.3056 13.664C71.3056 13.824 71.1136 13.888 70.9376 13.952C70.6176 14.048 70.2976 14.528 70.0896 15.008ZM72.0988 10.48C71.6348 10.432 71.3468 10.16 71.3468 9.808C71.3468 9.376 71.7628 9.072 72.2268 9.072C72.9948 9.072 73.5548 9.616 73.5548 10.512C73.5548 12.128 72.3548 12.672 71.5388 12.704C71.3308 12.704 71.2188 12.64 71.2188 12.528C71.2188 12.448 71.2988 12.368 71.4428 12.336C72.1308 12.192 72.7228 11.904 72.7228 11.072C72.7228 10.816 72.4508 10.512 72.0988 10.48ZM74.0348 13.792C73.4268 13.792 73.0268 14.208 73.0268 14.848C73.0268 15.488 73.8748 15.984 74.3868 16.304C74.8668 16.608 75.9068 17.248 75.9068 18.304C75.9068 19.408 75.3788 20.224 73.6028 20.224C72.7388 20.224 72.0028 19.856 71.9068 19.648C71.7948 19.424 71.7148 19.04 71.6988 18.672C71.6988 18.576 71.8428 18.528 71.9708 18.528C72.0828 18.528 72.1948 18.56 72.2108 18.64C72.3228 19.184 73.0428 19.792 73.6988 19.792C74.4668 19.792 74.8188 19.312 74.8188 18.672C74.8188 18.096 74.3068 17.712 73.6028 17.216C72.8348 16.672 72.0668 16.048 72.0668 15.264C72.0668 14.352 72.6428 13.376 74.2108 13.376C74.8508 13.376 75.2508 13.584 75.4108 13.744C75.6028 13.984 75.6828 14.544 75.6828 14.992C75.6828 15.04 75.6508 15.056 75.5868 15.056C75.4268 15.056 75.0428 14.864 75.0428 14.72C75.0268 14.272 74.5628 13.792 74.0348 13.792ZM89.4498 9.6C90.2178 9.6 90.3138 9.552 91.2898 9.552C91.5618 9.552 91.7538 9.6 91.7538 9.728C91.7538 9.872 91.5938 9.984 91.2258 10.048C90.4258 10.192 90.2338 10.384 90.2178 10.912C90.2018 11.296 90.1858 18.992 90.1858 19.872C90.1858 20.208 90.0098 20.272 89.8498 20.272C89.6578 20.272 89.0658 19.968 88.5538 19.264C88.2658 18.864 83.2258 12.704 82.8578 12.256C82.6978 12.064 82.6018 12 82.5218 12C82.4098 12 82.3778 12.208 82.3778 12.336C82.3458 13.92 82.2978 16.368 82.2978 18.336C82.2978 18.912 82.5218 19.472 83.3218 19.616C83.6898 19.68 83.8498 19.76 83.8498 19.904C83.8498 20.032 83.6578 20.08 83.3858 20.08C82.5218 20.08 82.4738 20 81.8818 20C81.3058 20 81.2898 20.08 80.4258 20.08C80.1538 20.08 79.9618 20.032 79.9618 19.904C79.9618 19.76 80.1217 19.696 80.4898 19.6C81.0978 19.44 81.3538 18.944 81.4178 18.288C81.5458 17.088 81.7057 14.528 81.7057 11.888C81.7057 10.752 81.0658 10.384 80.1217 10.08C80.0258 10.048 79.6258 9.888 79.6258 9.696C79.6258 9.504 79.8818 9.472 79.9938 9.472C81.2418 9.504 81.3058 9.552 82.4578 9.552C82.6498 9.552 82.7298 9.68 82.8418 9.824C83.1458 10.256 88.6178 17.12 88.9378 17.504C89.0178 17.6 89.2098 17.824 89.3378 17.824C89.4178 17.824 89.4818 17.728 89.4978 17.488C89.5138 16.976 89.5298 14.16 89.5298 12.368V10.976C89.5138 10.56 88.9538 10.16 88.6018 10.096C88.2338 10.032 88.0738 9.92 88.0738 9.776C88.0738 9.648 88.2658 9.6 88.5378 9.6H89.4498ZM95.3143 13.872C94.4183 13.872 93.6823 14.736 93.6823 15.152C93.6823 15.28 93.7623 15.392 93.9863 15.392H95.2983C95.7623 15.392 96.1302 15.376 96.4663 15.312C96.5783 15.296 96.6263 15.04 96.6263 14.864C96.6263 14.224 95.9383 13.872 95.3143 13.872ZM95.5703 13.376C96.8023 13.376 97.6663 13.984 97.6663 15.168C97.6663 15.648 97.5223 15.888 97.1063 15.888H93.7783C93.5223 15.888 93.3783 15.936 93.3783 16.48C93.3783 17.92 94.3543 19.264 95.7943 19.264C96.1943 19.264 96.9143 19.088 97.3303 18.544C97.3783 18.496 97.4583 18.432 97.5063 18.432C97.6183 18.432 97.6343 18.624 97.6023 18.752C97.4423 19.312 96.5463 20.224 95.0743 20.224C93.6183 20.224 92.3863 18.88 92.3863 16.752C92.3863 14.944 93.7623 13.376 95.5703 13.376ZM100.429 12C100.429 12.592 100.605 13.376 101.245 13.376C101.885 13.376 102.285 13.536 102.445 13.696C102.605 14.208 102.669 14.544 102.669 14.992C102.669 15.04 102.637 15.056 102.589 15.056C102.413 15.056 102.093 14.88 102.061 14.736C101.965 14.112 101.437 14 101.101 14C100.477 14 99.9806 14.4 99.9806 14.944C99.9806 15.584 100.813 16.16 101.341 16.448C101.885 16.736 102.765 17.28 102.765 18.304C102.765 19.408 102.205 20.224 100.365 20.224C100.045 20.224 99.0046 19.856 98.9086 19.648C98.7966 19.424 98.7166 19.04 98.7006 18.672C98.7006 18.576 98.8286 18.528 98.9566 18.528C99.0686 18.528 99.1646 18.56 99.1806 18.64C99.2926 19.184 99.9806 19.728 100.541 19.728C101.373 19.728 101.661 19.248 101.661 18.64C101.661 17.744 101.021 17.552 100.445 17.168C99.6606 16.656 98.9886 16.304 98.9886 15.28C98.9886 14.352 99.4526 13.68 100.461 13.456C100.157 13.36 99.9326 12.544 99.9326 11.936C99.9326 10.544 101.229 9.36 103.133 9.36C104.077 9.36 105.613 10.048 105.613 11.392V12.656L105.597 13.376C105.597 13.52 105.741 13.6 105.949 13.6H107.837C107.917 13.6 107.965 13.792 107.965 13.984C107.965 14.176 107.917 14.368 107.837 14.368H106.189C105.613 14.368 105.549 14.368 105.549 14.592V18.288C105.549 18.928 106.093 19.504 106.669 19.504C107.373 19.504 107.613 19.328 107.869 19.136C107.965 19.072 108.029 19.216 108.029 19.344C108.029 19.392 108.013 19.424 107.997 19.456C107.853 19.696 106.973 20.224 106.141 20.224C105.245 20.224 104.429 19.568 104.429 18.672V14.608C104.429 14.304 104.237 14.4 103.901 14.368C103.805 14.352 103.661 14.032 103.789 13.984C104.461 13.712 104.557 13.44 104.733 13.232C104.781 13.168 104.813 12.464 104.813 11.984C104.813 10.88 104.013 9.84 102.909 9.84C101.629 9.84 100.429 10.752 100.429 12Z" fill="black"/>
</svg>
