<svg width="100" height="30" viewBox="0 0 100 30" fill="none" xmlns="http://www.w3.org/2000/svg">
<rect x="0.5" y="0.5" width="99" height="29" stroke="black"/>
<rect x="0.5" y="0.5" width="29" height="29" stroke="black"/>
<g clip-path="url(#clip0_1183_366)">
<path d="M11.7071 7L15 3.70711L18.2929 7L15 10.2929L11.7071 7Z" stroke="black"/>
<path d="M19.7071 15L23 11.7071L26.2929 15L23 18.2929L19.7071 15Z" stroke="black"/>
<path d="M11.7071 23L15 19.7071L18.2929 23L15 26.2929L11.7071 23Z" stroke="black"/>
<path d="M3.70711 15L7 11.7071L10.2929 15L7 18.2929L3.70711 15Z" stroke="black"/>
<path d="M15.3536 10.6464L15 10.2929L14.6464 10.6464L10.6464 14.6464L10.2929 15L10.6464 15.3536L14.6464 19.3536L15 19.7071L15.3536 19.3536L19.3536 15.3536L19.7071 15L19.3536 14.6464L15.3536 10.6464Z" stroke="black"/>
</g>
<path d="M42.904 20.544C42.552 20.352 42.264 20.192 41.656 20C40.04 19.488 37.72 17.712 37.72 15.056C37.72 11.888 40.12 9.424 43.448 9.408H43.48C46.808 9.408 49.16 11.44 49.16 14.288C49.16 17.488 46.584 19.376 45.32 20.016C45.224 20.064 45.192 20.128 45.192 20.176C45.192 20.272 45.32 20.384 45.448 20.464C49.944 23.056 54.984 24.32 57.192 24.32C59.448 24.32 61.208 23.712 63.32 22.384C63.384 22.352 63.432 22.336 63.48 22.336C63.624 22.336 63.736 22.448 63.736 22.608C63.736 22.656 63.72 22.704 63.672 22.736C61.736 24.32 59.16 25.184 57.048 25.184C54.648 25.184 50.568 24.848 42.904 20.544ZM43.064 10C40.712 10 39.288 12.112 39.288 14.336C39.288 17.104 41.256 19.712 43.928 19.712C46.36 19.712 47.592 17.088 47.592 14.848C47.592 12.384 45.672 10 43.064 10ZM57.1308 13.36H57.1628C57.3068 13.36 57.4348 13.52 57.3548 13.648C57.2908 13.76 57.2268 14.528 57.2268 14.784V18.176C57.2268 18.832 57.2588 19.28 57.5148 19.28C57.6748 19.28 58.0908 19.264 58.2508 19.232C58.3308 19.216 58.4908 19.248 58.4908 19.44C58.4908 19.616 58.3468 19.664 58.2668 19.664C57.4348 19.776 56.8588 20.016 56.3948 20.208C56.3308 20.24 56.1068 20.304 56.0108 20.304C55.9468 20.304 55.9628 20.288 55.9628 20.24C55.9628 20.032 56.0428 19.456 56.0428 19.184V19.088C55.2108 19.904 54.3948 20.224 53.4028 20.224C52.3628 20.224 51.5788 19.568 51.5788 18.32V15.072C51.5788 14.608 51.3708 14.352 50.8908 14.16C50.8428 14.144 50.6828 14.08 50.6828 13.92C50.6828 13.712 50.8428 13.664 50.9228 13.648C51.7868 13.616 51.9468 13.52 52.5707 13.376C52.7308 13.36 52.8108 13.44 52.7948 13.6C52.7308 14.096 52.6988 14.352 52.6988 14.832V17.952C52.6988 18.72 53.3548 19.408 54.0428 19.408C54.5868 19.408 54.9868 19.392 55.3868 19.088C55.6268 18.912 56.1068 18.544 56.1068 17.888V14.96C56.1068 14.304 55.3868 14.176 55.0668 14.16C54.9868 14.16 54.6988 14.112 54.6988 13.888C54.6988 13.696 55.0028 13.648 55.0668 13.648C56.6828 13.568 56.5548 13.52 57.1308 13.36ZM64.1283 19.488C64.4163 19.488 64.5923 19.424 64.7683 19.264C64.8643 19.168 65.0243 19.28 65.0243 19.408C65.0243 19.536 64.3523 20.224 63.7443 20.224C62.8323 20.224 62.6883 19.392 62.5603 19.392C62.3523 19.392 61.9043 20.208 60.5923 20.224C59.9363 20.224 59.2163 19.584 59.2163 18.96C59.2163 18.288 59.6003 17.84 60.3843 17.52L62.0163 16.848C62.4323 16.672 62.4483 16.64 62.4643 16.208L62.4963 15.184C62.5123 14.64 62.1283 14.16 61.5523 14.16C61.1683 14.16 60.7043 14.448 60.5763 14.672C60.5283 14.752 60.5123 14.864 60.5123 14.976C60.5123 15.056 60.5283 15.12 60.5283 15.2C60.5283 15.424 59.6323 15.76 59.4243 15.76C59.3283 15.76 59.2963 15.664 59.2963 15.616C59.2963 15.28 59.5363 14.864 59.9363 14.512C60.4323 14.064 61.4723 13.376 62.3203 13.376C63.0723 13.376 63.6483 14.016 63.6323 14.8L63.5523 18.256C63.5523 18.88 63.6643 19.488 64.1283 19.488ZM60.4963 18.608C60.4963 19.216 60.9763 19.488 61.2803 19.488C61.6963 19.488 61.9843 19.28 62.2403 19.056C62.3523 18.96 62.4163 18.816 62.4323 18.416L62.4643 17.632C62.4803 17.392 62.4483 17.296 62.3203 17.296C62.2723 17.296 62.1763 17.312 62.0963 17.344C60.8643 17.76 60.4963 18.24 60.4963 18.608ZM67.6069 15.776V18.928C67.6229 19.36 68.1509 19.52 68.4709 19.616C68.6469 19.68 68.8389 19.744 68.8389 19.904C68.8389 20.032 68.6309 20.048 68.5189 20.048C67.8789 20.048 67.6869 19.968 67.1269 19.968C66.5669 19.968 66.4709 20.048 65.8309 20.048C65.7189 20.048 65.5109 20.032 65.5109 19.904C65.5109 19.744 65.7029 19.68 65.8789 19.616C66.1989 19.52 66.4709 19.44 66.4869 19.008V15.568C66.4869 14.992 66.3589 14.528 65.8309 14.416C65.7509 14.4 65.6709 14.304 65.6709 14.208C65.6709 14.112 65.7509 14.032 65.8149 14.016C66.6309 13.824 67.1589 13.392 67.5909 13.136C67.6069 13.136 67.6069 13.12 67.6229 13.12C67.6709 13.12 67.7029 13.184 67.7189 13.232C67.7189 13.344 67.7029 13.92 67.6709 14.432C67.6709 14.464 67.6709 14.464 67.6869 14.464C67.7509 14.464 67.9589 14.16 68.0709 14.064C68.5669 13.616 69.1589 13.376 69.5429 13.376C69.9909 13.376 70.3109 13.6 70.3109 13.888C70.3109 14.208 70.0069 14.72 69.6869 14.72C69.4149 14.72 69.0469 14.432 68.7269 14.432C68.2149 14.432 67.6069 14.704 67.6069 15.776ZM73.4146 20.224C72.4226 20.224 71.7506 19.648 71.7506 18.32V14.608C71.7506 14.416 71.6386 14.368 71.1426 14.368C71.0786 14.368 70.9506 14.16 70.9506 14.048C70.9506 14 70.9986 13.952 71.0306 13.936C71.8786 13.696 72.5666 12.512 72.7266 12.512C72.8226 12.512 73.0146 12.528 72.9986 12.672L72.8706 13.376C72.8386 13.52 73.0626 13.6 73.2706 13.6H75.0946C75.1746 13.6 75.2546 13.792 75.2546 13.984C75.2546 14.176 75.1746 14.368 75.0946 14.368H73.5106C72.9666 14.368 72.8706 14.384 72.8706 14.816V17.84C72.8706 19.024 73.4306 19.344 73.9266 19.344C74.5506 19.344 74.8706 19.232 75.1266 19.04C75.2226 18.976 75.2866 19.12 75.2866 19.248C75.2866 19.424 74.3906 20.224 73.4146 20.224ZM78.8299 13.872C77.9339 13.872 77.1979 14.736 77.1979 15.152C77.1979 15.28 77.2779 15.392 77.5019 15.392H78.8139C79.2779 15.392 79.6459 15.376 79.9819 15.312C80.0939 15.296 80.1419 15.04 80.1419 14.864C80.1419 14.224 79.4539 13.872 78.8299 13.872ZM79.0859 13.376C80.3179 13.376 81.1819 13.984 81.1819 15.168C81.1819 15.648 81.0379 15.888 80.6219 15.888H77.2939C77.0379 15.888 76.8939 15.936 76.8939 16.48C76.8939 17.92 77.8699 19.264 79.3099 19.264C79.7099 19.264 80.4299 19.088 80.8459 18.544C80.8939 18.496 80.9739 18.432 81.0219 18.432C81.1339 18.432 81.1499 18.624 81.1179 18.752C80.9579 19.312 80.0619 20.224 78.5899 20.224C77.1339 20.224 75.9019 18.88 75.9019 16.752C75.9019 14.944 77.2779 13.376 79.0859 13.376ZM84.2163 15.776V18.928C84.2323 19.36 84.7603 19.52 85.0803 19.616C85.2563 19.68 85.4483 19.744 85.4483 19.904C85.4483 20.032 85.2403 20.048 85.1283 20.048C84.4883 20.048 84.2963 19.968 83.7363 19.968C83.1763 19.968 83.0803 20.048 82.4403 20.048C82.3283 20.048 82.1203 20.032 82.1203 19.904C82.1203 19.744 82.3123 19.68 82.4883 19.616C82.8083 19.52 83.0803 19.44 83.0963 19.008V15.568C83.0963 14.992 82.9683 14.528 82.4403 14.416C82.3603 14.4 82.2803 14.304 82.2803 14.208C82.2803 14.112 82.3603 14.032 82.4243 14.016C83.2403 13.824 83.7682 13.392 84.2003 13.136C84.2163 13.136 84.2163 13.12 84.2323 13.12C84.2803 13.12 84.3123 13.184 84.3283 13.232C84.3283 13.344 84.3123 13.92 84.2803 14.432C84.2803 14.464 84.2803 14.464 84.2963 14.464C84.3603 14.464 84.5683 14.16 84.6803 14.064C85.1763 13.616 85.7682 13.376 86.1523 13.376C86.6003 13.376 86.9203 13.6 86.9203 13.888C86.9203 14.208 86.6163 14.72 86.2963 14.72C86.0243 14.72 85.6562 14.432 85.3363 14.432C84.8243 14.432 84.2163 14.704 84.2163 15.776ZM89.816 13.792C89.208 13.792 88.808 14.208 88.808 14.848C88.808 15.488 89.656 15.984 90.168 16.304C90.648 16.608 91.688 17.248 91.688 18.304C91.688 19.408 91.16 20.224 89.384 20.224C88.52 20.224 87.784 19.856 87.688 19.648C87.576 19.424 87.496 19.04 87.48 18.672C87.48 18.576 87.624 18.528 87.752 18.528C87.864 18.528 87.976 18.56 87.992 18.64C88.104 19.184 88.824 19.792 89.48 19.792C90.248 19.792 90.6 19.312 90.6 18.672C90.6 18.096 90.088 17.712 89.384 17.216C88.616 16.672 87.848 16.048 87.848 15.264C87.848 14.352 88.424 13.376 89.992 13.376C90.632 13.376 91.032 13.584 91.192 13.744C91.384 13.984 91.464 14.544 91.464 14.992C91.464 15.04 91.432 15.056 91.368 15.056C91.208 15.056 90.824 14.864 90.824 14.72C90.808 14.272 90.344 13.792 89.816 13.792Z" fill="black"/>
<defs>
<clipPath id="clip0_1183_366">
<rect width="24" height="24" fill="white" transform="translate(3 3)"/>
</clipPath>
</defs>
</svg>
